<?xml version="1.0" encoding="utf-8"?>
<!-- Generator: Adobe Illustrator 12.0.0, SVG Export Plug-In . SVG Version: 6.00 Build 51448)  -->
<!DOCTYPE svg PUBLIC "-//W3C//DTD SVG 1.1//EN" "http://www.w3.org/Graphics/SVG/1.1/DTD/svg11.dtd" [
	<!ENTITY ns_svg "http://www.w3.org/2000/svg">
	<!ENTITY ns_xlink "http://www.w3.org/1999/xlink">
]>
<svg  version="1.1" id="Layer_1" xmlns="&ns_svg;" xmlns:xlink="&ns_xlink;" width="1396.805" height="661.827"
	 viewBox="0 0 1396.805 661.827" overflow="visible" enable-background="new 0 0 1396.805 661.827" xml:space="preserve">
<path fill="none" stroke="#EC008C" d="M79.865,96.949c-3.279,0-5.959,2.661-5.959,5.959c0,3.281,2.68,5.943,5.959,5.943
	c3.281,0,5.959-2.662,5.959-5.943C85.824,99.61,83.146,96.949,79.865,96.949"/>
<path fill="none" stroke="#EC008C" d="M28.844,96.949c-3.285,0-5.963,2.661-5.963,5.959c0,3.281,2.678,5.943,5.963,5.943
	c3.279,0,5.959-2.662,5.959-5.943C34.803,99.61,32.123,96.949,28.844,96.949"/>
<path fill="none" stroke="#EC008C" d="M516.398,96.949c-3.281,0-5.959,2.661-5.959,5.959c0,3.281,2.678,5.943,5.959,5.943
	c3.283,0,5.961-2.662,5.961-5.943C522.359,99.61,519.682,96.949,516.398,96.949"/>
<path fill="none" stroke="#EC008C" d="M567.424,96.949c-3.283,0-5.963,2.661-5.963,5.959c0,3.281,2.68,5.943,5.963,5.943
	c3.279,0,5.959-2.662,5.959-5.943C573.383,99.61,570.703,96.949,567.424,96.949"/>
<polyline fill="none" stroke="#EC008C" points="0.5,137.627 0.5,70.315 0.5,70.315 0.736,66.398 1.422,62.549 2.578,58.831 
	4.168,55.249 6.176,51.901 8.586,48.821 11.332,46.043 14.395,43.614 17.725,41.556 21.275,39.932 24.99,38.743 28.844,37.991 
	32.744,37.706 563.672,37.706 563.672,37.706 567.576,38.007 571.391,38.761 575.088,39.966 578.621,41.606 581.936,43.665 
	584.982,46.092 587.727,48.871 590.107,51.951 592.115,55.299 593.689,58.865 594.846,62.581 595.531,66.416 595.764,70.315 
	595.764,628.734 595.764,628.734 595.531,632.667 594.826,636.534 593.654,640.285 592.049,643.883 590.006,647.248 587.58,650.346 
	584.801,653.123 581.703,655.552 578.338,657.594 574.756,659.2 570.986,660.373 567.121,661.092 563.188,661.327 32.744,661.327 
	32.744,661.327 28.844,661.06 24.99,660.306 21.275,659.117 17.725,657.492 14.395,655.434 11.332,653.007 8.586,650.228 
	6.176,647.147 4.168,643.8 2.578,640.218 1.422,636.484 0.736,632.635 0.5,628.734 0.5,137.627 "/>
<polyline fill="none" stroke="#EC008C" points="510.523,555.329 510.455,624.481 510.455,624.481 510.691,626.156 511.393,627.695 
	512.498,628.984 513.939,629.905 515.545,630.374 517.234,630.374 518.859,629.905 520.297,628.984 521.402,627.695 
	522.107,626.156 522.342,624.481 522.426,555.329 522.426,555.329 522.174,553.637 521.488,552.113 520.367,550.824 
	518.945,549.903 517.32,549.437 515.631,549.437 514.006,549.903 512.564,550.824 511.459,552.113 510.758,553.637 510.523,555.329 
	"/>
<polyline fill="none" stroke="#EC008C" points="839.998,0.5 976.076,0.5 976.076,0.5 979.174,0.732 982.205,1.469 985.082,2.66 
	987.744,4.285 990.105,6.309 992.131,8.684 993.756,11.328 994.943,14.209 995.68,17.24 995.914,20.354 995.914,641.131 
	995.914,641.131 995.68,644.225 994.943,647.256 993.756,650.137 992.131,652.795 990.105,655.172 987.744,657.184 985.082,658.824 
	982.205,659.994 979.174,660.732 976.076,660.965 839.998,660.965 839.998,660.965 836.9,660.732 833.869,659.994 830.99,658.824 
	828.346,657.184 825.984,655.172 823.959,652.795 822.334,650.137 821.131,647.256 820.41,644.225 820.16,641.131 820.16,20.354 
	820.16,20.354 820.41,17.24 821.131,14.209 822.334,11.328 823.959,8.684 825.984,6.309 828.346,4.285 830.99,2.66 833.869,1.469 
	836.9,0.732 839.998,0.5 "/>
<path fill="none" stroke="#EC008C" d="M914.273,454.039c0-3.445-2.779-6.225-6.229-6.225s-6.244,2.779-6.244,6.225
	c0,3.451,2.795,6.246,6.244,6.246S914.273,457.49,914.273,454.039"/>
<path fill="none" stroke="#EC008C" d="M914.273,400.188c0-3.447-2.779-6.246-6.229-6.246s-6.244,2.799-6.244,6.246
	c0,3.432,2.795,6.227,6.244,6.227S914.273,403.619,914.273,400.188"/>
<path fill="none" stroke="#EC008C" d="M109.301,416.521c-3.314,0-6.029,2.711-6.029,6.025c0,3.33,2.715,6.027,6.029,6.027
	c3.33,0,6.025-2.697,6.025-6.027C115.326,419.231,112.631,416.521,109.301,416.521"/>
<path fill="none" stroke="#EC008C" d="M109.301,263.448c-3.314,0-6.029,2.697-6.029,6.027c0,3.332,2.715,6.027,6.029,6.027
	c3.33,0,6.025-2.695,6.025-6.027C115.326,266.146,112.631,263.448,109.301,263.448"/>
<polyline fill="none" stroke="#EC008C" points="561.613,555.395 561.547,624.564 561.547,624.564 561.783,626.239 562.484,627.778 
	563.605,629.053 565.014,629.973 566.652,630.458 568.344,630.458 569.967,629.973 571.391,629.053 572.494,627.778 
	573.197,626.239 573.449,624.564 573.516,555.395 573.516,555.395 573.281,553.705 572.561,552.164 571.475,550.893 
	570.033,549.989 568.408,549.486 566.719,549.486 565.078,549.989 563.672,550.893 562.551,552.164 561.85,553.705 561.613,555.395 
	"/>
<polyline fill="none" stroke="#EC008C" points="635.197,0.5 771.262,0.5 771.262,0.5 774.357,0.732 777.404,1.469 780.268,2.66 
	782.928,4.285 785.305,6.309 787.33,8.684 788.955,11.328 790.127,14.209 790.865,17.24 791.115,20.354 791.115,641.131 
	791.115,641.131 790.865,644.225 790.127,647.256 788.955,650.137 787.33,652.795 785.305,655.172 782.928,657.184 780.268,658.824 
	777.404,659.994 774.357,660.732 771.262,660.965 635.197,660.965 635.197,660.965 632.1,660.732 629.07,659.994 626.191,658.824 
	623.545,657.184 621.184,655.172 619.158,652.795 617.537,650.137 616.33,647.256 615.611,644.225 615.359,641.131 615.359,20.354 
	615.359,20.354 615.611,17.24 616.33,14.209 617.537,11.328 619.158,8.684 621.184,6.309 623.545,4.285 626.191,2.66 629.07,1.469 
	632.1,0.732 635.197,0.5 "/>
<path fill="none" stroke="#EC008C" d="M709.473,454.039c0-3.445-2.795-6.225-6.229-6.225c-3.447,0-6.242,2.779-6.242,6.225
	c0,3.451,2.795,6.246,6.242,6.246C706.678,460.285,709.473,457.49,709.473,454.039"/>
<path fill="none" stroke="#EC008C" d="M709.473,400.188c0-3.447-2.795-6.246-6.229-6.246c-3.447,0-6.242,2.799-6.242,6.246
	c0,3.432,2.795,6.227,6.242,6.227C706.678,406.414,709.473,403.619,709.473,400.188"/>
<polyline fill="none" stroke="#EC008C" points="1041.631,0.5 1177.695,0.5 1177.695,0.5 1180.791,0.732 1183.822,1.469 
	1186.701,2.66 1189.348,4.285 1191.725,6.309 1193.732,8.684 1195.375,11.328 1196.563,14.209 1197.281,17.24 1197.533,20.354 
	1197.533,641.131 1197.533,641.131 1197.281,644.225 1196.563,647.256 1195.375,650.137 1193.732,652.795 1191.725,655.172 
	1189.348,657.184 1186.701,658.824 1183.822,659.994 1180.791,660.732 1177.695,660.965 1041.631,660.965 1041.631,660.965 
	1038.52,660.732 1035.486,659.994 1032.625,658.824 1029.947,657.184 1027.586,655.172 1025.561,652.795 1023.938,650.137 
	1022.748,647.256 1022.029,644.225 1021.777,641.131 1021.777,20.354 1021.777,20.354 1022.029,17.24 1022.748,14.209 
	1023.938,11.328 1025.561,8.684 1027.586,6.309 1029.947,4.285 1032.625,2.66 1035.486,1.469 1038.52,0.732 1041.631,0.5 "/>
<polyline fill="none" stroke="#EC008C" points="1240.404,0.5 1376.469,0.5 1376.469,0.5 1379.564,0.732 1382.594,1.469 
	1385.475,2.66 1388.119,4.285 1390.498,6.309 1392.506,8.684 1394.145,11.328 1395.334,14.209 1396.07,17.24 1396.305,20.354 
	1396.305,641.131 1396.305,641.131 1396.07,644.225 1395.334,647.256 1394.145,650.137 1392.506,652.795 1390.498,655.172 
	1388.119,657.184 1385.475,658.824 1382.594,659.994 1379.564,660.732 1376.469,660.965 1240.404,660.965 1240.404,660.965 
	1237.307,660.732 1234.277,659.994 1231.396,658.824 1228.736,657.184 1226.359,655.172 1224.352,652.795 1222.727,650.137 
	1221.539,647.256 1220.803,644.225 1220.568,641.131 1220.568,20.354 1220.568,20.354 1220.803,17.24 1221.539,14.209 
	1222.727,11.328 1224.352,8.684 1226.359,6.309 1228.736,4.285 1231.396,2.66 1234.277,1.469 1237.307,0.732 1240.404,0.5 "/>
<path fill="none" stroke="#EC008C" d="M329.496,336.769c-7.043,0-12.754,5.709-12.754,12.757s5.711,12.755,12.754,12.755
	c7.049,0,12.76-5.707,12.76-12.755S336.545,336.769,329.496,336.769"/>
<polyline fill="none" stroke="#EC008C" points="73.689,555.026 73.639,624.196 73.639,624.196 73.873,625.889 74.574,627.428 
	75.68,628.699 77.102,629.62 78.746,630.106 80.436,630.106 82.041,629.62 83.482,628.699 84.588,627.428 85.289,625.889 
	85.521,624.196 85.607,555.026 85.607,555.026 85.375,553.354 84.654,551.813 83.549,550.523 82.125,549.62 80.502,549.134 
	78.795,549.134 77.172,549.62 75.764,550.523 74.645,551.813 73.938,553.354 73.689,555.026 "/>
<polyline fill="none" stroke="#000000" points="1309.824,459.131 1310.076,459.146 1310.797,459.211 1311.9,459.363 
	1313.342,459.615 1315.064,460.018 1316.957,460.588 1319,461.34 1321.092,462.328 1323.217,463.564 1325.242,465.104 
	1327.152,466.965 1328.859,469.156 1330.299,471.719 1330.9,473.156 1331.42,474.699 1331.822,476.34 1332.125,478.096 
	1332.324,479.973 1332.393,481.965 1332.309,483.953 1332.125,485.83 1331.805,487.59 1331.389,489.23 1330.869,490.77 
	1330.248,492.191 1328.76,494.77 1327.002,496.945 1325.059,498.785 1322.967,500.328 1320.791,501.566 1318.648,502.539 
	1316.537,503.291 1314.58,503.861 1312.84,504.244 1311.348,504.477 1310.211,504.629 1309.475,504.697 1309.223,504.713 
	1308.973,504.697 1308.254,504.629 1307.113,504.477 1305.658,504.229 1303.932,503.826 1302.025,503.275 1299.967,502.504 
	1297.84,501.516 1295.713,500.279 1293.672,498.756 1291.746,496.895 1290.021,494.719 1288.566,492.141 1287.963,490.719 
	1287.443,489.18 1287.025,487.539 1286.725,485.795 1286.523,483.906 1286.455,481.93 1286.541,479.938 1286.725,478.064 
	1287.043,476.305 1287.477,474.664 1287.996,473.141 1288.633,471.703 1290.105,469.125 1291.881,466.945 1293.855,465.104 
	1295.965,463.564 1298.141,462.328 1300.334,461.34 1302.426,460.588 1304.402,460.018 1306.178,459.615 1307.666,459.363 
	1308.82,459.211 1309.557,459.146 1309.824,459.131 "/>
<polyline fill="none" stroke="#000000" points="1332.393,446.457 1332.24,446.457 1331.805,446.457 1331.119,446.457 
	1330.182,446.457 1329.061,446.457 1327.721,446.457 1326.248,446.457 1324.625,446.457 1321.043,446.457 1317.191,446.457 
	1309.475,446.457 1305.992,446.457 1304.418,446.457 1302.996,446.457 1301.74,446.457 1300.686,446.457 1299.848,446.457 
	1299.262,446.457 1298.928,446.457 1298.877,446.457 1298.576,446.441 1297.906,446.375 1296.938,446.205 1295.746,445.922 
	1294.408,445.488 1292.969,444.852 1291.514,444.014 1290.123,442.91 1288.867,441.518 1287.795,439.813 1286.992,437.754 
	1286.725,436.578 1286.541,435.291 1286.506,432.496 1286.658,431.189 1286.91,429.969 1287.68,427.809 1288.766,425.998 
	1290.055,424.51 1291.514,423.324 1293.053,422.387 1294.576,421.68 1296.031,421.18 1297.354,420.828 1298.426,420.609 
	1299.195,420.51 1299.598,420.479 1299.715,420.479 1300.166,420.479 1300.988,420.51 1302.059,420.609 1303.348,420.828 
	1304.754,421.164 1306.227,421.664 1307.684,422.352 1309.037,423.289 1310.262,424.479 1311.232,425.953 1311.9,427.744 
	1312.104,428.779 1312.203,429.902 1312.203,430.201 1312.219,430.387 1312.219,430.387 1312.219,430.402 1312.219,430.67 
	1312.219,431.141 1312.219,432.229 1312.219,432.648 1312.219,432.799 "/>
<polyline fill="none" stroke="#000000" points="1287.377,386.459 1287.377,386.66 1287.377,387.18 1287.377,388.754 
	1287.377,390.328 1287.377,390.848 1287.377,391.045 1287.412,391.281 1287.477,391.918 1287.629,392.922 1287.914,394.229 
	1288.314,395.752 1288.885,397.477 1289.637,399.318 1290.607,401.227 1291.83,403.117 1293.32,404.939 1295.096,406.666 
	1297.219,408.205 1299.664,409.512 1302.51,410.5 1304.084,410.883 1305.758,411.15 1307.531,411.322 1309.424,411.387 
	1311.316,411.322 1313.107,411.15 1314.764,410.852 1316.338,410.484 1319.184,409.445 1321.643,408.104 1323.77,406.533 
	1325.561,404.758 1327.051,402.865 1328.273,400.924 1329.262,398.982 1330.031,397.09 1330.602,395.318 1331.02,393.744 
	1331.287,392.402 1331.453,391.363 1331.521,390.697 1331.555,390.461 1331.555,390.293 1331.555,389.844 1331.555,388.467 
	1331.555,387.096 1331.555,386.627 1331.555,386.459 "/>
<polyline fill="none" stroke="#000000" points="1331.555,373.285 1331.453,373.285 1331.203,373.285 1330.768,373.285 
	1330.182,373.285 1329.461,373.285 1328.607,373.285 1326.531,373.285 1324.037,373.285 1321.225,373.285 1318.162,373.285 
	1314.898,373.285 1308.219,373.285 1304.953,373.285 1301.809,373.285 1298.912,373.285 1296.316,373.285 1294.123,373.285 
	1292.398,373.285 1291.73,373.285 1291.211,373.285 1290.842,373.285 1290.658,373.285 1290.541,373.285 1290.223,373.271 
	1289.754,373.221 1288.582,372.953 1287.477,372.383 1287.076,371.949 1286.893,371.395 1286.992,370.238 1287.361,369.422 
	1287.795,368.916 1288.131,368.684 1288.213,368.635 1288.213,368.635 1288.365,368.549 1288.701,368.398 1289.186,368.164 
	1289.82,367.828 1290.625,367.443 1291.547,366.975 1293.756,365.869 1296.385,364.563 1299.363,363.09 1302.578,361.484 
	1309.424,358.086 1316.27,354.689 1319.484,353.08 1322.447,351.607 1325.092,350.301 1327.301,349.195 1328.223,348.746 
	1329.01,348.342 1329.68,348.025 1330.164,347.773 1330.467,347.621 1330.633,347.557 1330.65,347.541 1330.717,347.506 
	1331.053,347.289 1331.486,346.818 1331.84,346.133 1331.973,345.145 1331.756,344.307 1331.254,343.756 1330.432,343.488 
	1329.295,343.389 1328.574,343.389 1328.24,343.389 1327.721,343.389 1327.084,343.389 1326.297,343.389 1324.373,343.389 
	1322.012,343.389 1319.301,343.389 1316.32,343.389 1309.842,343.389 1303.195,343.389 1300,343.389 1296.969,343.389 
	1294.207,343.389 1291.764,343.389 1289.738,343.389 1288.213,343.389 1287.646,343.389 1287.227,343.389 1286.975,343.389 
	1286.875,343.389 "/>
<polyline fill="none" stroke="#000000" points="1286.875,328.389 1287.076,328.389 1287.662,328.389 1288.566,328.389 
	1289.77,328.389 1291.244,328.389 1292.918,328.389 1294.793,328.389 1296.801,328.389 1305.473,328.389 1309.641,328.389 
	1311.568,328.389 1313.324,328.389 1314.865,328.389 1316.17,328.389 1317.176,328.389 1317.861,328.389 1318.195,328.389 
	1318.246,328.389 1318.447,328.389 1318.783,328.373 1319.836,328.287 1321.293,328.07 1323,327.637 1324.842,326.916 
	1326.684,325.846 1328.391,324.338 1329.16,323.418 1329.848,322.346 1330.416,321.139 1330.9,319.787 1331.236,318.277 
	1331.436,316.604 1331.453,315.684 1331.471,315.447 1331.471,315.383 1331.471,315.383 1331.471,315.332 1331.471,315.115 
	1331.471,314.762 1331.471,312.637 1331.471,311.75 1331.471,311.482 1331.471,311.381 "/>
<polyline fill="none" stroke="#000000" points="1331.471,302.225 1331.389,302.225 1331.119,302.225 1330.717,302.225 
	1330.148,302.225 1328.625,302.225 1326.65,302.225 1324.322,302.225 1321.711,302.225 1316.053,302.225 1310.377,302.225 
	1307.783,302.225 1305.439,302.225 1303.48,302.225 1301.957,302.225 1301.389,302.225 1300.988,302.225 1300.719,302.225 
	1300.635,302.225 1300.469,302.209 1300.031,302.189 1299.328,302.123 1298.426,301.988 1297.354,301.791 1296.15,301.473 
	1294.861,301.033 1293.555,300.469 1292.232,299.713 1290.959,298.773 1289.754,297.639 1288.684,296.266 1287.779,294.656 
	1287.076,292.785 1286.625,290.605 1286.455,288.129 1286.641,285.666 1287.127,283.508 1287.896,281.65 1288.885,280.076 
	1290.055,278.738 1291.377,277.648 1292.768,276.762 1294.223,276.061 1295.662,275.525 1297.053,275.137 1298.375,274.854 
	1299.547,274.688 1300.535,274.602 1301.307,274.551 1301.791,274.537 1301.975,274.537 1302.043,274.537 1302.293,274.537 
	1302.693,274.537 1303.23,274.537 1304.686,274.537 1306.578,274.537 1308.805,274.537 1311.299,274.537 1316.707,274.537 
	1322.131,274.537 1324.625,274.537 1326.867,274.537 1328.742,274.537 1330.197,274.537 1330.734,274.537 1331.137,274.537 
	1331.389,274.537 1331.471,274.537 "/>
<polyline fill="none" stroke="#000000" points="1331.471,262.049 1331.32,262.049 1330.9,262.049 1330.232,262.049 
	1329.313,262.049 1328.223,262.049 1326.934,262.049 1325.479,262.049 1323.889,262.049 1320.404,262.049 1316.656,262.049 
	1309.139,262.049 1305.725,262.049 1304.201,262.049 1302.813,262.049 1301.588,262.049 1300.551,262.049 1299.732,262.049 
	1299.18,262.049 1298.861,262.049 1298.793,262.049 1298.492,262.049 1297.84,261.979 1296.869,261.832 1295.695,261.561 
	1294.359,261.143 1292.918,260.541 1291.479,259.703 1290.105,258.584 1288.834,257.176 1287.795,255.436 1286.992,253.311 
	1286.725,252.105 1286.541,250.783 1286.506,247.867 1286.641,246.514 1286.893,245.238 1287.662,243.064 1288.748,241.223 
	1290.039,239.766 1291.496,238.594 1293.02,237.691 1294.525,237.055 1295.98,236.602 1297.27,236.303 1298.342,236.133 
	1299.111,236.066 1299.516,236.051 1299.631,236.051 1300.1,236.051 1300.92,236.102 1302.008,236.219 1303.314,236.436 
	1304.736,236.787 1306.227,237.322 1307.701,238.023 1309.088,238.979 1310.313,240.184 1311.299,241.707 1311.984,243.533 
	1312.186,244.588 1312.287,245.742 1312.305,246.045 1312.305,246.229 1312.305,246.229 1312.305,246.244 1312.27,246.561 
	1312.254,247.115 1312.168,248.387 1312.135,248.855 1312.135,249.043 "/>
<polyline fill="none" stroke="#000000" points="1286.455,203.055 1286.455,203.137 1286.455,203.424 1286.455,203.842 
	1286.455,204.412 1286.455,205.9 1286.455,207.707 1286.455,211.793 1286.455,213.768 1286.455,215.492 1286.455,216.834 
	1286.455,217.303 1286.455,217.637 1286.455,217.818 1286.439,218.172 1286.422,218.857 1286.506,219.795 1286.758,220.936 
	1287.227,222.121 1287.979,223.328 1289.117,224.447 1290.658,225.402 1291.611,225.789 1292.701,226.092 1293.922,226.324 
	1295.295,226.441 1296.049,226.457 1296.232,226.457 1296.299,226.457 1296.316,226.457 1296.367,226.475 1296.768,226.506 
	1297.471,226.49 1298.393,226.34 1299.547,225.971 1300.836,225.305 1302.275,224.266 1303.766,222.777 1304.535,221.82 
	1305.307,220.75 1306.059,219.494 1306.83,218.086 1307.582,216.516 1308.301,214.756 1308.336,214.674 1308.438,214.422 
	1308.586,214.02 1308.787,213.5 1309.406,212.127 1310.229,210.438 1311.248,208.58 1312.453,206.652 1313.844,204.832 
	1315.4,203.223 1317.09,201.967 1317.996,201.531 1318.932,201.215 1319.887,201.063 1320.857,201.047 1322.715,201.164 
	1324.391,201.447 1325.93,201.9 1327.287,202.57 1328.457,203.424 1329.461,204.514 1330.266,205.801 1330.869,207.34 
	1331.27,209.115 1331.453,211.158 1331.471,211.693 1331.471,211.895 1331.471,211.895 1331.471,212.061 1331.471,212.379 
	1331.471,212.863 1331.471,214.236 1331.471,216.012 1331.471,218.02 1331.471,222.188 1331.471,224.064 1331.471,225.572 
	1331.471,226.158 1331.471,226.592 1331.471,226.859 1331.471,226.961 "/>
<polyline fill="none" stroke="#000000" points="1287.209,166.043 1287.209,166.262 1287.209,166.811 1287.209,168.471 
	1287.209,170.127 1287.209,170.66 1287.209,170.883 1287.242,171.1 1287.311,171.734 1287.477,172.723 1287.744,173.996 
	1288.148,175.5 1288.717,177.174 1289.486,178.984 1290.457,180.842 1291.646,182.699 1293.135,184.49 1294.893,186.18 
	1296.969,187.688 1299.379,188.959 1302.158,189.947 1303.699,190.301 1305.34,190.568 1307.098,190.75 1308.939,190.801 
	1310.797,190.734 1312.555,190.568 1314.211,190.281 1315.75,189.898 1318.58,188.895 1321.043,187.572 1323.184,186.014 
	1325.008,184.258 1326.564,182.396 1327.838,180.473 1328.893,178.531 1329.713,176.674 1330.35,174.934 1330.818,173.359 
	1331.137,172.037 1331.338,171.033 1331.436,170.363 1331.471,170.127 1331.471,169.959 1331.471,169.49 1331.471,168.102 
	1331.471,166.695 1331.471,166.227 1331.471,166.043 "/>
<line fill="none" stroke="#000000" x1="1309.34" y1="175.6" x2="1309.34" y2="190.801"/>
<line fill="none" stroke="#000000" x1="1309.457" y1="396.236" x2="1309.424" y2="411.387"/>
<line fill="none" stroke="#000000" x1="1308.973" y1="302.225" x2="1308.973" y2="285.283"/>
<polyline fill="none" stroke="#EC008C" points="22.684,555.026 22.613,624.196 22.613,624.196 22.85,625.889 23.551,627.428 
	24.656,628.699 26.078,629.62 27.719,630.106 29.408,630.106 31.018,629.62 32.457,628.699 33.561,627.428 34.268,625.889 
	34.5,624.196 34.584,555.026 34.584,555.026 34.332,553.354 33.631,551.813 32.525,550.523 31.104,549.62 29.479,549.134 
	27.789,549.134 26.145,549.62 24.742,550.523 23.617,551.813 22.916,553.354 22.684,555.026 "/>
<path fill="none" stroke="#EC008C" d="M914.273,454.039c0-3.445-2.779-6.225-6.229-6.225s-6.244,2.779-6.244,6.225
	c0,3.451,2.795,6.246,6.244,6.246S914.273,457.49,914.273,454.039"/>
<path fill="none" stroke="#EC008C" d="M432.775,309.446c-3.348,0-6.059,2.714-6.059,6.062s2.711,6.06,6.059,6.06
	c3.35,0,6.061-2.712,6.061-6.06S436.125,309.446,432.775,309.446"/>
<path fill="none" stroke="#EC008C" d="M432.813,377.482c-3.348,0-6.059,2.714-6.059,6.062s2.711,6.06,6.059,6.06
	c3.35,0,6.061-2.712,6.061-6.06S436.162,377.482,432.813,377.482"/>
<path fill="none" stroke="#EC008C" d="M517.775,309.404c-3.348,0-6.059,2.714-6.059,6.062s2.711,6.06,6.059,6.06
	c3.35,0,6.061-2.712,6.061-6.06S521.125,309.404,517.775,309.404"/>
<path fill="none" stroke="#EC008C" d="M517.813,377.44c-3.348,0-6.059,2.714-6.059,6.062s2.711,6.06,6.059,6.06
	c3.35,0,6.061-2.712,6.061-6.06S521.162,377.44,517.813,377.44"/>
<path fill="none" stroke="#EC008C" d="M391.77,334.951c-3.348,0-6.059,2.714-6.059,6.062s2.711,6.06,6.059,6.06
	c3.35,0,6.061-2.712,6.061-6.06S395.119,334.951,391.77,334.951"/>
<path fill="none" stroke="#EC008C" d="M391.791,385.982c-3.348,0-6.059,2.714-6.059,6.062s2.711,6.06,6.059,6.06
	c3.35,0,6.061-2.712,6.061-6.06S395.141,385.982,391.791,385.982"/>
<path fill="none" stroke="#EC008C" d="M561.85,334.951c-3.348,0-6.059,2.714-6.059,6.062s2.711,6.06,6.059,6.06
	c3.35,0,6.061-2.712,6.061-6.06S565.199,334.951,561.85,334.951"/>
<path fill="none" stroke="#EC008C" d="M561.869,385.982c-3.348,0-6.059,2.714-6.059,6.062s2.711,6.06,6.059,6.06
	c3.35,0,6.061-2.712,6.061-6.06S565.219,385.982,561.869,385.982"/>
<path fill="none" stroke="#EC008C" d="M484.033,175.278c-2.508,0-4.535,2.043-4.535,4.537c0,2.51,2.027,4.535,4.535,4.535
	c2.496,0,4.539-2.025,4.539-4.535C488.572,177.321,486.529,175.278,484.033,175.278"/>
<path fill="none" stroke="#EC008C" d="M318.205,175.286c-2.508,0-4.535,2.025-4.535,4.535c0,2.496,2.027,4.521,4.535,4.521
	c2.496,0,4.539-2.025,4.539-4.521C322.744,177.312,320.701,175.286,318.205,175.286"/>
<path fill="none" stroke="#EC008C" d="M484.033,56.223c-2.508,0-4.535,2.043-4.535,4.537c0,2.511,2.027,4.536,4.535,4.536
	c2.496,0,4.539-2.025,4.539-4.536C488.572,58.266,486.529,56.223,484.033,56.223"/>
<path fill="none" stroke="#EC008C" d="M318.205,56.231c-2.508,0-4.535,2.025-4.535,4.535c0,2.495,2.027,4.521,4.535,4.521
	c2.496,0,4.539-2.025,4.539-4.521C322.744,58.257,320.701,56.231,318.205,56.231"/>
<path fill="none" stroke="#EC008C" d="M274.982,60.75c-5.463,0-9.92,4.437-9.92,9.935c0,5.471,4.457,9.908,9.92,9.908
	c5.465,0,9.922-4.438,9.922-9.908C284.904,65.187,280.447,60.75,274.982,60.75"/>
<path fill="none" stroke="#EC008C" d="M573.145,476.33c-2.508,0-4.535,2.043-4.535,4.537c0,2.511,2.027,4.536,4.535,4.536
	c2.496,0,4.539-2.025,4.539-4.536C577.684,478.373,575.641,476.33,573.145,476.33"/>
<path fill="none" stroke="#EC008C" d="M573.145,447.982c-2.508,0-4.535,2.043-4.535,4.537c0,2.511,2.027,4.536,4.535,4.536
	c2.496,0,4.539-2.025,4.539-4.536C577.684,450.025,575.641,447.982,573.145,447.982"/>
<path fill="none" stroke="#EC008C" d="M23.125,476.347c-2.508,0-4.535,2.043-4.535,4.537c0,2.51,2.027,4.535,4.535,4.535
	c2.496,0,4.539-2.025,4.539-4.535C27.664,478.39,25.621,476.347,23.125,476.347"/>
<path fill="none" stroke="#EC008C" d="M23.125,447.999c-2.508,0-4.535,2.043-4.535,4.537c0,2.51,2.027,4.535,4.535,4.535
	c2.496,0,4.539-2.025,4.539-4.535C27.664,450.042,25.621,447.999,23.125,447.999"/>
<path fill="none" stroke="#EC008C" d="M650.793,534.849c0-3.121-2.529-5.669-5.67-5.669c-3.122,0-5.668,2.548-5.668,5.669
	s2.546,5.669,5.668,5.669C648.264,540.518,650.793,537.97,650.793,534.849"/>
<path fill="none" stroke="#EC008C" d="M650.752,625.53c0-3.121-2.53-5.669-5.67-5.669c-3.123,0-5.669,2.548-5.669,5.669
	s2.546,5.669,5.669,5.669C648.222,631.199,650.752,628.651,650.752,625.53"/>
<path fill="none" stroke="#EC008C" d="M767.002,534.849c0-3.121-2.53-5.669-5.67-5.669c-3.123,0-5.669,2.548-5.669,5.669
	s2.546,5.669,5.669,5.669C764.472,540.518,767.002,537.97,767.002,534.849"/>
<path fill="none" stroke="#EC008C" d="M766.959,625.53c0-3.121-2.529-5.669-5.67-5.669c-3.122,0-5.668,2.548-5.668,5.669
	s2.546,5.669,5.668,5.669C764.43,631.199,766.959,628.651,766.959,625.53"/>
<path fill="none" stroke="#EC008C" d="M650.74,35.932c0-3.121-2.529-5.669-5.67-5.669c-3.121,0-5.668,2.548-5.668,5.669
	s2.547,5.669,5.668,5.669C648.211,41.601,650.74,39.053,650.74,35.932"/>
<path fill="none" stroke="#EC008C" d="M650.699,126.613c0-3.121-2.529-5.669-5.67-5.669c-3.123,0-5.668,2.548-5.668,5.669
	s2.545,5.669,5.668,5.669C648.17,132.282,650.699,129.734,650.699,126.613"/>
<path fill="none" stroke="#EC008C" d="M766.949,35.932c0-3.121-2.529-5.669-5.67-5.669c-3.123,0-5.668,2.548-5.668,5.669
	s2.545,5.669,5.668,5.669C764.42,41.601,766.949,39.053,766.949,35.932"/>
<path fill="none" stroke="#EC008C" d="M766.906,126.613c0-3.121-2.529-5.669-5.67-5.669c-3.121,0-5.668,2.548-5.668,5.669
	s2.547,5.669,5.668,5.669C764.377,132.282,766.906,129.734,766.906,126.613"/>
<path fill="none" stroke="#EC008C" d="M855.646,534.891c0-3.121-2.529-5.669-5.67-5.669c-3.122,0-5.668,2.548-5.668,5.669
	s2.546,5.669,5.668,5.669C853.117,540.56,855.646,538.012,855.646,534.891"/>
<path fill="none" stroke="#EC008C" d="M855.605,625.572c0-3.121-2.53-5.669-5.67-5.669c-3.123,0-5.669,2.548-5.669,5.669
	s2.546,5.669,5.669,5.669C853.075,631.241,855.605,628.693,855.605,625.572"/>
<path fill="none" stroke="#EC008C" d="M971.855,534.891c0-3.121-2.53-5.669-5.67-5.669c-3.123,0-5.669,2.548-5.669,5.669
	s2.546,5.669,5.669,5.669C969.325,540.56,971.855,538.012,971.855,534.891"/>
<path fill="none" stroke="#EC008C" d="M971.813,625.572c0-3.121-2.529-5.669-5.67-5.669c-3.122,0-5.668,2.548-5.668,5.669
	s2.546,5.669,5.668,5.669C969.283,631.241,971.813,628.693,971.813,625.572"/>
<path fill="none" stroke="#EC008C" d="M855.594,35.974c0-3.121-2.529-5.669-5.67-5.669c-3.121,0-5.668,2.548-5.668,5.669
	s2.547,5.669,5.668,5.669C853.064,41.643,855.594,39.095,855.594,35.974"/>
<path fill="none" stroke="#EC008C" d="M855.553,126.655c0-3.121-2.529-5.669-5.67-5.669c-3.123,0-5.668,2.548-5.668,5.669
	s2.545,5.669,5.668,5.669C853.023,132.324,855.553,129.776,855.553,126.655"/>
<path fill="none" stroke="#EC008C" d="M971.803,35.974c0-3.121-2.529-5.669-5.67-5.669c-3.123,0-5.668,2.548-5.668,5.669
	s2.545,5.669,5.668,5.669C969.273,41.643,971.803,39.095,971.803,35.974"/>
<path fill="none" stroke="#EC008C" d="M971.76,126.655c0-3.121-2.529-5.669-5.67-5.669c-3.121,0-5.668,2.548-5.668,5.669
	s2.547,5.669,5.668,5.669C969.23,132.324,971.76,129.776,971.76,126.655"/>
<path fill="none" stroke="#EC008C" d="M1057.271,534.875c0-3.121-2.529-5.669-5.67-5.669c-3.122,0-5.668,2.548-5.668,5.669
	s2.546,5.669,5.668,5.669C1054.742,540.544,1057.271,537.996,1057.271,534.875"/>
<path fill="none" stroke="#EC008C" d="M1057.23,625.557c0-3.121-2.53-5.669-5.67-5.669c-3.123,0-5.669,2.548-5.669,5.669
	s2.546,5.669,5.669,5.669C1054.7,631.226,1057.23,628.678,1057.23,625.557"/>
<path fill="none" stroke="#EC008C" d="M1173.48,534.875c0-3.121-2.53-5.669-5.67-5.669c-3.123,0-5.669,2.548-5.669,5.669
	s2.546,5.669,5.669,5.669C1170.95,540.544,1173.48,537.996,1173.48,534.875"/>
<path fill="none" stroke="#EC008C" d="M1173.438,625.557c0-3.121-2.529-5.669-5.67-5.669c-3.122,0-5.668,2.548-5.668,5.669
	s2.546,5.669,5.668,5.669C1170.908,631.226,1173.438,628.678,1173.438,625.557"/>
<path fill="none" stroke="#EC008C" d="M1057.219,35.958c0-3.121-2.529-5.669-5.67-5.669c-3.121,0-5.668,2.548-5.668,5.669
	s2.547,5.669,5.668,5.669C1054.689,41.627,1057.219,39.079,1057.219,35.958"/>
<path fill="none" stroke="#EC008C" d="M1057.178,126.64c0-3.121-2.529-5.669-5.67-5.669c-3.123,0-5.668,2.548-5.668,5.669
	s2.545,5.669,5.668,5.669C1054.648,132.309,1057.178,129.761,1057.178,126.64"/>
<path fill="none" stroke="#EC008C" d="M1173.428,35.958c0-3.121-2.529-5.669-5.67-5.669c-3.123,0-5.668,2.548-5.668,5.669
	s2.545,5.669,5.668,5.669C1170.898,41.627,1173.428,39.079,1173.428,35.958"/>
<path fill="none" stroke="#EC008C" d="M1173.385,126.64c0-3.121-2.529-5.669-5.67-5.669c-3.121,0-5.668,2.548-5.668,5.669
	s2.547,5.669,5.668,5.669C1170.855,132.309,1173.385,129.761,1173.385,126.64"/>
<path fill="none" stroke="#EC008C" d="M1256.032,534.817c0-3.121-2.529-5.668-5.67-5.668c-3.122,0-5.668,2.547-5.668,5.668
	s2.546,5.67,5.668,5.67C1253.503,540.487,1256.032,537.938,1256.032,534.817"/>
<path fill="none" stroke="#EC008C" d="M1255.991,625.499c0-3.121-2.53-5.668-5.67-5.668c-3.123,0-5.669,2.547-5.669,5.668
	s2.546,5.67,5.669,5.67C1253.461,631.169,1255.991,628.62,1255.991,625.499"/>
<path fill="none" stroke="#EC008C" d="M1372.241,534.817c0-3.121-2.53-5.668-5.67-5.668c-3.123,0-5.669,2.547-5.669,5.668
	s2.546,5.67,5.669,5.67C1369.711,540.487,1372.241,537.938,1372.241,534.817"/>
<path fill="none" stroke="#EC008C" d="M1372.198,625.499c0-3.121-2.529-5.668-5.67-5.668c-3.122,0-5.668,2.547-5.668,5.668
	s2.546,5.67,5.668,5.67C1369.669,631.169,1372.198,628.62,1372.198,625.499"/>
<path fill="none" stroke="#EC008C" d="M1255.979,35.901c0-3.121-2.529-5.669-5.67-5.669c-3.121,0-5.668,2.548-5.668,5.669
	s2.547,5.669,5.668,5.669C1253.45,41.57,1255.979,39.022,1255.979,35.901"/>
<path fill="none" stroke="#EC008C" d="M1255.938,126.583c0-3.121-2.529-5.669-5.67-5.669c-3.123,0-5.668,2.548-5.668,5.669
	s2.545,5.669,5.668,5.669C1253.409,132.251,1255.938,129.704,1255.938,126.583"/>
<path fill="none" stroke="#EC008C" d="M1372.188,35.901c0-3.121-2.529-5.669-5.67-5.669c-3.123,0-5.668,2.548-5.668,5.669
	s2.545,5.669,5.668,5.669C1369.659,41.57,1372.188,39.022,1372.188,35.901"/>
<path fill="none" stroke="#EC008C" d="M1372.146,126.583c0-3.121-2.529-5.669-5.67-5.669c-3.121,0-5.668,2.548-5.668,5.669
	s2.547,5.669,5.668,5.669C1369.616,132.251,1372.146,129.704,1372.146,126.583"/>
</svg>
