solid Timing_Belt_Tensioner_Cap
facet normal -0.9914448613738105 0.13052619222005182 2.0426725823604017e-32
  outer loop
    vertex 13.149999999999999 -12.999999999999998 0.4899999999999981
    vertex 13.076740526521496 -13.556460946970416 -3.7
    vertex 13.076740526521496 -13.556460946970416 0.4899999999999981
  endloop
endfacet
facet normal -0.9914448613738105 0.13052619222005182 2.0426725823604017e-32
  outer loop
    vertex 13.076740526521496 -13.556460946970416 -3.7
    vertex 13.149999999999999 -12.999999999999998 0.4899999999999981
    vertex 13.149999999999999 -12.999999999999998 -3.7
  endloop
endfacet
facet normal -0.9238795325112868 0.3826834323650895 7.023754149308985e-19
  outer loop
    vertex 13.076740526521496 -13.556460946970416 0.4899999999999981
    vertex 12.94852132656104 -13.866009478471572 -3.7
    vertex 12.94852132656104 -13.866009478471572 0.4899999999999981
  endloop
endfacet
facet normal -0.9238795325112868 0.3826834323650895 7.023754149308985e-19
  outer loop
    vertex 12.94852132656104 -13.866009478471572 -3.7
    vertex 13.076740526521496 -13.556460946970416 0.4899999999999981
    vertex 13.076740526521496 -13.556460946970416 -3.7
  endloop
endfacet
facet normal -0.9238795325112897 0.3826834323650826 -2.7845435178020867e-19
  outer loop
    vertex 12.94852132656104 -13.866009478471572 0.4899999999999981
    vertex 12.861954618136544 -14.074999999999998 -3.7
    vertex 12.861954618136544 -14.074999999999998 0.4899999999999981
  endloop
endfacet
facet normal -0.9238795325112897 0.3826834323650826 -2.7845435178020867e-19
  outer loop
    vertex 12.861954618136544 -14.074999999999998 -3.7
    vertex 12.94852132656104 -13.866009478471572 0.4899999999999981
    vertex 12.94852132656104 -13.866009478471572 -3.7
  endloop
endfacet
facet normal -0.7933533402912349 0.6087614290087209 3.690752942799836e-18
  outer loop
    vertex 12.861954618136544 -14.074999999999998 0.4899999999999981
    vertex 12.520279579551078 -14.520279579551074 -3.7
    vertex 12.520279579551078 -14.520279579551074 0.4899999999999981
  endloop
endfacet
facet normal -0.7933533402912349 0.6087614290087209 3.690752942799836e-18
  outer loop
    vertex 12.520279579551078 -14.520279579551074 -3.7
    vertex 12.861954618136544 -14.074999999999998 0.4899999999999981
    vertex 12.861954618136544 -14.074999999999998 -3.7
  endloop
endfacet
facet normal -0.6087614290087204 0.7933533402912355 1.4561170786258505e-18
  outer loop
    vertex 12.075000000000001 -14.86195461813654 0.4899999999999981
    vertex 12.520279579551078 -14.520279579551074 -3.7
    vertex 12.075000000000001 -14.86195461813654 -3.7
  endloop
endfacet
facet normal -0.6087614290087204 0.7933533402912355 1.4561170786258505e-18
  outer loop
    vertex 12.520279579551078 -14.520279579551074 -3.7
    vertex 12.075000000000001 -14.86195461813654 0.4899999999999981
    vertex 12.520279579551078 -14.520279579551074 0.4899999999999981
  endloop
endfacet
facet normal -0.382683432365092 0.923879532511286 1.6956842526043331e-18
  outer loop
    vertex 11.556460946970422 -15.076740526521494 0.4899999999999981
    vertex 12.075000000000001 -14.86195461813654 -3.7
    vertex 11.556460946970422 -15.076740526521494 -3.7
  endloop
endfacet
facet normal -0.382683432365092 0.923879532511286 1.6956842526043331e-18
  outer loop
    vertex 12.075000000000001 -14.86195461813654 -3.7
    vertex 11.556460946970422 -15.076740526521494 0.4899999999999981
    vertex 12.075000000000001 -14.86195461813654 0.4899999999999981
  endloop
endfacet
facet normal -0.13052619222005085 0.9914448613738105 -4.549233367541625e-19
  outer loop
    vertex 11.0 -15.149999999999997 0.4899999999999981
    vertex 11.556460946970422 -15.076740526521494 -3.7
    vertex 11.0 -15.149999999999997 -3.7
  endloop
endfacet
facet normal -0.13052619222005085 0.9914448613738105 -4.549233367541625e-19
  outer loop
    vertex 11.556460946970422 -15.076740526521494 -3.7
    vertex 11.0 -15.149999999999997 0.4899999999999981
    vertex 11.556460946970422 -15.076740526521494 0.4899999999999981
  endloop
endfacet
facet normal 0.13052619222005118 0.9914448613738105 3.10312773368298e-31
  outer loop
    vertex 10.44353905302958 -15.076740526521494 0.4899999999999981
    vertex 11.0 -15.149999999999997 -3.7
    vertex 10.44353905302958 -15.076740526521494 -3.7
  endloop
endfacet
facet normal 0.13052619222005118 0.9914448613738105 3.10312773368298e-31
  outer loop
    vertex 11.0 -15.149999999999997 -3.7
    vertex 10.44353905302958 -15.076740526521494 0.4899999999999981
    vertex 11.0 -15.149999999999997 0.4899999999999981
  endloop
endfacet
facet normal 0.382683432365092 0.923879532511286 -1.4047508298621004e-18
  outer loop
    vertex 9.925 -14.86195461813654 0.4899999999999981
    vertex 10.44353905302958 -15.076740526521494 -3.7
    vertex 9.925 -14.86195461813654 -3.7
  endloop
endfacet
facet normal 0.382683432365092 0.923879532511286 -1.4047508298621004e-18
  outer loop
    vertex 10.44353905302958 -15.076740526521494 -3.7
    vertex 9.925 -14.86195461813654 0.4899999999999981
    vertex 10.44353905302958 -15.076740526521494 0.4899999999999981
  endloop
endfacet
facet normal 0.6087614290087204 0.7933533402912355 2.9122341572518727e-18
  outer loop
    vertex 9.479720420448924 -14.520279579551074 0.4899999999999981
    vertex 9.925 -14.86195461813654 -3.7
    vertex 9.479720420448924 -14.520279579551074 -3.7
  endloop
endfacet
facet normal 0.6087614290087204 0.7933533402912355 2.9122341572518727e-18
  outer loop
    vertex 9.925 -14.86195461813654 -3.7
    vertex 9.479720420448924 -14.520279579551074 0.4899999999999981
    vertex 9.925 -14.86195461813654 0.4899999999999981
  endloop
endfacet
facet normal 0.7933533402912332 0.6087614290087232 -1.4561170786260802e-18
  outer loop
    vertex 9.138045381863456 -14.075 -3.7
    vertex 9.479720420448924 -14.520279579551074 0.4899999999999981
    vertex 9.479720420448924 -14.520279579551074 -3.7
  endloop
endfacet
facet normal 0.7933533402912332 0.6087614290087232 -1.4561170786260802e-18
  outer loop
    vertex 9.479720420448924 -14.520279579551074 0.4899999999999981
    vertex 9.138045381863456 -14.075 -3.7
    vertex 9.138045381863456 -14.075 0.4899999999999981
  endloop
endfacet
facet normal 0.9238795325112871 0.3826834323650889 2.7845435178013654e-19
  outer loop
    vertex 9.051478673438956 -13.866009478471572 -3.7
    vertex 9.138045381863456 -14.075 0.4899999999999981
    vertex 9.138045381863456 -14.075 -3.7
  endloop
endfacet
facet normal 0.9238795325112871 0.3826834323650889 2.7845435178013654e-19
  outer loop
    vertex 9.138045381863456 -14.075 0.4899999999999981
    vertex 9.051478673438956 -13.866009478471572 -3.7
    vertex 9.051478673438956 -13.866009478471572 0.4899999999999981
  endloop
endfacet
facet normal 0.9238795325112871 0.3826834323650889 7.229136766983832e-32
  outer loop
    vertex 8.923259473478504 -13.556460946970418 -3.7
    vertex 9.051478673438956 -13.866009478471572 0.4899999999999981
    vertex 9.051478673438956 -13.866009478471572 -3.7
  endloop
endfacet
facet normal 0.9238795325112871 0.3826834323650889 7.229136766983832e-32
  outer loop
    vertex 9.051478673438956 -13.866009478471572 0.4899999999999981
    vertex 8.923259473478504 -13.556460946970418 -3.7
    vertex 8.923259473478504 -13.556460946970418 0.4899999999999981
  endloop
endfacet
facet normal 0.9914448613738105 0.13052619222005118 4.085345164720782e-32
  outer loop
    vertex 8.850000000000001 -12.999999999999998 -3.7
    vertex 8.923259473478504 -13.556460946970418 0.4899999999999981
    vertex 8.923259473478504 -13.556460946970418 -3.7
  endloop
endfacet
facet normal 0.9914448613738105 0.13052619222005118 4.085345164720782e-32
  outer loop
    vertex 8.923259473478504 -13.556460946970418 0.4899999999999981
    vertex 8.850000000000001 -12.999999999999998 -3.7
    vertex 8.850000000000001 -12.999999999999998 0.4899999999999981
  endloop
endfacet
facet normal 0.9914448613738105 -0.1305261922200515 -1.0213362911801983e-32
  outer loop
    vertex 8.923259473478504 -12.44353905302958 -3.7
    vertex 8.850000000000001 -12.999999999999998 0.4899999999999981
    vertex 8.850000000000001 -12.999999999999998 -3.7
  endloop
endfacet
facet normal 0.9914448613738105 -0.1305261922200515 -1.0213362911801983e-32
  outer loop
    vertex 8.850000000000001 -12.999999999999998 0.4899999999999981
    vertex 8.923259473478504 -12.44353905302958 -3.7
    vertex 8.923259473478504 -12.44353905302958 0.4899999999999981
  endloop
endfacet
facet normal 0.9238795325112862 -0.382683432365091 -8.478421263018752e-19
  outer loop
    vertex 9.051478673438957 -12.133990521528425 -3.7
    vertex 8.923259473478504 -12.44353905302958 0.4899999999999981
    vertex 8.923259473478504 -12.44353905302958 -3.7
  endloop
endfacet
facet normal 0.9238795325112862 -0.382683432365091 -8.478421263018752e-19
  outer loop
    vertex 8.923259473478504 -12.44353905302958 0.4899999999999981
    vertex 9.051478673438957 -12.133990521528425 -3.7
    vertex 9.051478673438957 -12.133990521528425 0.4899999999999981
  endloop
endfacet
facet normal 0.9238795325112884 -0.3826834323650858 -1.6212356246387822e-31
  outer loop
    vertex 9.138045381863456 -11.924999999999999 -3.7
    vertex 9.051478673438957 -12.133990521528425 0.4899999999999981
    vertex 9.051478673438957 -12.133990521528425 -3.7
  endloop
endfacet
facet normal 0.9238795325112884 -0.3826834323650858 -1.6212356246387822e-31
  outer loop
    vertex 9.051478673438957 -12.133990521528425 0.4899999999999981
    vertex 9.138045381863456 -11.924999999999999 -3.7
    vertex 9.138045381863456 -11.924999999999999 0.4899999999999981
  endloop
endfacet
facet normal 0.7933533402912342 -0.608761429008722 -7.785187855478468e-19
  outer loop
    vertex 9.479720420448924 -11.479720420448922 -3.7
    vertex 9.138045381863456 -11.924999999999999 0.4899999999999981
    vertex 9.138045381863456 -11.924999999999999 -3.7
  endloop
endfacet
facet normal 0.7933533402912342 -0.608761429008722 -7.785187855478468e-19
  outer loop
    vertex 9.138045381863456 -11.924999999999999 0.4899999999999981
    vertex 9.479720420448924 -11.479720420448922 -3.7
    vertex 9.479720420448924 -11.479720420448922 0.4899999999999981
  endloop
endfacet
facet normal 0.6087614290087217 -0.7933533402912344 -1.4561170786260201e-18
  outer loop
    vertex 9.924999999999999 -11.138045381863458 0.4899999999999981
    vertex 9.479720420448924 -11.479720420448922 -3.7
    vertex 9.924999999999999 -11.138045381863458 -3.7
  endloop
endfacet
facet normal 0.6087614290087217 -0.7933533402912344 -1.4561170786260201e-18
  outer loop
    vertex 9.479720420448924 -11.479720420448922 -3.7
    vertex 9.924999999999999 -11.138045381863458 0.4899999999999981
    vertex 9.479720420448924 -11.479720420448922 0.4899999999999981
  endloop
endfacet
facet normal 0.38268343236509106 -0.9238795325112862 1.695684252604184e-18
  outer loop
    vertex 10.44353905302958 -10.923259473478502 0.4899999999999981
    vertex 9.924999999999999 -11.138045381863458 -3.7
    vertex 10.44353905302958 -10.923259473478502 -3.7
  endloop
endfacet
facet normal 0.38268343236509106 -0.9238795325112862 1.695684252604184e-18
  outer loop
    vertex 9.924999999999999 -11.138045381863458 -3.7
    vertex 10.44353905302958 -10.923259473478502 0.4899999999999981
    vertex 9.924999999999999 -11.138045381863458 0.4899999999999981
  endloop
endfacet
facet normal 0.13052619222005118 -0.9914448613738105 0.0
  outer loop
    vertex 11.0 -10.85 0.4899999999999981
    vertex 10.44353905302958 -10.923259473478502 -3.7
    vertex 11.0 -10.85 -3.7
  endloop
endfacet
facet normal 0.13052619222005118 -0.9914448613738105 0.0
  outer loop
    vertex 10.44353905302958 -10.923259473478502 -3.7
    vertex 11.0 -10.85 0.4899999999999981
    vertex 10.44353905302958 -10.923259473478502 0.4899999999999981
  endloop
endfacet
facet normal -0.1305261922200515 -0.9914448613738105 -1.0213362911801983e-32
  outer loop
    vertex 11.556460946970418 -10.923259473478502 0.4899999999999981
    vertex 11.0 -10.85 -3.7
    vertex 11.556460946970418 -10.923259473478502 -3.7
  endloop
endfacet
facet normal -0.1305261922200515 -0.9914448613738105 -1.0213362911801983e-32
  outer loop
    vertex 11.0 -10.85 -3.7
    vertex 11.556460946970418 -10.923259473478502 0.4899999999999981
    vertex 11.0 -10.85 0.4899999999999981
  endloop
endfacet
facet normal -0.38268343236508895 -0.9238795325112871 -1.6956842526041132e-18
  outer loop
    vertex 12.075 -11.138045381863456 0.4899999999999981
    vertex 11.556460946970418 -10.923259473478502 -3.7
    vertex 12.075 -11.138045381863456 -3.7
  endloop
endfacet
facet normal -0.38268343236508895 -0.9238795325112871 -1.6956842526041132e-18
  outer loop
    vertex 11.556460946970418 -10.923259473478502 -3.7
    vertex 12.075 -11.138045381863456 0.4899999999999981
    vertex 11.556460946970418 -10.923259473478502 0.4899999999999981
  endloop
endfacet
facet normal -0.6087614290087205 -0.7933533402912353 3.690752942799821e-18
  outer loop
    vertex 12.520279579551076 -11.479720420448922 0.4899999999999981
    vertex 12.075 -11.138045381863456 -3.7
    vertex 12.520279579551076 -11.479720420448922 -3.7
  endloop
endfacet
facet normal -0.6087614290087205 -0.7933533402912353 3.690752942799821e-18
  outer loop
    vertex 12.075 -11.138045381863456 -3.7
    vertex 12.520279579551076 -11.479720420448922 0.4899999999999981
    vertex 12.075 -11.138045381863456 0.4899999999999981
  endloop
endfacet
facet normal -0.7933533402912355 -0.6087614290087204 1.4561170786258505e-18
  outer loop
    vertex 12.520279579551076 -11.479720420448922 0.4899999999999981
    vertex 12.86195461813654 -11.924999999999997 -3.7
    vertex 12.86195461813654 -11.924999999999997 0.4899999999999981
  endloop
endfacet
facet normal -0.7933533402912355 -0.6087614290087204 1.4561170786258505e-18
  outer loop
    vertex 12.86195461813654 -11.924999999999997 -3.7
    vertex 12.520279579551076 -11.479720420448922 0.4899999999999981
    vertex 12.520279579551076 -11.479720420448922 -3.7
  endloop
endfacet
facet normal -0.9238795325112827 -0.38268343236509955 -4.2392106315122773e-19
  outer loop
    vertex 12.86195461813654 -11.924999999999997 0.4899999999999981
    vertex 12.948521326561044 -12.133990521528425 -3.7
    vertex 12.948521326561044 -12.133990521528425 0.4899999999999981
  endloop
endfacet
facet normal -0.9238795325112827 -0.38268343236509955 -4.2392106315122773e-19
  outer loop
    vertex 12.948521326561044 -12.133990521528425 -3.7
    vertex 12.86195461813654 -11.924999999999997 0.4899999999999981
    vertex 12.86195461813654 -11.924999999999997 -3.7
  endloop
endfacet
facet normal -0.9238795325112881 -0.38268343236508695 -8.983219479404006e-32
  outer loop
    vertex 12.948521326561044 -12.133990521528425 0.4899999999999981
    vertex 13.076740526521496 -12.443539053029577 -3.7
    vertex 13.076740526521496 -12.443539053029577 0.4899999999999981
  endloop
endfacet
facet normal -0.9238795325112881 -0.38268343236508695 -8.983219479404006e-32
  outer loop
    vertex 13.076740526521496 -12.443539053029577 -3.7
    vertex 12.948521326561044 -12.133990521528425 0.4899999999999981
    vertex 12.948521326561044 -12.133990521528425 -3.7
  endloop
endfacet
facet normal -0.9914448613738105 -0.13052619222005085 -3.064008873540579e-32
  outer loop
    vertex 13.076740526521496 -12.443539053029577 0.4899999999999981
    vertex 13.149999999999999 -12.999999999999998 -3.7
    vertex 13.149999999999999 -12.999999999999998 0.4899999999999981
  endloop
endfacet
facet normal -0.9914448613738105 -0.13052619222005085 -3.064008873540579e-32
  outer loop
    vertex 13.149999999999999 -12.999999999999998 -3.7
    vertex 13.076740526521496 -12.443539053029577 0.4899999999999981
    vertex 13.076740526521496 -12.443539053029577 -3.7
  endloop
endfacet
facet normal -0.9914448613738105 -0.13052619222005102 9.305773512670844e-19
  outer loop
    vertex 13.076740526521496 6.556460946970421 0.5000000000000001
    vertex 13.149999999999999 6.0 -3.700000000000001
    vertex 13.149999999999999 6.0 0.5000000000000001
  endloop
endfacet
facet normal -0.9914448613738105 -0.13052619222005102 9.305773512670844e-19
  outer loop
    vertex 13.149999999999999 6.0 -3.700000000000001
    vertex 13.076740526521496 6.556460946970421 0.5000000000000001
    vertex 13.076740526521496 6.556460946970421 -3.700000000000001
  endloop
endfacet
facet normal -0.9914448613738105 0.13052619222005135 2.4120800079417723e-20
  outer loop
    vertex 13.149999999999999 6.0 0.5000000000000001
    vertex 13.076740526521496 5.44353905302958 -3.700000000000001
    vertex 13.076740526521496 5.44353905302958 0.5000000000000001
  endloop
endfacet
facet normal -0.9914448613738105 0.13052619222005135 2.4120800079417723e-20
  outer loop
    vertex 13.076740526521496 5.44353905302958 -3.700000000000001
    vertex 13.149999999999999 6.0 0.5000000000000001
    vertex 13.149999999999999 6.0 -3.700000000000001
  endloop
endfacet
facet normal -0.9238795325112897 0.38268343236508234 0.0
  outer loop
    vertex 13.076740526521496 5.44353905302958 0.5000000000000001
    vertex 12.948521326561044 5.133990521528424 -3.700000000000001
    vertex 12.948521326561044 5.133990521528424 0.5000000000000001
  endloop
endfacet
facet normal -0.9238795325112897 0.38268343236508234 0.0
  outer loop
    vertex 12.948521326561044 5.133990521528424 -3.700000000000001
    vertex 13.076740526521496 5.44353905302958 0.5000000000000001
    vertex 13.076740526521496 5.44353905302958 -3.700000000000001
  endloop
endfacet
facet normal -0.9238795325112849 0.38268343236509433 4.972082039846585e-33
  outer loop
    vertex 12.948521326561044 5.133990521528424 0.5000000000000001
    vertex 12.861954618136544 4.925 -3.700000000000001
    vertex 12.861954618136544 4.925 0.5000000000000001
  endloop
endfacet
facet normal -0.9238795325112849 0.38268343236509433 4.972082039846585e-33
  outer loop
    vertex 12.861954618136544 4.925 -3.700000000000001
    vertex 12.948521326561044 5.133990521528424 0.5000000000000001
    vertex 12.948521326561044 5.133990521528424 -3.700000000000001
  endloop
endfacet
facet normal -0.7933533402912355 0.6087614290087202 -1.2706126291519624e-32
  outer loop
    vertex 12.861954618136544 4.925 0.5000000000000001
    vertex 12.520279579551078 4.479720420448921 -3.700000000000001
    vertex 12.520279579551078 4.479720420448921 0.5000000000000001
  endloop
endfacet
facet normal -0.7933533402912355 0.6087614290087202 -1.2706126291519624e-32
  outer loop
    vertex 12.520279579551078 4.479720420448921 -3.700000000000001
    vertex 12.861954618136544 4.925 0.5000000000000001
    vertex 12.861954618136544 4.925 -3.700000000000001
  endloop
endfacet
facet normal -0.6087614290087204 0.7933533402912353 3.6434447235692936e-32
  outer loop
    vertex 12.075000000000001 4.138045381863456 0.5000000000000001
    vertex 12.520279579551078 4.479720420448921 -3.700000000000001
    vertex 12.075000000000001 4.138045381863456 -3.700000000000001
  endloop
endfacet
facet normal -0.6087614290087204 0.7933533402912353 3.6434447235692936e-32
  outer loop
    vertex 12.520279579551078 4.479720420448921 -3.700000000000001
    vertex 12.075000000000001 4.138045381863456 0.5000000000000001
    vertex 12.520279579551078 4.479720420448921 0.5000000000000001
  endloop
endfacet
facet normal -0.38268343236509084 0.9238795325112863 -1.7828824345250083e-32
  outer loop
    vertex 11.556460946970422 3.9232594734785025 0.5000000000000001
    vertex 12.075000000000001 4.138045381863456 -3.700000000000001
    vertex 11.556460946970422 3.9232594734785025 -3.700000000000001
  endloop
endfacet
facet normal -0.38268343236509084 0.9238795325112863 -1.7828824345250083e-32
  outer loop
    vertex 12.075000000000001 4.138045381863456 -3.700000000000001
    vertex 11.556460946970422 3.9232594734785025 0.5000000000000001
    vertex 12.075000000000001 4.138045381863456 0.5000000000000001
  endloop
endfacet
facet normal -0.13052619222005207 0.9914448613738105 9.489753173156678e-33
  outer loop
    vertex 11.0 3.8499999999999988 0.5000000000000001
    vertex 11.556460946970422 3.9232594734785025 -3.700000000000001
    vertex 11.0 3.8499999999999988 -3.700000000000001
  endloop
endfacet
facet normal -0.13052619222005207 0.9914448613738105 9.489753173156678e-33
  outer loop
    vertex 11.556460946970422 3.9232594734785025 -3.700000000000001
    vertex 11.0 3.8499999999999988 0.5000000000000001
    vertex 11.556460946970422 3.9232594734785025 0.5000000000000001
  endloop
endfacet
facet normal 0.13052619222005118 0.9914448613738105 -4.532282755938323e-19
  outer loop
    vertex 10.44353905302958 3.9232594734785016 0.5000000000000001
    vertex 11.0 3.8499999999999988 -3.700000000000001
    vertex 10.44353905302958 3.9232594734785016 -3.700000000000001
  endloop
endfacet
facet normal 0.13052619222005118 0.9914448613738105 -4.532282755938323e-19
  outer loop
    vertex 11.0 3.8499999999999988 -3.700000000000001
    vertex 10.44353905302958 3.9232594734785016 0.5000000000000001
    vertex 11.0 3.8499999999999988 0.5000000000000001
  endloop
endfacet
facet normal 0.3826834323650898 0.9238795325112867 9.944164079693053e-33
  outer loop
    vertex 9.925 4.138045381863455 0.5000000000000001
    vertex 10.44353905302958 3.9232594734785016 -3.700000000000001
    vertex 9.925 4.138045381863455 -3.700000000000001
  endloop
endfacet
facet normal 0.3826834323650898 0.9238795325112867 9.944164079693053e-33
  outer loop
    vertex 10.44353905302958 3.9232594734785016 -3.700000000000001
    vertex 9.925 4.138045381863455 0.5000000000000001
    vertex 10.44353905302958 3.9232594734785016 0.5000000000000001
  endloop
endfacet
facet normal 0.6087614290087209 0.7933533402912352 -0.0
  outer loop
    vertex 9.479720420448922 4.479720420448921 0.5000000000000001
    vertex 9.925 4.138045381863455 -3.700000000000001
    vertex 9.479720420448922 4.479720420448921 -3.700000000000001
  endloop
endfacet
facet normal 0.6087614290087209 0.7933533402912352 -0.0
  outer loop
    vertex 9.925 4.138045381863455 -3.700000000000001
    vertex 9.479720420448922 4.479720420448921 0.5000000000000001
    vertex 9.925 4.138045381863455 0.5000000000000001
  endloop
endfacet
facet normal 0.7933533402912347 0.6087614290087214 -2.2263095283813767e-18
  outer loop
    vertex 9.138045381863456 4.924999999999999 -3.700000000000001
    vertex 9.479720420448922 4.479720420448921 0.5000000000000001
    vertex 9.479720420448922 4.479720420448921 -3.700000000000001
  endloop
endfacet
facet normal 0.7933533402912347 0.6087614290087214 -2.2263095283813767e-18
  outer loop
    vertex 9.479720420448922 4.479720420448921 0.5000000000000001
    vertex 9.138045381863456 4.924999999999999 -3.700000000000001
    vertex 9.138045381863456 4.924999999999999 0.5000000000000001
  endloop
endfacet
facet normal 0.9238795325112881 0.38268343236508695 3.8923581907197834e-32
  outer loop
    vertex 9.051478673438956 5.133990521528424 -3.700000000000001
    vertex 9.138045381863456 4.924999999999999 0.5000000000000001
    vertex 9.138045381863456 4.924999999999999 -3.700000000000001
  endloop
endfacet
facet normal 0.9238795325112881 0.38268343236508695 3.8923581907197834e-32
  outer loop
    vertex 9.138045381863456 4.924999999999999 0.5000000000000001
    vertex 9.051478673438956 5.133990521528424 -3.700000000000001
    vertex 9.051478673438956 5.133990521528424 0.5000000000000001
  endloop
endfacet
facet normal 0.9238795325112862 0.38268343236509117 -0.0
  outer loop
    vertex 8.923259473478502 5.443539053029579 -3.700000000000001
    vertex 9.051478673438956 5.133990521528424 0.5000000000000001
    vertex 9.051478673438956 5.133990521528424 -3.700000000000001
  endloop
endfacet
facet normal 0.9238795325112862 0.38268343236509117 -0.0
  outer loop
    vertex 9.051478673438956 5.133990521528424 0.5000000000000001
    vertex 8.923259473478502 5.443539053029579 -3.700000000000001
    vertex 8.923259473478502 5.443539053029579 0.5000000000000001
  endloop
endfacet
facet normal 0.9914448613738105 0.13052619222005116 5.152608941828388e-32
  outer loop
    vertex 8.85 5.999999999999999 -3.700000000000001
    vertex 8.923259473478502 5.443539053029579 0.5000000000000001
    vertex 8.923259473478502 5.443539053029579 -3.700000000000001
  endloop
endfacet
facet normal 0.9914448613738105 0.13052619222005116 5.152608941828388e-32
  outer loop
    vertex 8.923259473478502 5.443539053029579 0.5000000000000001
    vertex 8.85 5.999999999999999 -3.700000000000001
    vertex 8.85 5.999999999999999 0.5000000000000001
  endloop
endfacet
facet normal 0.9914448613738105 -0.13052619222005116 5.152608941828388e-32
  outer loop
    vertex 8.923259473478502 6.556460946970419 -3.700000000000001
    vertex 8.85 5.999999999999999 0.5000000000000001
    vertex 8.85 5.999999999999999 -3.700000000000001
  endloop
endfacet
facet normal 0.9914448613738105 -0.13052619222005116 5.152608941828388e-32
  outer loop
    vertex 8.85 5.999999999999999 0.5000000000000001
    vertex 8.923259473478502 6.556460946970419 -3.700000000000001
    vertex 8.923259473478502 6.556460946970419 0.5000000000000001
  endloop
endfacet
facet normal 0.9238795325112862 -0.38268343236509106 9.944164079693084e-33
  outer loop
    vertex 9.051478673438956 6.8660094784715735 -3.700000000000001
    vertex 8.923259473478502 6.556460946970419 0.5000000000000001
    vertex 8.923259473478502 6.556460946970419 -3.700000000000001
  endloop
endfacet
facet normal 0.9238795325112862 -0.38268343236509106 9.944164079693084e-33
  outer loop
    vertex 8.923259473478502 6.556460946970419 0.5000000000000001
    vertex 9.051478673438956 6.8660094784715735 -3.700000000000001
    vertex 9.051478673438956 6.8660094784715735 0.5000000000000001
  endloop
endfacet
facet normal 0.9238795325112875 -0.38268343236508795 -2.400733578765835e-32
  outer loop
    vertex 9.138045381863456 7.074999999999998 -3.700000000000001
    vertex 9.051478673438956 6.8660094784715735 0.5000000000000001
    vertex 9.051478673438956 6.8660094784715735 -3.700000000000001
  endloop
endfacet
facet normal 0.9238795325112875 -0.38268343236508795 -2.400733578765835e-32
  outer loop
    vertex 9.051478673438956 6.8660094784715735 0.5000000000000001
    vertex 9.138045381863456 7.074999999999998 -3.700000000000001
    vertex 9.138045381863456 7.074999999999998 0.5000000000000001
  endloop
endfacet
facet normal 0.7933533402912349 -0.608761429008721 -5.225332786514183e-32
  outer loop
    vertex 9.479720420448922 7.520279579551076 -3.700000000000001
    vertex 9.138045381863456 7.074999999999998 0.5000000000000001
    vertex 9.138045381863456 7.074999999999998 -3.700000000000001
  endloop
endfacet
facet normal 0.7933533402912349 -0.608761429008721 -5.225332786514183e-32
  outer loop
    vertex 9.138045381863456 7.074999999999998 0.5000000000000001
    vertex 9.479720420448922 7.520279579551076 -3.700000000000001
    vertex 9.479720420448922 7.520279579551076 0.5000000000000001
  endloop
endfacet
facet normal 0.6087614290087204 -0.7933533402912353 -5.705001384193698e-32
  outer loop
    vertex 9.924999999999999 7.861954618136542 0.5000000000000001
    vertex 9.479720420448922 7.520279579551076 -3.700000000000001
    vertex 9.924999999999999 7.861954618136542 -3.700000000000001
  endloop
endfacet
facet normal 0.6087614290087204 -0.7933533402912353 -5.705001384193698e-32
  outer loop
    vertex 9.479720420448922 7.520279579551076 -3.700000000000001
    vertex 9.924999999999999 7.861954618136542 0.5000000000000001
    vertex 9.479720420448922 7.520279579551076 0.5000000000000001
  endloop
endfacet
facet normal 0.38268343236509106 -0.9238795325112862 1.9888328159386168e-32
  outer loop
    vertex 10.44353905302958 8.076740526521496 0.5000000000000001
    vertex 9.924999999999999 7.861954618136542 -3.700000000000001
    vertex 10.44353905302958 8.076740526521496 -3.700000000000001
  endloop
endfacet
facet normal 0.38268343236509106 -0.9238795325112862 1.9888328159386168e-32
  outer loop
    vertex 9.924999999999999 7.861954618136542 -3.700000000000001
    vertex 10.44353905302958 8.076740526521496 0.5000000000000001
    vertex 9.924999999999999 7.861954618136542 0.5000000000000001
  endloop
endfacet
facet normal 0.13052619222005116 -0.9914448613738105 -5.152608941828388e-32
  outer loop
    vertex 11.0 8.149999999999999 0.5000000000000001
    vertex 10.44353905302958 8.076740526521496 -3.700000000000001
    vertex 11.0 8.149999999999999 -3.700000000000001
  endloop
endfacet
facet normal 0.13052619222005116 -0.9914448613738105 -5.152608941828388e-32
  outer loop
    vertex 10.44353905302958 8.076740526521496 -3.700000000000001
    vertex 11.0 8.149999999999999 0.5000000000000001
    vertex 10.44353905302958 8.076740526521496 0.5000000000000001
  endloop
endfacet
facet normal -0.13052619222005146 -0.9914448613738105 -4.81343202368696e-32
  outer loop
    vertex 11.556460946970418 8.076740526521496 0.5000000000000001
    vertex 11.0 8.149999999999999 -3.700000000000001
    vertex 11.556460946970418 8.076740526521496 -3.700000000000001
  endloop
endfacet
facet normal -0.13052619222005146 -0.9914448613738105 -4.81343202368696e-32
  outer loop
    vertex 11.0 8.149999999999999 -3.700000000000001
    vertex 11.556460946970418 8.076740526521496 0.5000000000000001
    vertex 11.0 8.149999999999999 0.5000000000000001
  endloop
endfacet
facet normal -0.38268343236508895 -0.9238795325112871 -4.3895663947044403e-32
  outer loop
    vertex 12.075 7.861954618136543 0.5000000000000001
    vertex 11.556460946970418 8.076740526521496 -3.700000000000001
    vertex 12.075 7.861954618136543 -3.700000000000001
  endloop
endfacet
facet normal -0.38268343236508895 -0.9238795325112871 -4.3895663947044403e-32
  outer loop
    vertex 11.556460946970418 8.076740526521496 -3.700000000000001
    vertex 12.075 7.861954618136543 0.5000000000000001
    vertex 11.556460946970418 8.076740526521496 0.5000000000000001
  endloop
endfacet
facet normal -0.6087614290087204 -0.7933533402912353 -4.7456641888346646e-32
  outer loop
    vertex 12.520279579551076 7.520279579551078 0.5000000000000001
    vertex 12.075 7.861954618136543 -3.700000000000001
    vertex 12.520279579551076 7.520279579551078 -3.700000000000001
  endloop
endfacet
facet normal -0.6087614290087204 -0.7933533402912353 -4.7456641888346646e-32
  outer loop
    vertex 12.075 7.861954618136543 -3.700000000000001
    vertex 12.520279579551076 7.520279579551078 0.5000000000000001
    vertex 12.075 7.861954618136543 0.5000000000000001
  endloop
endfacet
facet normal -0.7933533402912338 -0.6087614290087224 0.0
  outer loop
    vertex 12.520279579551076 7.520279579551078 0.5000000000000001
    vertex 12.861954618136544 7.074999999999999 -3.700000000000001
    vertex 12.861954618136544 7.074999999999999 0.5000000000000001
  endloop
endfacet
facet normal -0.7933533402912338 -0.6087614290087224 0.0
  outer loop
    vertex 12.861954618136544 7.074999999999999 -3.700000000000001
    vertex 12.520279579551076 7.520279579551078 0.5000000000000001
    vertex 12.520279579551076 7.520279579551078 -3.700000000000001
  endloop
endfacet
facet normal -0.9238795325112862 -0.38268343236509106 -9.944164079693084e-33
  outer loop
    vertex 12.861954618136544 7.074999999999999 0.5000000000000001
    vertex 12.948521326561044 6.8660094784715735 -3.700000000000001
    vertex 12.948521326561044 6.8660094784715735 0.5000000000000001
  endloop
endfacet
facet normal -0.9238795325112862 -0.38268343236509106 -9.944164079693084e-33
  outer loop
    vertex 12.948521326561044 6.8660094784715735 -3.700000000000001
    vertex 12.861954618136544 7.074999999999999 0.5000000000000001
    vertex 12.861954618136544 7.074999999999999 -3.700000000000001
  endloop
endfacet
facet normal -0.9238795325112886 -0.3826834323650853 0.0
  outer loop
    vertex 12.948521326561044 6.8660094784715735 0.5000000000000001
    vertex 13.076740526521496 6.556460946970421 -3.700000000000001
    vertex 13.076740526521496 6.556460946970421 0.5000000000000001
  endloop
endfacet
facet normal -0.9238795325112886 -0.3826834323650853 0.0
  outer loop
    vertex 13.076740526521496 6.556460946970421 -3.700000000000001
    vertex 12.948521326561044 6.8660094784715735 0.5000000000000001
    vertex 12.948521326561044 6.8660094784715735 -3.700000000000001
  endloop
endfacet
facet normal -1.2160394282316277e-09 0.999999966838923 0.0002575308781351917
  outer loop
    vertex 2.000108537360363 11.199984139896733 3.49548806488957
    vertex 20.0 11.200000000000003 -4.0
    vertex 1.9999999999999991 11.200000000000003 -4.0
  endloop
endfacet
facet normal -1.2160394282316277e-09 0.999999966838923 0.0002575308781351917
  outer loop
    vertex 20.0 11.200000000000003 -4.0
    vertex 2.000108537360363 11.199984139896733 3.49548806488957
    vertex 20.000108537360358 11.199984139896733 3.49548806488957
  endloop
endfacet
facet normal -1.0 -2.3809571079004593e-17 2.177690486860558e-17
  outer loop
    vertex 2.000108537360363 11.199984139896733 3.49548806488957
    vertex 1.9999999999999998 -18.209999999999987 1.4999999999999993
    vertex 2.0001085373603638 -18.21001586010325 3.49548806488957
  endloop
endfacet
facet normal -1.0 -2.3809571079004593e-17 2.177690486860558e-17
  outer loop
    vertex 1.9999999999999998 -18.209999999999987 1.4999999999999993
    vertex 2.000108537360363 11.199984139896733 3.49548806488957
    vertex 1.9999999999999998 -18.209999999999987 -2.0000000000000004
  endloop
endfacet
facet normal -1.0 -2.3809571079004593e-17 2.177690486860558e-17
  outer loop
    vertex 1.9999999999999998 -18.209999999999987 -2.0000000000000004
    vertex 2.000108537360363 11.199984139896733 3.49548806488957
    vertex 1.9999999999999998 -18.209999999999987 -4.0
  endloop
endfacet
facet normal -1.0 -2.3809571079004593e-17 2.177690486860558e-17
  outer loop
    vertex 1.9999999999999998 -18.209999999999987 -4.0
    vertex 2.000108537360363 11.199984139896733 3.49548806488957
    vertex 1.9999999999999991 11.200000000000003 -4.0
  endloop
endfacet
facet normal 0.0 0.0 1.0
  outer loop
    vertex 9.000000000000004 -16.464101615137757 0.4899999999999981
    vertex 8.850000000000001 -12.999999999999998 0.4899999999999981
    vertex 7.000000000000001 -12.999999999999998 0.4899999999999981
  endloop
endfacet
facet normal 0.0 0.0 1.0
  outer loop
    vertex 8.850000000000001 -12.999999999999998 0.4899999999999981
    vertex 9.000000000000004 -16.464101615137757 0.4899999999999981
    vertex 8.923259473478504 -13.556460946970418 0.4899999999999981
  endloop
endfacet
facet normal 0.0 0.0 1.0
  outer loop
    vertex 8.923259473478504 -13.556460946970418 0.4899999999999981
    vertex 9.000000000000004 -16.464101615137757 0.4899999999999981
    vertex 9.051478673438956 -13.866009478471572 0.4899999999999981
  endloop
endfacet
facet normal 0.0 0.0 1.0
  outer loop
    vertex 9.051478673438956 -13.866009478471572 0.4899999999999981
    vertex 9.000000000000004 -16.464101615137757 0.4899999999999981
    vertex 9.138045381863456 -14.075 0.4899999999999981
  endloop
endfacet
facet normal 0.0 0.0 1.0
  outer loop
    vertex 9.138045381863456 -14.075 0.4899999999999981
    vertex 9.000000000000004 -16.464101615137757 0.4899999999999981
    vertex 9.479720420448924 -14.520279579551074 0.4899999999999981
  endloop
endfacet
facet normal 0.0 0.0 1.0
  outer loop
    vertex 9.479720420448924 -14.520279579551074 0.4899999999999981
    vertex 9.000000000000004 -16.464101615137757 0.4899999999999981
    vertex 9.925 -14.86195461813654 0.4899999999999981
  endloop
endfacet
facet normal 0.0 0.0 1.0
  outer loop
    vertex 9.925 -14.86195461813654 0.4899999999999981
    vertex 9.000000000000004 -16.464101615137757 0.4899999999999981
    vertex 13.000000000000002 -16.464101615137753 0.4899999999999981
  endloop
endfacet
facet normal 0.0 0.0 1.0
  outer loop
    vertex 9.925 -14.86195461813654 0.4899999999999981
    vertex 13.000000000000002 -16.464101615137753 0.4899999999999981
    vertex 10.44353905302958 -15.076740526521494 0.4899999999999981
  endloop
endfacet
facet normal 0.0 0.0 1.0
  outer loop
    vertex 10.44353905302958 -15.076740526521494 0.4899999999999981
    vertex 13.000000000000002 -16.464101615137753 0.4899999999999981
    vertex 11.0 -15.149999999999997 0.4899999999999981
  endloop
endfacet
facet normal 0.0 0.0 1.0
  outer loop
    vertex 11.0 -15.149999999999997 0.4899999999999981
    vertex 13.000000000000002 -16.464101615137753 0.4899999999999981
    vertex 11.556460946970422 -15.076740526521494 0.4899999999999981
  endloop
endfacet
facet normal 0.0 0.0 1.0
  outer loop
    vertex 11.556460946970422 -15.076740526521494 0.4899999999999981
    vertex 13.000000000000002 -16.464101615137753 0.4899999999999981
    vertex 12.075000000000001 -14.86195461813654 0.4899999999999981
  endloop
endfacet
facet normal 0.0 0.0 1.0
  outer loop
    vertex 12.075000000000001 -14.86195461813654 0.4899999999999981
    vertex 13.000000000000002 -16.464101615137753 0.4899999999999981
    vertex 12.520279579551078 -14.520279579551074 0.4899999999999981
  endloop
endfacet
facet normal 0.0 0.0 1.0
  outer loop
    vertex 12.520279579551078 -14.520279579551074 0.4899999999999981
    vertex 13.000000000000002 -16.464101615137753 0.4899999999999981
    vertex 12.861954618136544 -14.074999999999998 0.4899999999999981
  endloop
endfacet
facet normal 0.0 0.0 1.0
  outer loop
    vertex 12.861954618136544 -14.074999999999998 0.4899999999999981
    vertex 13.000000000000002 -16.464101615137753 0.4899999999999981
    vertex 12.94852132656104 -13.866009478471572 0.4899999999999981
  endloop
endfacet
facet normal 0.0 0.0 1.0
  outer loop
    vertex 12.94852132656104 -13.866009478471572 0.4899999999999981
    vertex 13.000000000000002 -16.464101615137753 0.4899999999999981
    vertex 13.076740526521496 -13.556460946970416 0.4899999999999981
  endloop
endfacet
facet normal 0.0 0.0 1.0
  outer loop
    vertex 13.076740526521496 -13.556460946970416 0.4899999999999981
    vertex 13.000000000000002 -16.464101615137753 0.4899999999999981
    vertex 14.999999999999998 -12.999999999999998 0.4899999999999981
  endloop
endfacet
facet normal 0.0 0.0 1.0
  outer loop
    vertex 13.076740526521496 -13.556460946970416 0.4899999999999981
    vertex 14.999999999999998 -12.999999999999998 0.4899999999999981
    vertex 13.149999999999999 -12.999999999999998 0.4899999999999981
  endloop
endfacet
facet normal 0.0 0.0 1.0
  outer loop
    vertex 8.850000000000001 -12.999999999999998 0.4899999999999981
    vertex 9.0 -9.535898384862245 0.4899999999999981
    vertex 7.000000000000001 -12.999999999999998 0.4899999999999981
  endloop
endfacet
facet normal 0.0 0.0 1.0
  outer loop
    vertex 9.0 -9.535898384862245 0.4899999999999981
    vertex 8.850000000000001 -12.999999999999998 0.4899999999999981
    vertex 8.923259473478504 -12.44353905302958 0.4899999999999981
  endloop
endfacet
facet normal 0.0 0.0 1.0
  outer loop
    vertex 9.0 -9.535898384862245 0.4899999999999981
    vertex 8.923259473478504 -12.44353905302958 0.4899999999999981
    vertex 9.051478673438957 -12.133990521528425 0.4899999999999981
  endloop
endfacet
facet normal 0.0 0.0 1.0
  outer loop
    vertex 9.0 -9.535898384862245 0.4899999999999981
    vertex 9.051478673438957 -12.133990521528425 0.4899999999999981
    vertex 9.138045381863456 -11.924999999999999 0.4899999999999981
  endloop
endfacet
facet normal 0.0 0.0 1.0
  outer loop
    vertex 9.0 -9.535898384862245 0.4899999999999981
    vertex 9.138045381863456 -11.924999999999999 0.4899999999999981
    vertex 9.479720420448924 -11.479720420448922 0.4899999999999981
  endloop
endfacet
facet normal 0.0 0.0 1.0
  outer loop
    vertex 9.0 -9.535898384862245 0.4899999999999981
    vertex 9.479720420448924 -11.479720420448922 0.4899999999999981
    vertex 9.924999999999999 -11.138045381863458 0.4899999999999981
  endloop
endfacet
facet normal 0.0 0.0 1.0
  outer loop
    vertex 9.0 -9.535898384862245 0.4899999999999981
    vertex 9.924999999999999 -11.138045381863458 0.4899999999999981
    vertex 12.999999999999998 -9.535898384862245 0.4899999999999981
  endloop
endfacet
facet normal 0.0 0.0 1.0
  outer loop
    vertex 12.999999999999998 -9.535898384862245 0.4899999999999981
    vertex 9.924999999999999 -11.138045381863458 0.4899999999999981
    vertex 10.44353905302958 -10.923259473478502 0.4899999999999981
  endloop
endfacet
facet normal 0.0 0.0 1.0
  outer loop
    vertex 12.999999999999998 -9.535898384862245 0.4899999999999981
    vertex 10.44353905302958 -10.923259473478502 0.4899999999999981
    vertex 11.0 -10.85 0.4899999999999981
  endloop
endfacet
facet normal 0.0 0.0 1.0
  outer loop
    vertex 12.999999999999998 -9.535898384862245 0.4899999999999981
    vertex 11.0 -10.85 0.4899999999999981
    vertex 11.556460946970418 -10.923259473478502 0.4899999999999981
  endloop
endfacet
facet normal 0.0 0.0 1.0
  outer loop
    vertex 12.999999999999998 -9.535898384862245 0.4899999999999981
    vertex 11.556460946970418 -10.923259473478502 0.4899999999999981
    vertex 12.075 -11.138045381863456 0.4899999999999981
  endloop
endfacet
facet normal 0.0 0.0 1.0
  outer loop
    vertex 12.999999999999998 -9.535898384862245 0.4899999999999981
    vertex 12.075 -11.138045381863456 0.4899999999999981
    vertex 12.520279579551076 -11.479720420448922 0.4899999999999981
  endloop
endfacet
facet normal 0.0 0.0 1.0
  outer loop
    vertex 12.999999999999998 -9.535898384862245 0.4899999999999981
    vertex 12.520279579551076 -11.479720420448922 0.4899999999999981
    vertex 12.86195461813654 -11.924999999999997 0.4899999999999981
  endloop
endfacet
facet normal 0.0 0.0 1.0
  outer loop
    vertex 12.999999999999998 -9.535898384862245 0.4899999999999981
    vertex 12.86195461813654 -11.924999999999997 0.4899999999999981
    vertex 12.948521326561044 -12.133990521528425 0.4899999999999981
  endloop
endfacet
facet normal 0.0 0.0 1.0
  outer loop
    vertex 12.999999999999998 -9.535898384862245 0.4899999999999981
    vertex 12.948521326561044 -12.133990521528425 0.4899999999999981
    vertex 13.076740526521496 -12.443539053029577 0.4899999999999981
  endloop
endfacet
facet normal 0.0 0.0 1.0
  outer loop
    vertex 12.999999999999998 -9.535898384862245 0.4899999999999981
    vertex 13.076740526521496 -12.443539053029577 0.4899999999999981
    vertex 14.999999999999998 -12.999999999999998 0.4899999999999981
  endloop
endfacet
facet normal 0.0 0.0 1.0
  outer loop
    vertex 14.999999999999998 -12.999999999999998 0.4899999999999981
    vertex 13.076740526521496 -12.443539053029577 0.4899999999999981
    vertex 13.149999999999999 -12.999999999999998 0.4899999999999981
  endloop
endfacet
facet normal 0.0 0.0 1.0
  outer loop
    vertex 9.000000000000004 2.535898384862243 0.5000000000000001
    vertex 8.85 5.999999999999999 0.5000000000000001
    vertex 7.000000000000001 5.999999999999999 0.5000000000000001
  endloop
endfacet
facet normal 0.0 0.0 1.0
  outer loop
    vertex 8.85 5.999999999999999 0.5000000000000001
    vertex 9.000000000000004 2.535898384862243 0.5000000000000001
    vertex 8.923259473478502 5.443539053029579 0.5000000000000001
  endloop
endfacet
facet normal 0.0 0.0 1.0
  outer loop
    vertex 8.923259473478502 5.443539053029579 0.5000000000000001
    vertex 9.000000000000004 2.535898384862243 0.5000000000000001
    vertex 9.051478673438956 5.133990521528424 0.5000000000000001
  endloop
endfacet
facet normal 0.0 0.0 1.0
  outer loop
    vertex 9.051478673438956 5.133990521528424 0.5000000000000001
    vertex 9.000000000000004 2.535898384862243 0.5000000000000001
    vertex 9.138045381863456 4.924999999999999 0.5000000000000001
  endloop
endfacet
facet normal 0.0 0.0 1.0
  outer loop
    vertex 9.138045381863456 4.924999999999999 0.5000000000000001
    vertex 9.000000000000004 2.535898384862243 0.5000000000000001
    vertex 9.479720420448922 4.479720420448921 0.5000000000000001
  endloop
endfacet
facet normal 0.0 0.0 1.0
  outer loop
    vertex 9.479720420448922 4.479720420448921 0.5000000000000001
    vertex 9.000000000000004 2.535898384862243 0.5000000000000001
    vertex 9.925 4.138045381863455 0.5000000000000001
  endloop
endfacet
facet normal 0.0 0.0 1.0
  outer loop
    vertex 9.925 4.138045381863455 0.5000000000000001
    vertex 9.000000000000004 2.535898384862243 0.5000000000000001
    vertex 13.000000000000002 2.5358983848622456 0.5000000000000001
  endloop
endfacet
facet normal 0.0 0.0 1.0
  outer loop
    vertex 9.925 4.138045381863455 0.5000000000000001
    vertex 13.000000000000002 2.5358983848622456 0.5000000000000001
    vertex 10.44353905302958 3.9232594734785016 0.5000000000000001
  endloop
endfacet
facet normal 0.0 0.0 1.0
  outer loop
    vertex 10.44353905302958 3.9232594734785016 0.5000000000000001
    vertex 13.000000000000002 2.5358983848622456 0.5000000000000001
    vertex 11.0 3.8499999999999988 0.5000000000000001
  endloop
endfacet
facet normal 0.0 0.0 1.0
  outer loop
    vertex 11.0 3.8499999999999988 0.5000000000000001
    vertex 13.000000000000002 2.5358983848622456 0.5000000000000001
    vertex 11.556460946970422 3.9232594734785025 0.5000000000000001
  endloop
endfacet
facet normal 0.0 0.0 1.0
  outer loop
    vertex 11.556460946970422 3.9232594734785025 0.5000000000000001
    vertex 13.000000000000002 2.5358983848622456 0.5000000000000001
    vertex 12.075000000000001 4.138045381863456 0.5000000000000001
  endloop
endfacet
facet normal 0.0 0.0 1.0
  outer loop
    vertex 12.075000000000001 4.138045381863456 0.5000000000000001
    vertex 13.000000000000002 2.5358983848622456 0.5000000000000001
    vertex 12.520279579551078 4.479720420448921 0.5000000000000001
  endloop
endfacet
facet normal 0.0 0.0 1.0
  outer loop
    vertex 12.520279579551078 4.479720420448921 0.5000000000000001
    vertex 13.000000000000002 2.5358983848622456 0.5000000000000001
    vertex 12.861954618136544 4.925 0.5000000000000001
  endloop
endfacet
facet normal 0.0 0.0 1.0
  outer loop
    vertex 12.861954618136544 4.925 0.5000000000000001
    vertex 13.000000000000002 2.5358983848622456 0.5000000000000001
    vertex 12.948521326561044 5.133990521528424 0.5000000000000001
  endloop
endfacet
facet normal 0.0 0.0 1.0
  outer loop
    vertex 12.948521326561044 5.133990521528424 0.5000000000000001
    vertex 13.000000000000002 2.5358983848622456 0.5000000000000001
    vertex 13.076740526521496 5.44353905302958 0.5000000000000001
  endloop
endfacet
facet normal 0.0 0.0 1.0
  outer loop
    vertex 13.076740526521496 5.44353905302958 0.5000000000000001
    vertex 13.000000000000002 2.5358983848622456 0.5000000000000001
    vertex 14.999999999999998 6.0 0.5000000000000001
  endloop
endfacet
facet normal 0.0 0.0 1.0
  outer loop
    vertex 13.076740526521496 5.44353905302958 0.5000000000000001
    vertex 14.999999999999998 6.0 0.5000000000000001
    vertex 13.149999999999999 6.0 0.5000000000000001
  endloop
endfacet
facet normal 0.0 0.0 1.0
  outer loop
    vertex 8.85 5.999999999999999 0.5000000000000001
    vertex 9.0 9.464101615137753 0.5000000000000001
    vertex 7.000000000000001 5.999999999999999 0.5000000000000001
  endloop
endfacet
facet normal 0.0 0.0 1.0
  outer loop
    vertex 9.0 9.464101615137753 0.5000000000000001
    vertex 8.85 5.999999999999999 0.5000000000000001
    vertex 8.923259473478502 6.556460946970419 0.5000000000000001
  endloop
endfacet
facet normal 0.0 0.0 1.0
  outer loop
    vertex 9.0 9.464101615137753 0.5000000000000001
    vertex 8.923259473478502 6.556460946970419 0.5000000000000001
    vertex 9.051478673438956 6.8660094784715735 0.5000000000000001
  endloop
endfacet
facet normal 0.0 0.0 1.0
  outer loop
    vertex 9.0 9.464101615137753 0.5000000000000001
    vertex 9.051478673438956 6.8660094784715735 0.5000000000000001
    vertex 9.138045381863456 7.074999999999998 0.5000000000000001
  endloop
endfacet
facet normal 0.0 0.0 1.0
  outer loop
    vertex 9.0 9.464101615137753 0.5000000000000001
    vertex 9.138045381863456 7.074999999999998 0.5000000000000001
    vertex 9.479720420448922 7.520279579551076 0.5000000000000001
  endloop
endfacet
facet normal 0.0 0.0 1.0
  outer loop
    vertex 9.0 9.464101615137753 0.5000000000000001
    vertex 9.479720420448922 7.520279579551076 0.5000000000000001
    vertex 9.924999999999999 7.861954618136542 0.5000000000000001
  endloop
endfacet
facet normal 0.0 0.0 1.0
  outer loop
    vertex 9.0 9.464101615137753 0.5000000000000001
    vertex 9.924999999999999 7.861954618136542 0.5000000000000001
    vertex 12.999999999999998 9.464101615137753 0.5000000000000001
  endloop
endfacet
facet normal 0.0 0.0 1.0
  outer loop
    vertex 12.999999999999998 9.464101615137753 0.5000000000000001
    vertex 9.924999999999999 7.861954618136542 0.5000000000000001
    vertex 10.44353905302958 8.076740526521496 0.5000000000000001
  endloop
endfacet
facet normal 0.0 0.0 1.0
  outer loop
    vertex 12.999999999999998 9.464101615137753 0.5000000000000001
    vertex 10.44353905302958 8.076740526521496 0.5000000000000001
    vertex 11.0 8.149999999999999 0.5000000000000001
  endloop
endfacet
facet normal 0.0 0.0 1.0
  outer loop
    vertex 12.999999999999998 9.464101615137753 0.5000000000000001
    vertex 11.0 8.149999999999999 0.5000000000000001
    vertex 11.556460946970418 8.076740526521496 0.5000000000000001
  endloop
endfacet
facet normal 0.0 0.0 1.0
  outer loop
    vertex 12.999999999999998 9.464101615137753 0.5000000000000001
    vertex 11.556460946970418 8.076740526521496 0.5000000000000001
    vertex 12.075 7.861954618136543 0.5000000000000001
  endloop
endfacet
facet normal 0.0 0.0 1.0
  outer loop
    vertex 12.999999999999998 9.464101615137753 0.5000000000000001
    vertex 12.075 7.861954618136543 0.5000000000000001
    vertex 12.520279579551076 7.520279579551078 0.5000000000000001
  endloop
endfacet
facet normal 0.0 0.0 1.0
  outer loop
    vertex 12.999999999999998 9.464101615137753 0.5000000000000001
    vertex 12.520279579551076 7.520279579551078 0.5000000000000001
    vertex 12.861954618136544 7.074999999999999 0.5000000000000001
  endloop
endfacet
facet normal 0.0 0.0 1.0
  outer loop
    vertex 12.999999999999998 9.464101615137753 0.5000000000000001
    vertex 12.861954618136544 7.074999999999999 0.5000000000000001
    vertex 12.948521326561044 6.8660094784715735 0.5000000000000001
  endloop
endfacet
facet normal 0.0 0.0 1.0
  outer loop
    vertex 12.999999999999998 9.464101615137753 0.5000000000000001
    vertex 12.948521326561044 6.8660094784715735 0.5000000000000001
    vertex 13.076740526521496 6.556460946970421 0.5000000000000001
  endloop
endfacet
facet normal 0.0 0.0 1.0
  outer loop
    vertex 12.999999999999998 9.464101615137753 0.5000000000000001
    vertex 13.076740526521496 6.556460946970421 0.5000000000000001
    vertex 14.999999999999998 6.0 0.5000000000000001
  endloop
endfacet
facet normal 0.0 0.0 1.0
  outer loop
    vertex 14.999999999999998 6.0 0.5000000000000001
    vertex 13.076740526521496 6.556460946970421 0.5000000000000001
    vertex 13.149999999999999 6.0 0.5000000000000001
  endloop
endfacet
facet normal -0.8660254037844392 0.4999999999999995 0.0
  outer loop
    vertex 14.999999999999998 6.0 3.5
    vertex 13.000000000000002 2.5358983848622456 0.5000000000000001
    vertex 13.000000000000002 2.5358983848622456 3.5
  endloop
endfacet
facet normal -0.8660254037844392 0.4999999999999995 0.0
  outer loop
    vertex 13.000000000000002 2.5358983848622456 0.5000000000000001
    vertex 14.999999999999998 6.0 3.5
    vertex 14.999999999999998 6.0 0.5000000000000001
  endloop
endfacet
facet normal -7.049916206369747e-16 1.0 0.0
  outer loop
    vertex 9.000000000000004 2.535898384862243 3.5
    vertex 13.000000000000002 2.5358983848622456 0.5000000000000001
    vertex 9.000000000000004 2.535898384862243 0.5000000000000001
  endloop
endfacet
facet normal -7.049916206369747e-16 1.0 0.0
  outer loop
    vertex 13.000000000000002 2.5358983848622456 0.5000000000000001
    vertex 9.000000000000004 2.535898384862243 3.5
    vertex 13.000000000000002 2.5358983848622456 3.5
  endloop
endfacet
facet normal 0.8660254037844386 0.5000000000000002 0.0
  outer loop
    vertex 7.000000000000001 5.999999999999999 0.5000000000000001
    vertex 9.000000000000004 2.535898384862243 3.5
    vertex 9.000000000000004 2.535898384862243 0.5000000000000001
  endloop
endfacet
facet normal 0.8660254037844386 0.5000000000000002 0.0
  outer loop
    vertex 9.000000000000004 2.535898384862243 3.5
    vertex 7.000000000000001 5.999999999999999 0.5000000000000001
    vertex 7.000000000000001 5.999999999999999 3.5
  endloop
endfacet
facet normal 0.8660254037844387 -0.49999999999999994 0.0
  outer loop
    vertex 9.0 9.464101615137753 0.5000000000000001
    vertex 7.000000000000001 5.999999999999999 3.5
    vertex 7.000000000000001 5.999999999999999 0.5000000000000001
  endloop
endfacet
facet normal 0.8660254037844387 -0.49999999999999994 0.0
  outer loop
    vertex 7.000000000000001 5.999999999999999 3.5
    vertex 9.0 9.464101615137753 0.5000000000000001
    vertex 9.0 9.464101615137753 3.5
  endloop
endfacet
facet normal 3.5249581031848733e-16 -1.0 0.0
  outer loop
    vertex 12.999999999999998 9.464101615137753 3.5
    vertex 9.0 9.464101615137753 0.5000000000000001
    vertex 12.999999999999998 9.464101615137753 0.5000000000000001
  endloop
endfacet
facet normal 3.5249581031848733e-16 -1.0 0.0
  outer loop
    vertex 9.0 9.464101615137753 0.5000000000000001
    vertex 12.999999999999998 9.464101615137753 3.5
    vertex 9.0 9.464101615137753 3.5
  endloop
endfacet
facet normal -0.8660254037844388 -0.4999999999999999 -0.0
  outer loop
    vertex 12.999999999999998 9.464101615137753 3.5
    vertex 14.999999999999998 6.0 0.5000000000000001
    vertex 14.999999999999998 6.0 3.5
  endloop
endfacet
facet normal -0.8660254037844388 -0.4999999999999999 -0.0
  outer loop
    vertex 14.999999999999998 6.0 0.5000000000000001
    vertex 12.999999999999998 9.464101615137753 3.5
    vertex 12.999999999999998 9.464101615137753 0.5000000000000001
  endloop
endfacet
facet normal -7.049916206369747e-16 1.0 0.0
  outer loop
    vertex 9.000000000000004 -16.464101615137757 3.4899999999999975
    vertex 13.000000000000002 -16.464101615137753 0.4899999999999981
    vertex 9.000000000000004 -16.464101615137757 0.4899999999999981
  endloop
endfacet
facet normal -7.049916206369747e-16 1.0 0.0
  outer loop
    vertex 13.000000000000002 -16.464101615137753 0.4899999999999981
    vertex 9.000000000000004 -16.464101615137757 3.4899999999999975
    vertex 13.000000000000002 -16.464101615137753 3.4899999999999975
  endloop
endfacet
facet normal 0.8660254037844386 0.5000000000000001 0.0
  outer loop
    vertex 7.000000000000001 -12.999999999999998 0.4899999999999981
    vertex 9.000000000000004 -16.464101615137757 3.4899999999999975
    vertex 9.000000000000004 -16.464101615137757 0.4899999999999981
  endloop
endfacet
facet normal 0.8660254037844386 0.5000000000000001 0.0
  outer loop
    vertex 9.000000000000004 -16.464101615137757 3.4899999999999975
    vertex 7.000000000000001 -12.999999999999998 0.4899999999999981
    vertex 7.000000000000001 -12.999999999999998 3.4899999999999975
  endloop
endfacet
facet normal 0.8660254037844387 -0.49999999999999994 0.0
  outer loop
    vertex 9.0 -9.535898384862245 0.4899999999999981
    vertex 7.000000000000001 -12.999999999999998 3.4899999999999975
    vertex 7.000000000000001 -12.999999999999998 0.4899999999999981
  endloop
endfacet
facet normal 0.8660254037844387 -0.49999999999999994 0.0
  outer loop
    vertex 7.000000000000001 -12.999999999999998 3.4899999999999975
    vertex 9.0 -9.535898384862245 0.4899999999999981
    vertex 9.0 -9.535898384862245 3.4899999999999975
  endloop
endfacet
facet normal 0.0 -1.0 0.0
  outer loop
    vertex 12.999999999999998 -9.535898384862245 3.4899999999999975
    vertex 9.0 -9.535898384862245 0.4899999999999981
    vertex 12.999999999999998 -9.535898384862245 0.4899999999999981
  endloop
endfacet
facet normal 0.0 -1.0 0.0
  outer loop
    vertex 9.0 -9.535898384862245 0.4899999999999981
    vertex 12.999999999999998 -9.535898384862245 3.4899999999999975
    vertex 9.0 -9.535898384862245 3.4899999999999975
  endloop
endfacet
facet normal -0.8660254037844387 -0.49999999999999994 -0.0
  outer loop
    vertex 12.999999999999998 -9.535898384862245 3.4899999999999975
    vertex 14.999999999999998 -12.999999999999998 0.4899999999999981
    vertex 14.999999999999998 -12.999999999999998 3.4899999999999975
  endloop
endfacet
facet normal -0.8660254037844387 -0.49999999999999994 -0.0
  outer loop
    vertex 14.999999999999998 -12.999999999999998 0.4899999999999981
    vertex 12.999999999999998 -9.535898384862245 3.4899999999999975
    vertex 12.999999999999998 -9.535898384862245 0.4899999999999981
  endloop
endfacet
facet normal -0.8660254037844392 0.4999999999999995 0.0
  outer loop
    vertex 14.999999999999998 -12.999999999999998 3.4899999999999975
    vertex 13.000000000000002 -16.464101615137753 0.4899999999999981
    vertex 13.000000000000002 -16.464101615137753 3.4899999999999975
  endloop
endfacet
facet normal -0.8660254037844392 0.4999999999999995 0.0
  outer loop
    vertex 13.000000000000002 -16.464101615137753 0.4899999999999981
    vertex 14.999999999999998 -12.999999999999998 3.4899999999999975
    vertex 14.999999999999998 -12.999999999999998 0.4899999999999981
  endloop
endfacet
facet normal 1.0 -0.0 -0.0
  outer loop
    vertex 20.0 11.200000000000003 -4.0
    vertex 20.0 -18.209999999999987 -2.0000000000000004
    vertex 20.0 -18.209999999999987 -4.0
  endloop
endfacet
facet normal 1.0 -0.0 -0.0
  outer loop
    vertex 20.0 -18.209999999999987 -2.0000000000000004
    vertex 20.0 11.200000000000003 -4.0
    vertex 20.0 -18.209999999999987 1.4999999999999993
  endloop
endfacet
facet normal 1.0 -0.0 -0.0
  outer loop
    vertex 20.0 -18.209999999999987 1.4999999999999993
    vertex 20.0 11.200000000000003 -4.0
    vertex 20.000108537360358 11.199984139896733 3.49548806488957
  endloop
endfacet
facet normal 1.0 -0.0 -0.0
  outer loop
    vertex 20.000108537360358 11.199984139896733 3.49548806488957
    vertex 20.000108537360358 -18.21001586010325 3.49548806488957
    vertex 20.0 -18.209999999999987 1.4999999999999993
  endloop
endfacet
facet normal -0.002307910364894075 -0.9999973367407322 -7.822430410641399e-06
  outer loop
    vertex 20.0 -18.209999999999987 1.4999999999999993
    vertex 14.000108537360354 -18.196168282809893 3.4854880648895685
    vertex 13.999999999999996 -18.196152422706632 1.489999999999998
  endloop
endfacet
facet normal -0.002307910364894075 -0.9999973367407322 -7.822430410641399e-06
  outer loop
    vertex 14.000108537360354 -18.196168282809893 3.4854880648895685
    vertex 20.0 -18.209999999999987 1.4999999999999993
    vertex 20.000108537360358 -18.21001586010325 3.49548806488957
  endloop
endfacet
facet normal 3.957777066697191e-05 -0.00013159443175698941 0.9999999905582527
  outer loop
    vertex 7.999999999999999 -18.196152422706632 3.4899999999999975
    vertex 7.000000000000001 -12.999999999999998 3.4899999999999975
    vertex 2.0001085373603638 -18.21001586010325 3.49548806488957
  endloop
endfacet
facet normal 3.957777066697191e-05 -0.00013159443175698941 0.9999999905582527
  outer loop
    vertex 7.000000000000001 -12.999999999999998 3.4899999999999975
    vertex 7.999999999999999 -18.196152422706632 3.4899999999999975
    vertex 9.000000000000004 -16.464101615137757 3.4899999999999975
  endloop
endfacet
facet normal 3.957777066697191e-05 -0.00013159443175698941 0.9999999905582527
  outer loop
    vertex 9.000000000000004 -16.464101615137757 3.4899999999999975
    vertex 7.999999999999999 -18.196152422706632 3.4899999999999975
    vertex 14.000108537360354 -18.196168282809893 3.4854880648895685
  endloop
endfacet
facet normal 3.957777066697191e-05 -0.00013159443175698941 0.9999999905582527
  outer loop
    vertex 9.000000000000004 -16.464101615137757 3.4899999999999975
    vertex 14.000108537360354 -18.196168282809893 3.4854880648895685
    vertex 13.000000000000002 -16.464101615137753 3.4899999999999975
  endloop
endfacet
facet normal 3.957777066697191e-05 -0.00013159443175698941 0.9999999905582527
  outer loop
    vertex 13.000000000000002 -16.464101615137753 3.4899999999999975
    vertex 14.000108537360354 -18.196168282809893 3.4854880648895685
    vertex 14.999999999999998 -12.999999999999998 3.4899999999999975
  endloop
endfacet
facet normal 3.957777066697191e-05 -0.00013159443175698941 0.9999999905582527
  outer loop
    vertex 14.999999999999998 -12.999999999999998 3.4899999999999975
    vertex 14.000108537360354 -18.196168282809893 3.4854880648895685
    vertex 20.000108537360358 -18.21001586010325 3.49548806488957
  endloop
endfacet
facet normal 3.957777066697191e-05 -0.00013159443175698941 0.9999999905582527
  outer loop
    vertex 14.999999999999998 -12.999999999999998 3.4899999999999975
    vertex 20.000108537360358 -18.21001586010325 3.49548806488957
    vertex 14.999999999999998 6.0 3.5
  endloop
endfacet
facet normal 3.957777066697191e-05 -0.00013159443175698941 0.9999999905582527
  outer loop
    vertex 2.000108537360363 11.199984139896733 3.49548806488957
    vertex 9.0 9.464101615137753 3.5
    vertex 20.000108537360358 11.199984139896733 3.49548806488957
  endloop
endfacet
facet normal 3.957777066697191e-05 -0.00013159443175698941 0.9999999905582527
  outer loop
    vertex 9.0 9.464101615137753 3.5
    vertex 2.000108537360363 11.199984139896733 3.49548806488957
    vertex 7.000000000000001 5.999999999999999 3.5
  endloop
endfacet
facet normal 3.957777066697191e-05 -0.00013159443175698941 0.9999999905582527
  outer loop
    vertex 7.000000000000001 5.999999999999999 3.5
    vertex 2.000108537360363 11.199984139896733 3.49548806488957
    vertex 2.0001085373603638 -18.21001586010325 3.49548806488957
  endloop
endfacet
facet normal 3.957777066697191e-05 -0.00013159443175698941 0.9999999905582527
  outer loop
    vertex 7.000000000000001 5.999999999999999 3.5
    vertex 2.0001085373603638 -18.21001586010325 3.49548806488957
    vertex 7.000000000000001 -12.999999999999998 3.4899999999999975
  endloop
endfacet
facet normal 3.957777066697191e-05 -0.00013159443175698941 0.9999999905582527
  outer loop
    vertex 20.000108537360358 11.199984139896733 3.49548806488957
    vertex 9.0 9.464101615137753 3.5
    vertex 12.999999999999998 9.464101615137753 3.5
  endloop
endfacet
facet normal 3.957777066697191e-05 -0.00013159443175698941 0.9999999905582527
  outer loop
    vertex 20.000108537360358 11.199984139896733 3.49548806488957
    vertex 12.999999999999998 9.464101615137753 3.5
    vertex 14.999999999999998 6.0 3.5
  endloop
endfacet
facet normal 3.957777066697191e-05 -0.00013159443175698941 0.9999999905582527
  outer loop
    vertex 20.000108537360358 11.199984139896733 3.49548806488957
    vertex 14.999999999999998 6.0 3.5
    vertex 20.000108537360358 -18.21001586010325 3.49548806488957
  endloop
endfacet
facet normal 3.957777066697191e-05 -0.00013159443175698941 0.9999999905582527
  outer loop
    vertex 9.0 -9.535898384862245 3.4899999999999975
    vertex 7.000000000000001 5.999999999999999 3.5
    vertex 7.000000000000001 -12.999999999999998 3.4899999999999975
  endloop
endfacet
facet normal 3.957777066697191e-05 -0.00013159443175698941 0.9999999905582527
  outer loop
    vertex 7.000000000000001 5.999999999999999 3.5
    vertex 9.0 -9.535898384862245 3.4899999999999975
    vertex 9.000000000000004 2.535898384862243 3.5
  endloop
endfacet
facet normal 3.957777066697191e-05 -0.00013159443175698941 0.9999999905582527
  outer loop
    vertex 9.000000000000004 2.535898384862243 3.5
    vertex 9.0 -9.535898384862245 3.4899999999999975
    vertex 12.999999999999998 -9.535898384862245 3.4899999999999975
  endloop
endfacet
facet normal 3.957777066697191e-05 -0.00013159443175698941 0.9999999905582527
  outer loop
    vertex 9.000000000000004 2.535898384862243 3.5
    vertex 12.999999999999998 -9.535898384862245 3.4899999999999975
    vertex 13.000000000000002 2.5358983848622456 3.5
  endloop
endfacet
facet normal 3.957777066697191e-05 -0.00013159443175698941 0.9999999905582527
  outer loop
    vertex 13.000000000000002 2.5358983848622456 3.5
    vertex 12.999999999999998 -9.535898384862245 3.4899999999999975
    vertex 14.999999999999998 -12.999999999999998 3.4899999999999975
  endloop
endfacet
facet normal 3.957777066697191e-05 -0.00013159443175698941 0.9999999905582527
  outer loop
    vertex 13.000000000000002 2.5358983848622456 3.5
    vertex 14.999999999999998 -12.999999999999998 3.4899999999999975
    vertex 14.999999999999998 6.0 3.5
  endloop
endfacet
facet normal 0.0 0.0 -1.0
  outer loop
    vertex 20.0 11.200000000000003 -4.0
    vertex 1.9999999999999998 -18.209999999999987 -4.0
    vertex 1.9999999999999991 11.200000000000003 -4.0
  endloop
endfacet
facet normal 0.0 0.0 -1.0
  outer loop
    vertex 1.9999999999999998 -18.209999999999987 -4.0
    vertex 20.0 11.200000000000003 -4.0
    vertex 20.0 -18.209999999999987 -4.0
  endloop
endfacet
facet normal -0.0 -0.0 1.0
  outer loop
    vertex 8.923259473478502 5.443539053029579 -3.700000000000001
    vertex 8.923259473478502 6.556460946970419 -3.700000000000001
    vertex 8.85 5.999999999999999 -3.700000000000001
  endloop
endfacet
facet normal -0.0 -0.0 1.0
  outer loop
    vertex 8.923259473478502 6.556460946970419 -3.700000000000001
    vertex 8.923259473478502 5.443539053029579 -3.700000000000001
    vertex 9.051478673438956 5.133990521528424 -3.700000000000001
  endloop
endfacet
facet normal -0.0 -0.0 1.0
  outer loop
    vertex 8.923259473478502 6.556460946970419 -3.700000000000001
    vertex 9.051478673438956 5.133990521528424 -3.700000000000001
    vertex 9.051478673438956 6.8660094784715735 -3.700000000000001
  endloop
endfacet
facet normal -0.0 -0.0 1.0
  outer loop
    vertex 9.051478673438956 6.8660094784715735 -3.700000000000001
    vertex 9.051478673438956 5.133990521528424 -3.700000000000001
    vertex 9.138045381863456 4.924999999999999 -3.700000000000001
  endloop
endfacet
facet normal -0.0 -0.0 1.0
  outer loop
    vertex 9.051478673438956 6.8660094784715735 -3.700000000000001
    vertex 9.138045381863456 4.924999999999999 -3.700000000000001
    vertex 9.138045381863456 7.074999999999998 -3.700000000000001
  endloop
endfacet
facet normal -0.0 -0.0 1.0
  outer loop
    vertex 9.138045381863456 7.074999999999998 -3.700000000000001
    vertex 9.138045381863456 4.924999999999999 -3.700000000000001
    vertex 9.479720420448922 4.479720420448921 -3.700000000000001
  endloop
endfacet
facet normal -0.0 -0.0 1.0
  outer loop
    vertex 9.138045381863456 7.074999999999998 -3.700000000000001
    vertex 9.479720420448922 4.479720420448921 -3.700000000000001
    vertex 9.479720420448922 7.520279579551076 -3.700000000000001
  endloop
endfacet
facet normal -0.0 -0.0 1.0
  outer loop
    vertex 9.479720420448922 7.520279579551076 -3.700000000000001
    vertex 9.479720420448922 4.479720420448921 -3.700000000000001
    vertex 9.925 4.138045381863455 -3.700000000000001
  endloop
endfacet
facet normal -0.0 -0.0 1.0
  outer loop
    vertex 9.479720420448922 7.520279579551076 -3.700000000000001
    vertex 9.925 4.138045381863455 -3.700000000000001
    vertex 9.924999999999999 7.861954618136542 -3.700000000000001
  endloop
endfacet
facet normal -0.0 -0.0 1.0
  outer loop
    vertex 9.924999999999999 7.861954618136542 -3.700000000000001
    vertex 9.925 4.138045381863455 -3.700000000000001
    vertex 10.44353905302958 8.076740526521496 -3.700000000000001
  endloop
endfacet
facet normal -0.0 -0.0 1.0
  outer loop
    vertex 10.44353905302958 8.076740526521496 -3.700000000000001
    vertex 9.925 4.138045381863455 -3.700000000000001
    vertex 10.44353905302958 3.9232594734785016 -3.700000000000001
  endloop
endfacet
facet normal -0.0 -0.0 1.0
  outer loop
    vertex 10.44353905302958 8.076740526521496 -3.700000000000001
    vertex 10.44353905302958 3.9232594734785016 -3.700000000000001
    vertex 11.0 3.8499999999999988 -3.700000000000001
  endloop
endfacet
facet normal -0.0 -0.0 1.0
  outer loop
    vertex 10.44353905302958 8.076740526521496 -3.700000000000001
    vertex 11.0 3.8499999999999988 -3.700000000000001
    vertex 11.0 8.149999999999999 -3.700000000000001
  endloop
endfacet
facet normal -0.0 -0.0 1.0
  outer loop
    vertex 11.0 8.149999999999999 -3.700000000000001
    vertex 11.0 3.8499999999999988 -3.700000000000001
    vertex 11.556460946970422 3.9232594734785025 -3.700000000000001
  endloop
endfacet
facet normal -0.0 -0.0 1.0
  outer loop
    vertex 11.0 8.149999999999999 -3.700000000000001
    vertex 11.556460946970422 3.9232594734785025 -3.700000000000001
    vertex 11.556460946970418 8.076740526521496 -3.700000000000001
  endloop
endfacet
facet normal -0.0 -0.0 1.0
  outer loop
    vertex 11.556460946970418 8.076740526521496 -3.700000000000001
    vertex 11.556460946970422 3.9232594734785025 -3.700000000000001
    vertex 12.075 7.861954618136543 -3.700000000000001
  endloop
endfacet
facet normal -0.0 -0.0 1.0
  outer loop
    vertex 12.075 7.861954618136543 -3.700000000000001
    vertex 11.556460946970422 3.9232594734785025 -3.700000000000001
    vertex 12.075000000000001 4.138045381863456 -3.700000000000001
  endloop
endfacet
facet normal -0.0 -0.0 1.0
  outer loop
    vertex 12.075 7.861954618136543 -3.700000000000001
    vertex 12.075000000000001 4.138045381863456 -3.700000000000001
    vertex 12.520279579551076 7.520279579551078 -3.700000000000001
  endloop
endfacet
facet normal -0.0 -0.0 1.0
  outer loop
    vertex 12.520279579551076 7.520279579551078 -3.700000000000001
    vertex 12.075000000000001 4.138045381863456 -3.700000000000001
    vertex 12.520279579551078 4.479720420448921 -3.700000000000001
  endloop
endfacet
facet normal -0.0 -0.0 1.0
  outer loop
    vertex 12.520279579551076 7.520279579551078 -3.700000000000001
    vertex 12.520279579551078 4.479720420448921 -3.700000000000001
    vertex 12.861954618136544 7.074999999999999 -3.700000000000001
  endloop
endfacet
facet normal -0.0 -0.0 1.0
  outer loop
    vertex 12.861954618136544 7.074999999999999 -3.700000000000001
    vertex 12.520279579551078 4.479720420448921 -3.700000000000001
    vertex 12.861954618136544 4.925 -3.700000000000001
  endloop
endfacet
facet normal -0.0 -0.0 1.0
  outer loop
    vertex 12.861954618136544 7.074999999999999 -3.700000000000001
    vertex 12.861954618136544 4.925 -3.700000000000001
    vertex 12.948521326561044 5.133990521528424 -3.700000000000001
  endloop
endfacet
facet normal -0.0 -0.0 1.0
  outer loop
    vertex 12.861954618136544 7.074999999999999 -3.700000000000001
    vertex 12.948521326561044 5.133990521528424 -3.700000000000001
    vertex 12.948521326561044 6.8660094784715735 -3.700000000000001
  endloop
endfacet
facet normal -0.0 -0.0 1.0
  outer loop
    vertex 12.948521326561044 6.8660094784715735 -3.700000000000001
    vertex 12.948521326561044 5.133990521528424 -3.700000000000001
    vertex 13.076740526521496 5.44353905302958 -3.700000000000001
  endloop
endfacet
facet normal -0.0 -0.0 1.0
  outer loop
    vertex 12.948521326561044 6.8660094784715735 -3.700000000000001
    vertex 13.076740526521496 5.44353905302958 -3.700000000000001
    vertex 13.076740526521496 6.556460946970421 -3.700000000000001
  endloop
endfacet
facet normal -0.0 -0.0 1.0
  outer loop
    vertex 13.076740526521496 6.556460946970421 -3.700000000000001
    vertex 13.076740526521496 5.44353905302958 -3.700000000000001
    vertex 13.149999999999999 6.0 -3.700000000000001
  endloop
endfacet
facet normal -0.0 -0.0 1.0
  outer loop
    vertex 8.923259473478504 -13.556460946970418 -3.7
    vertex 8.923259473478504 -12.44353905302958 -3.7
    vertex 8.850000000000001 -12.999999999999998 -3.7
  endloop
endfacet
facet normal -0.0 -0.0 1.0
  outer loop
    vertex 8.923259473478504 -12.44353905302958 -3.7
    vertex 8.923259473478504 -13.556460946970418 -3.7
    vertex 9.051478673438956 -13.866009478471572 -3.7
  endloop
endfacet
facet normal -0.0 -0.0 1.0
  outer loop
    vertex 8.923259473478504 -12.44353905302958 -3.7
    vertex 9.051478673438956 -13.866009478471572 -3.7
    vertex 9.051478673438957 -12.133990521528425 -3.7
  endloop
endfacet
facet normal -0.0 -0.0 1.0
  outer loop
    vertex 9.051478673438957 -12.133990521528425 -3.7
    vertex 9.051478673438956 -13.866009478471572 -3.7
    vertex 9.138045381863456 -14.075 -3.7
  endloop
endfacet
facet normal -0.0 -0.0 1.0
  outer loop
    vertex 9.051478673438957 -12.133990521528425 -3.7
    vertex 9.138045381863456 -14.075 -3.7
    vertex 9.138045381863456 -11.924999999999999 -3.7
  endloop
endfacet
facet normal -0.0 -0.0 1.0
  outer loop
    vertex 9.138045381863456 -11.924999999999999 -3.7
    vertex 9.138045381863456 -14.075 -3.7
    vertex 9.479720420448924 -14.520279579551074 -3.7
  endloop
endfacet
facet normal -0.0 -0.0 1.0
  outer loop
    vertex 9.138045381863456 -11.924999999999999 -3.7
    vertex 9.479720420448924 -14.520279579551074 -3.7
    vertex 9.479720420448924 -11.479720420448922 -3.7
  endloop
endfacet
facet normal -0.0 -0.0 1.0
  outer loop
    vertex 9.479720420448924 -11.479720420448922 -3.7
    vertex 9.479720420448924 -14.520279579551074 -3.7
    vertex 9.925 -14.86195461813654 -3.7
  endloop
endfacet
facet normal -0.0 -0.0 1.0
  outer loop
    vertex 9.479720420448924 -11.479720420448922 -3.7
    vertex 9.925 -14.86195461813654 -3.7
    vertex 9.924999999999999 -11.138045381863458 -3.7
  endloop
endfacet
facet normal -0.0 -0.0 1.0
  outer loop
    vertex 9.924999999999999 -11.138045381863458 -3.7
    vertex 9.925 -14.86195461813654 -3.7
    vertex 10.44353905302958 -10.923259473478502 -3.7
  endloop
endfacet
facet normal -0.0 -0.0 1.0
  outer loop
    vertex 10.44353905302958 -10.923259473478502 -3.7
    vertex 9.925 -14.86195461813654 -3.7
    vertex 10.44353905302958 -15.076740526521494 -3.7
  endloop
endfacet
facet normal -0.0 -0.0 1.0
  outer loop
    vertex 10.44353905302958 -10.923259473478502 -3.7
    vertex 10.44353905302958 -15.076740526521494 -3.7
    vertex 11.0 -15.149999999999997 -3.7
  endloop
endfacet
facet normal -0.0 -0.0 1.0
  outer loop
    vertex 10.44353905302958 -10.923259473478502 -3.7
    vertex 11.0 -15.149999999999997 -3.7
    vertex 11.0 -10.85 -3.7
  endloop
endfacet
facet normal -0.0 -0.0 1.0
  outer loop
    vertex 11.0 -10.85 -3.7
    vertex 11.0 -15.149999999999997 -3.7
    vertex 11.556460946970422 -15.076740526521494 -3.7
  endloop
endfacet
facet normal -0.0 -0.0 1.0
  outer loop
    vertex 11.0 -10.85 -3.7
    vertex 11.556460946970422 -15.076740526521494 -3.7
    vertex 11.556460946970418 -10.923259473478502 -3.7
  endloop
endfacet
facet normal -0.0 -0.0 1.0
  outer loop
    vertex 11.556460946970418 -10.923259473478502 -3.7
    vertex 11.556460946970422 -15.076740526521494 -3.7
    vertex 12.075 -11.138045381863456 -3.7
  endloop
endfacet
facet normal -0.0 -0.0 1.0
  outer loop
    vertex 12.075 -11.138045381863456 -3.7
    vertex 11.556460946970422 -15.076740526521494 -3.7
    vertex 12.075000000000001 -14.86195461813654 -3.7
  endloop
endfacet
facet normal -0.0 -0.0 1.0
  outer loop
    vertex 12.075 -11.138045381863456 -3.7
    vertex 12.075000000000001 -14.86195461813654 -3.7
    vertex 12.520279579551076 -11.479720420448922 -3.7
  endloop
endfacet
facet normal -0.0 -0.0 1.0
  outer loop
    vertex 12.520279579551076 -11.479720420448922 -3.7
    vertex 12.075000000000001 -14.86195461813654 -3.7
    vertex 12.520279579551078 -14.520279579551074 -3.7
  endloop
endfacet
facet normal -0.0 -0.0 1.0
  outer loop
    vertex 12.520279579551076 -11.479720420448922 -3.7
    vertex 12.520279579551078 -14.520279579551074 -3.7
    vertex 12.86195461813654 -11.924999999999997 -3.7
  endloop
endfacet
facet normal -0.0 -0.0 1.0
  outer loop
    vertex 12.86195461813654 -11.924999999999997 -3.7
    vertex 12.520279579551078 -14.520279579551074 -3.7
    vertex 12.861954618136544 -14.074999999999998 -3.7
  endloop
endfacet
facet normal -0.0 -0.0 1.0
  outer loop
    vertex 12.86195461813654 -11.924999999999997 -3.7
    vertex 12.861954618136544 -14.074999999999998 -3.7
    vertex 12.948521326561044 -12.133990521528425 -3.7
  endloop
endfacet
facet normal -0.0 -0.0 1.0
  outer loop
    vertex 12.948521326561044 -12.133990521528425 -3.7
    vertex 12.861954618136544 -14.074999999999998 -3.7
    vertex 12.94852132656104 -13.866009478471572 -3.7
  endloop
endfacet
facet normal -0.0 -0.0 1.0
  outer loop
    vertex 12.948521326561044 -12.133990521528425 -3.7
    vertex 12.94852132656104 -13.866009478471572 -3.7
    vertex 13.076740526521496 -13.556460946970416 -3.7
  endloop
endfacet
facet normal -0.0 -0.0 1.0
  outer loop
    vertex 12.948521326561044 -12.133990521528425 -3.7
    vertex 13.076740526521496 -13.556460946970416 -3.7
    vertex 13.076740526521496 -12.443539053029577 -3.7
  endloop
endfacet
facet normal -0.0 -0.0 1.0
  outer loop
    vertex 13.076740526521496 -12.443539053029577 -3.7
    vertex 13.076740526521496 -13.556460946970416 -3.7
    vertex 13.149999999999999 -12.999999999999998 -3.7
  endloop
endfacet
facet normal 0.0023092607430723515 -0.9999973336457446 -4.02766537888412e-06
  outer loop
    vertex 7.999999999999999 -18.196152422706632 3.4899999999999975
    vertex 1.9999999999999998 -18.209999999999987 1.4999999999999993
    vertex 7.999999999999999 -18.196152422706632 1.489999999999998
  endloop
endfacet
facet normal 0.0023092607430723515 -0.9999973336457446 -4.02766537888412e-06
  outer loop
    vertex 1.9999999999999998 -18.209999999999987 1.4999999999999993
    vertex 7.999999999999999 -18.196152422706632 3.4899999999999975
    vertex 2.0001085373603638 -18.21001586010325 3.49548806488957
  endloop
endfacet
facet normal -1.3231660960470935e-06 -0.9999999999912641 -3.964979840228962e-06
  outer loop
    vertex 14.000108537360354 -18.196168282809893 3.4854880648895685
    vertex 7.999999999999999 -18.196152422706632 1.489999999999998
    vertex 13.999999999999996 -18.196152422706632 1.489999999999998
  endloop
endfacet
facet normal -1.3231660960470935e-06 -0.9999999999912641 -3.964979840228962e-06
  outer loop
    vertex 7.999999999999999 -18.196152422706632 1.489999999999998
    vertex 14.000108537360354 -18.196168282809893 3.4854880648895685
    vertex 7.999999999999999 -18.196152422706632 3.4899999999999975
  endloop
endfacet
facet normal -2.5311732249641134e-20 -0.9999980545468532 0.0019725370742087324
  outer loop
    vertex 20.0 -18.209999999999987 1.4999999999999993
    vertex 1.9999999999999998 -18.209999999999987 -2.0000000000000004
    vertex 20.0 -18.209999999999987 -2.0000000000000004
  endloop
endfacet
facet normal -2.5311732249641134e-20 -0.9999980545468532 0.0019725370742087324
  outer loop
    vertex 1.9999999999999998 -18.209999999999987 -2.0000000000000004
    vertex 20.0 -18.209999999999987 1.4999999999999993
    vertex 13.999999999999996 -18.196152422706632 1.489999999999998
  endloop
endfacet
facet normal -2.5311732249641134e-20 -0.9999980545468532 0.0019725370742087324
  outer loop
    vertex 1.9999999999999998 -18.209999999999987 -2.0000000000000004
    vertex 7.999999999999999 -18.196152422706632 1.489999999999998
    vertex 1.9999999999999998 -18.209999999999987 1.4999999999999993
  endloop
endfacet
facet normal -2.5311732249641134e-20 -0.9999980545468532 0.0019725370742087324
  outer loop
    vertex 7.999999999999999 -18.196152422706632 1.489999999999998
    vertex 1.9999999999999998 -18.209999999999987 -2.0000000000000004
    vertex 13.999999999999996 -18.196152422706632 1.489999999999998
  endloop
endfacet
facet normal -0.0 -1.0 -0.0
  outer loop
    vertex 20.0 -18.209999999999987 -2.0000000000000004
    vertex 1.9999999999999998 -18.209999999999987 -4.0
    vertex 20.0 -18.209999999999987 -4.0
  endloop
endfacet
facet normal -0.0 -1.0 -0.0
  outer loop
    vertex 1.9999999999999998 -18.209999999999987 -4.0
    vertex 20.0 -18.209999999999987 -2.0000000000000004
    vertex 1.9999999999999998 -18.209999999999987 -2.0000000000000004
  endloop
endfacet
endsolid Timing_Belt_Tensioner_Cap
