solid Timing_Belt_Tensioner_Cap
facet normal 0.0 0.0 -1.0
  outer loop
    vertex 1.9999999999999991 11.200000000000003 -2.0000000000000004
    vertex 8.923259473478502 6.556460946970419 -2.0000000000000013
    vertex 1.9999999999999998 -18.209999999999987 -2.0000000000000004
  endloop
endfacet
facet normal 0.0 0.0 -1.0
  outer loop
    vertex 8.923259473478502 6.556460946970419 -2.0000000000000013
    vertex 1.9999999999999991 11.200000000000003 -2.0000000000000004
    vertex 9.138045381863456 7.074999999999998 -2.0000000000000013
  endloop
endfacet
facet normal 0.0 0.0 -1.0
  outer loop
    vertex 9.138045381863456 7.074999999999998 -2.0000000000000013
    vertex 1.9999999999999991 11.200000000000003 -2.0000000000000004
    vertex 9.479720420448922 7.520279579551076 -2.0000000000000013
  endloop
endfacet
facet normal 0.0 0.0 -1.0
  outer loop
    vertex 9.479720420448922 7.520279579551076 -2.0000000000000013
    vertex 1.9999999999999991 11.200000000000003 -2.0000000000000004
    vertex 9.924999999999999 7.861954618136542 -2.0000000000000013
  endloop
endfacet
facet normal 0.0 0.0 -1.0
  outer loop
    vertex 9.924999999999999 7.861954618136542 -2.0000000000000013
    vertex 1.9999999999999991 11.200000000000003 -2.0000000000000004
    vertex 10.44353905302958 8.076740526521496 -2.0000000000000013
  endloop
endfacet
facet normal 0.0 0.0 -1.0
  outer loop
    vertex 10.44353905302958 8.076740526521496 -2.0000000000000013
    vertex 1.9999999999999991 11.200000000000003 -2.0000000000000004
    vertex 20.0 11.200000000000003 -2.0000000000000004
  endloop
endfacet
facet normal 0.0 0.0 -1.0
  outer loop
    vertex 1.9999999999999998 -18.209999999999987 -2.0000000000000004
    vertex 8.923259473478502 6.556460946970419 -2.0000000000000013
    vertex 8.85 5.999999999999999 -2.0000000000000013
  endloop
endfacet
facet normal 0.0 0.0 -1.0
  outer loop
    vertex 8.923259473478502 6.556460946970419 -2.0000000000000013
    vertex 9.138045381863456 7.074999999999998 -2.0000000000000013
    vertex 9.051478673438956 6.8660094784715735 -2.0000000000000013
  endloop
endfacet
facet normal 0.0 0.0 -1.0
  outer loop
    vertex 10.44353905302958 8.076740526521496 -2.0000000000000013
    vertex 20.0 11.200000000000003 -2.0000000000000004
    vertex 11.0 8.149999999999999 -2.0000000000000013
  endloop
endfacet
facet normal 0.0 0.0 -1.0
  outer loop
    vertex 11.0 8.149999999999999 -2.0000000000000013
    vertex 20.0 11.200000000000003 -2.0000000000000004
    vertex 11.556460946970418 8.076740526521496 -2.0000000000000013
  endloop
endfacet
facet normal 0.0 0.0 -1.0
  outer loop
    vertex 11.556460946970418 8.076740526521496 -2.0000000000000013
    vertex 20.0 11.200000000000003 -2.0000000000000004
    vertex 12.075 7.861954618136543 -2.0000000000000013
  endloop
endfacet
facet normal 0.0 0.0 -1.0
  outer loop
    vertex 12.075 7.861954618136543 -2.0000000000000013
    vertex 20.0 11.200000000000003 -2.0000000000000004
    vertex 12.520279579551076 7.520279579551078 -2.0000000000000013
  endloop
endfacet
facet normal 0.0 0.0 -1.0
  outer loop
    vertex 12.520279579551076 7.520279579551078 -2.0000000000000013
    vertex 20.0 11.200000000000003 -2.0000000000000004
    vertex 12.861954618136544 7.074999999999999 -2.0000000000000013
  endloop
endfacet
facet normal 0.0 0.0 -1.0
  outer loop
    vertex 12.861954618136544 7.074999999999999 -2.0000000000000013
    vertex 20.0 11.200000000000003 -2.0000000000000004
    vertex 12.948521326561044 6.8660094784715735 -2.0000000000000013
  endloop
endfacet
facet normal 0.0 0.0 -1.0
  outer loop
    vertex 12.948521326561044 6.8660094784715735 -2.0000000000000013
    vertex 20.0 11.200000000000003 -2.0000000000000004
    vertex 13.076740526521496 6.556460946970421 -2.0000000000000013
  endloop
endfacet
facet normal 0.0 0.0 -1.0
  outer loop
    vertex 13.076740526521496 6.556460946970421 -2.0000000000000013
    vertex 20.0 11.200000000000003 -2.0000000000000004
    vertex 13.149999999999999 6.0 -2.0000000000000013
  endloop
endfacet
facet normal 0.0 0.0 -1.0
  outer loop
    vertex 13.149999999999999 6.0 -2.0000000000000013
    vertex 20.0 11.200000000000003 -2.0000000000000004
    vertex 13.149999999999999 -12.999999999999998 -2.0000000000000004
  endloop
endfacet
facet normal 0.0 0.0 -1.0
  outer loop
    vertex 1.9999999999999998 -18.209999999999987 -2.0000000000000004
    vertex 10.44353905302958 -15.076740526521494 -2.0000000000000004
    vertex 20.0 -18.209999999999987 -2.0000000000000004
  endloop
endfacet
facet normal 0.0 0.0 -1.0
  outer loop
    vertex 10.44353905302958 -15.076740526521494 -2.0000000000000004
    vertex 1.9999999999999998 -18.209999999999987 -2.0000000000000004
    vertex 9.925 -14.86195461813654 -2.0000000000000004
  endloop
endfacet
facet normal 0.0 0.0 -1.0
  outer loop
    vertex 9.925 -14.86195461813654 -2.0000000000000004
    vertex 1.9999999999999998 -18.209999999999987 -2.0000000000000004
    vertex 9.479720420448924 -14.520279579551074 -2.0000000000000004
  endloop
endfacet
facet normal 0.0 0.0 -1.0
  outer loop
    vertex 9.479720420448924 -14.520279579551074 -2.0000000000000004
    vertex 1.9999999999999998 -18.209999999999987 -2.0000000000000004
    vertex 9.138045381863456 -14.075 -2.0000000000000004
  endloop
endfacet
facet normal 0.0 0.0 -1.0
  outer loop
    vertex 9.138045381863456 -14.075 -2.0000000000000004
    vertex 1.9999999999999998 -18.209999999999987 -2.0000000000000004
    vertex 8.923259473478504 -13.556460946970418 -2.0000000000000004
  endloop
endfacet
facet normal 0.0 0.0 -1.0
  outer loop
    vertex 8.923259473478504 -13.556460946970418 -2.0000000000000004
    vertex 1.9999999999999998 -18.209999999999987 -2.0000000000000004
    vertex 8.850000000000001 -12.999999999999998 -2.0000000000000004
  endloop
endfacet
facet normal 0.0 0.0 -1.0
  outer loop
    vertex 8.850000000000001 -12.999999999999998 -2.0000000000000004
    vertex 1.9999999999999998 -18.209999999999987 -2.0000000000000004
    vertex 8.85 5.999999999999999 -2.0000000000000013
  endloop
endfacet
facet normal 0.0 0.0 -1.0
  outer loop
    vertex 9.138045381863456 -14.075 -2.0000000000000004
    vertex 8.923259473478504 -13.556460946970418 -2.0000000000000004
    vertex 9.051478673438956 -13.866009478471572 -2.0000000000000004
  endloop
endfacet
facet normal 0.0 0.0 -1.0
  outer loop
    vertex 20.0 -18.209999999999987 -2.0000000000000004
    vertex 10.44353905302958 -15.076740526521494 -2.0000000000000004
    vertex 11.0 -15.149999999999997 -2.0000000000000004
  endloop
endfacet
facet normal 0.0 0.0 -1.0
  outer loop
    vertex 20.0 -18.209999999999987 -2.0000000000000004
    vertex 11.0 -15.149999999999997 -2.0000000000000004
    vertex 11.556460946970422 -15.076740526521494 -2.0000000000000004
  endloop
endfacet
facet normal 0.0 0.0 -1.0
  outer loop
    vertex 20.0 -18.209999999999987 -2.0000000000000004
    vertex 11.556460946970422 -15.076740526521494 -2.0000000000000004
    vertex 12.075000000000001 -14.86195461813654 -2.0000000000000004
  endloop
endfacet
facet normal 0.0 0.0 -1.0
  outer loop
    vertex 20.0 -18.209999999999987 -2.0000000000000004
    vertex 12.075000000000001 -14.86195461813654 -2.0000000000000004
    vertex 12.520279579551078 -14.520279579551074 -2.0000000000000004
  endloop
endfacet
facet normal 0.0 0.0 -1.0
  outer loop
    vertex 20.0 -18.209999999999987 -2.0000000000000004
    vertex 12.520279579551078 -14.520279579551074 -2.0000000000000004
    vertex 12.861954618136544 -14.074999999999998 -2.0000000000000004
  endloop
endfacet
facet normal 0.0 0.0 -1.0
  outer loop
    vertex 20.0 -18.209999999999987 -2.0000000000000004
    vertex 12.861954618136544 -14.074999999999998 -2.0000000000000004
    vertex 12.94852132656104 -13.866009478471572 -2.0000000000000004
  endloop
endfacet
facet normal 0.0 0.0 -1.0
  outer loop
    vertex 20.0 -18.209999999999987 -2.0000000000000004
    vertex 12.94852132656104 -13.866009478471572 -2.0000000000000004
    vertex 13.076740526521496 -13.556460946970416 -2.0000000000000004
  endloop
endfacet
facet normal 0.0 0.0 -1.0
  outer loop
    vertex 20.0 -18.209999999999987 -2.0000000000000004
    vertex 13.076740526521496 -13.556460946970416 -2.0000000000000004
    vertex 13.149999999999999 -12.999999999999998 -2.0000000000000004
  endloop
endfacet
facet normal 0.0 0.0 -1.0
  outer loop
    vertex 20.0 -18.209999999999987 -2.0000000000000004
    vertex 13.149999999999999 -12.999999999999998 -2.0000000000000004
    vertex 20.0 11.200000000000003 -2.0000000000000004
  endloop
endfacet
facet normal 0.0 0.0 -1.0
  outer loop
    vertex 8.923259473478502 5.443539053029579 -2.0000000000000013
    vertex 8.850000000000001 -12.999999999999998 -2.0000000000000004
    vertex 8.85 5.999999999999999 -2.0000000000000013
  endloop
endfacet
facet normal 0.0 0.0 -1.0
  outer loop
    vertex 8.850000000000001 -12.999999999999998 -2.0000000000000004
    vertex 8.923259473478502 5.443539053029579 -2.0000000000000013
    vertex 8.923259473478504 -12.44353905302958 -2.0000000000000004
  endloop
endfacet
facet normal 0.0 0.0 -1.0
  outer loop
    vertex 8.923259473478504 -12.44353905302958 -2.0000000000000004
    vertex 8.923259473478502 5.443539053029579 -2.0000000000000013
    vertex 9.051478673438956 5.133990521528424 -2.0000000000000013
  endloop
endfacet
facet normal 0.0 0.0 -1.0
  outer loop
    vertex 8.923259473478504 -12.44353905302958 -2.0000000000000004
    vertex 9.051478673438956 5.133990521528424 -2.0000000000000013
    vertex 9.051478673438957 -12.133990521528425 -2.0000000000000004
  endloop
endfacet
facet normal 0.0 0.0 -1.0
  outer loop
    vertex 9.051478673438957 -12.133990521528425 -2.0000000000000004
    vertex 9.051478673438956 5.133990521528424 -2.0000000000000013
    vertex 9.138045381863456 4.924999999999999 -2.0000000000000013
  endloop
endfacet
facet normal 0.0 0.0 -1.0
  outer loop
    vertex 9.051478673438957 -12.133990521528425 -2.0000000000000004
    vertex 9.138045381863456 4.924999999999999 -2.0000000000000013
    vertex 9.138045381863456 -11.924999999999999 -2.0000000000000004
  endloop
endfacet
facet normal 0.0 0.0 -1.0
  outer loop
    vertex 9.138045381863456 -11.924999999999999 -2.0000000000000004
    vertex 9.138045381863456 4.924999999999999 -2.0000000000000013
    vertex 9.479720420448922 4.479720420448921 -2.0000000000000013
  endloop
endfacet
facet normal 0.0 0.0 -1.0
  outer loop
    vertex 9.138045381863456 -11.924999999999999 -2.0000000000000004
    vertex 9.479720420448922 4.479720420448921 -2.0000000000000013
    vertex 9.479720420448924 -11.479720420448922 -2.0000000000000004
  endloop
endfacet
facet normal 0.0 0.0 -1.0
  outer loop
    vertex 9.479720420448924 -11.479720420448922 -2.0000000000000004
    vertex 9.479720420448922 4.479720420448921 -2.0000000000000013
    vertex 9.925 4.138045381863455 -2.0000000000000013
  endloop
endfacet
facet normal 0.0 0.0 -1.0
  outer loop
    vertex 9.479720420448924 -11.479720420448922 -2.0000000000000004
    vertex 9.925 4.138045381863455 -2.0000000000000013
    vertex 9.924999999999999 -11.138045381863458 -2.0000000000000004
  endloop
endfacet
facet normal 0.0 0.0 -1.0
  outer loop
    vertex 9.924999999999999 -11.138045381863458 -2.0000000000000004
    vertex 9.925 4.138045381863455 -2.0000000000000013
    vertex 10.44353905302958 -10.923259473478502 -2.0000000000000004
  endloop
endfacet
facet normal 0.0 0.0 -1.0
  outer loop
    vertex 10.44353905302958 -10.923259473478502 -2.0000000000000004
    vertex 9.925 4.138045381863455 -2.0000000000000013
    vertex 10.44353905302958 3.9232594734785016 -2.0000000000000013
  endloop
endfacet
facet normal 0.0 0.0 -1.0
  outer loop
    vertex 10.44353905302958 -10.923259473478502 -2.0000000000000004
    vertex 10.44353905302958 3.9232594734785016 -2.0000000000000013
    vertex 11.0 3.8499999999999988 -2.0000000000000013
  endloop
endfacet
facet normal 0.0 0.0 -1.0
  outer loop
    vertex 10.44353905302958 -10.923259473478502 -2.0000000000000004
    vertex 11.0 3.8499999999999988 -2.0000000000000013
    vertex 11.0 -10.85 -2.0000000000000004
  endloop
endfacet
facet normal 0.0 0.0 -1.0
  outer loop
    vertex 11.0 -10.85 -2.0000000000000004
    vertex 11.0 3.8499999999999988 -2.0000000000000013
    vertex 11.556460946970422 3.9232594734785025 -2.0000000000000013
  endloop
endfacet
facet normal 0.0 0.0 -1.0
  outer loop
    vertex 11.0 -10.85 -2.0000000000000004
    vertex 11.556460946970422 3.9232594734785025 -2.0000000000000013
    vertex 11.556460946970418 -10.923259473478502 -2.0000000000000004
  endloop
endfacet
facet normal 0.0 0.0 -1.0
  outer loop
    vertex 11.556460946970418 -10.923259473478502 -2.0000000000000004
    vertex 11.556460946970422 3.9232594734785025 -2.0000000000000013
    vertex 12.075 -11.138045381863456 -2.0000000000000004
  endloop
endfacet
facet normal 0.0 0.0 -1.0
  outer loop
    vertex 12.075 -11.138045381863456 -2.0000000000000004
    vertex 11.556460946970422 3.9232594734785025 -2.0000000000000013
    vertex 12.075000000000001 4.138045381863456 -2.0000000000000013
  endloop
endfacet
facet normal 0.0 0.0 -1.0
  outer loop
    vertex 12.075 -11.138045381863456 -2.0000000000000004
    vertex 12.075000000000001 4.138045381863456 -2.0000000000000013
    vertex 12.520279579551076 -11.479720420448922 -2.0000000000000004
  endloop
endfacet
facet normal 0.0 0.0 -1.0
  outer loop
    vertex 12.520279579551076 -11.479720420448922 -2.0000000000000004
    vertex 12.075000000000001 4.138045381863456 -2.0000000000000013
    vertex 12.520279579551078 4.479720420448921 -2.0000000000000013
  endloop
endfacet
facet normal 0.0 0.0 -1.0
  outer loop
    vertex 12.520279579551076 -11.479720420448922 -2.0000000000000004
    vertex 12.520279579551078 4.479720420448921 -2.0000000000000013
    vertex 12.86195461813654 -11.924999999999997 -2.0000000000000004
  endloop
endfacet
facet normal 0.0 0.0 -1.0
  outer loop
    vertex 12.86195461813654 -11.924999999999997 -2.0000000000000004
    vertex 12.520279579551078 4.479720420448921 -2.0000000000000013
    vertex 12.861954618136544 4.925 -2.0000000000000013
  endloop
endfacet
facet normal 0.0 0.0 -1.0
  outer loop
    vertex 12.86195461813654 -11.924999999999997 -2.0000000000000004
    vertex 12.861954618136544 4.925 -2.0000000000000013
    vertex 12.948521326561044 -12.133990521528425 -2.0000000000000004
  endloop
endfacet
facet normal 0.0 0.0 -1.0
  outer loop
    vertex 12.948521326561044 -12.133990521528425 -2.0000000000000004
    vertex 12.861954618136544 4.925 -2.0000000000000013
    vertex 12.948521326561044 5.133990521528424 -2.0000000000000013
  endloop
endfacet
facet normal 0.0 0.0 -1.0
  outer loop
    vertex 12.948521326561044 -12.133990521528425 -2.0000000000000004
    vertex 12.948521326561044 5.133990521528424 -2.0000000000000013
    vertex 13.076740526521496 5.44353905302958 -2.0000000000000013
  endloop
endfacet
facet normal 0.0 0.0 -1.0
  outer loop
    vertex 12.948521326561044 -12.133990521528425 -2.0000000000000004
    vertex 13.076740526521496 5.44353905302958 -2.0000000000000013
    vertex 13.076740526521496 -12.443539053029577 -2.0000000000000004
  endloop
endfacet
facet normal 0.0 0.0 -1.0
  outer loop
    vertex 13.076740526521496 -12.443539053029577 -2.0000000000000004
    vertex 13.076740526521496 5.44353905302958 -2.0000000000000013
    vertex 13.149999999999999 6.0 -2.0000000000000013
  endloop
endfacet
facet normal 0.0 0.0 -1.0
  outer loop
    vertex 13.076740526521496 -12.443539053029577 -2.0000000000000004
    vertex 13.149999999999999 6.0 -2.0000000000000013
    vertex 13.149999999999999 -12.999999999999998 -2.0000000000000004
  endloop
endfacet
facet normal -0.9914448613738104 0.13052619222005182 -0.0
  outer loop
    vertex 13.149999999999999 -12.999999999999998 1.489999999999998
    vertex 13.076740526521496 -13.556460946970416 -2.0000000000000004
    vertex 13.076740526521496 -13.556460946970416 1.489999999999998
  endloop
endfacet
facet normal -0.9914448613738104 0.13052619222005182 -0.0
  outer loop
    vertex 13.076740526521496 -13.556460946970416 -2.0000000000000004
    vertex 13.149999999999999 -12.999999999999998 1.489999999999998
    vertex 13.149999999999999 -12.999999999999998 -2.0000000000000004
  endloop
endfacet
facet normal -0.9238795325112868 0.3826834323650896 -0.0
  outer loop
    vertex 13.076740526521496 -13.556460946970416 1.489999999999998
    vertex 12.94852132656104 -13.866009478471572 -2.0000000000000004
    vertex 12.94852132656104 -13.866009478471572 1.489999999999998
  endloop
endfacet
facet normal -0.9238795325112868 0.3826834323650896 -0.0
  outer loop
    vertex 12.94852132656104 -13.866009478471572 -2.0000000000000004
    vertex 13.076740526521496 -13.556460946970416 1.489999999999998
    vertex 13.076740526521496 -13.556460946970416 -2.0000000000000004
  endloop
endfacet
facet normal -0.9238795325112897 0.3826834323650826 -0.0
  outer loop
    vertex 12.94852132656104 -13.866009478471572 1.489999999999998
    vertex 12.861954618136544 -14.074999999999998 -2.0000000000000004
    vertex 12.861954618136544 -14.074999999999998 1.489999999999998
  endloop
endfacet
facet normal -0.9238795325112897 0.3826834323650826 -0.0
  outer loop
    vertex 12.861954618136544 -14.074999999999998 -2.0000000000000004
    vertex 12.94852132656104 -13.866009478471572 1.489999999999998
    vertex 12.94852132656104 -13.866009478471572 -2.0000000000000004
  endloop
endfacet
facet normal -0.7933533402912349 0.6087614290087209 -0.0
  outer loop
    vertex 12.861954618136544 -14.074999999999998 1.489999999999998
    vertex 12.520279579551078 -14.520279579551074 -2.0000000000000004
    vertex 12.520279579551078 -14.520279579551074 1.489999999999998
  endloop
endfacet
facet normal -0.7933533402912349 0.6087614290087209 -0.0
  outer loop
    vertex 12.520279579551078 -14.520279579551074 -2.0000000000000004
    vertex 12.861954618136544 -14.074999999999998 1.489999999999998
    vertex 12.861954618136544 -14.074999999999998 -2.0000000000000004
  endloop
endfacet
facet normal -0.6087614290087204 0.7933533402912353 -0.0
  outer loop
    vertex 12.075000000000001 -14.86195461813654 1.489999999999998
    vertex 12.520279579551078 -14.520279579551074 -2.0000000000000004
    vertex 12.075000000000001 -14.86195461813654 -2.0000000000000004
  endloop
endfacet
facet normal -0.6087614290087204 0.7933533402912353 -0.0
  outer loop
    vertex 12.520279579551078 -14.520279579551074 -2.0000000000000004
    vertex 12.075000000000001 -14.86195461813654 1.489999999999998
    vertex 12.520279579551078 -14.520279579551074 1.489999999999998
  endloop
endfacet
facet normal -0.38268343236509195 0.9238795325112859 -0.0
  outer loop
    vertex 11.556460946970422 -15.076740526521494 1.489999999999998
    vertex 12.075000000000001 -14.86195461813654 -2.0000000000000004
    vertex 11.556460946970422 -15.076740526521494 -2.0000000000000004
  endloop
endfacet
facet normal -0.38268343236509195 0.9238795325112859 -0.0
  outer loop
    vertex 12.075000000000001 -14.86195461813654 -2.0000000000000004
    vertex 11.556460946970422 -15.076740526521494 1.489999999999998
    vertex 12.075000000000001 -14.86195461813654 1.489999999999998
  endloop
endfacet
facet normal -0.13052619222005085 0.9914448613738106 -0.0
  outer loop
    vertex 11.0 -15.149999999999997 1.489999999999998
    vertex 11.556460946970422 -15.076740526521494 -2.0000000000000004
    vertex 11.0 -15.149999999999997 -2.0000000000000004
  endloop
endfacet
facet normal -0.13052619222005085 0.9914448613738106 -0.0
  outer loop
    vertex 11.556460946970422 -15.076740526521494 -2.0000000000000004
    vertex 11.0 -15.149999999999997 1.489999999999998
    vertex 11.556460946970422 -15.076740526521494 1.489999999999998
  endloop
endfacet
facet normal 0.13052619222005118 0.9914448613738106 0.0
  outer loop
    vertex 10.44353905302958 -15.076740526521494 1.489999999999998
    vertex 11.0 -15.149999999999997 -2.0000000000000004
    vertex 10.44353905302958 -15.076740526521494 -2.0000000000000004
  endloop
endfacet
facet normal 0.13052619222005118 0.9914448613738106 0.0
  outer loop
    vertex 11.0 -15.149999999999997 -2.0000000000000004
    vertex 10.44353905302958 -15.076740526521494 1.489999999999998
    vertex 11.0 -15.149999999999997 1.489999999999998
  endloop
endfacet
facet normal 0.38268343236509195 0.9238795325112859 0.0
  outer loop
    vertex 9.925 -14.86195461813654 1.489999999999998
    vertex 10.44353905302958 -15.076740526521494 -2.0000000000000004
    vertex 9.925 -14.86195461813654 -2.0000000000000004
  endloop
endfacet
facet normal 0.38268343236509195 0.9238795325112859 0.0
  outer loop
    vertex 10.44353905302958 -15.076740526521494 -2.0000000000000004
    vertex 9.925 -14.86195461813654 1.489999999999998
    vertex 10.44353905302958 -15.076740526521494 1.489999999999998
  endloop
endfacet
facet normal 0.6087614290087204 0.7933533402912353 0.0
  outer loop
    vertex 9.479720420448924 -14.520279579551074 1.489999999999998
    vertex 9.925 -14.86195461813654 -2.0000000000000004
    vertex 9.479720420448924 -14.520279579551074 -2.0000000000000004
  endloop
endfacet
facet normal 0.6087614290087204 0.7933533402912353 0.0
  outer loop
    vertex 9.925 -14.86195461813654 -2.0000000000000004
    vertex 9.479720420448924 -14.520279579551074 1.489999999999998
    vertex 9.925 -14.86195461813654 1.489999999999998
  endloop
endfacet
facet normal 0.7933533402912333 0.6087614290087233 0.0
  outer loop
    vertex 9.138045381863456 -14.075 -2.0000000000000004
    vertex 9.479720420448924 -14.520279579551074 1.489999999999998
    vertex 9.479720420448924 -14.520279579551074 -2.0000000000000004
  endloop
endfacet
facet normal 0.7933533402912333 0.6087614290087233 0.0
  outer loop
    vertex 9.479720420448924 -14.520279579551074 1.489999999999998
    vertex 9.138045381863456 -14.075 -2.0000000000000004
    vertex 9.138045381863456 -14.075 1.489999999999998
  endloop
endfacet
facet normal 0.9238795325112872 0.3826834323650889 0.0
  outer loop
    vertex 9.051478673438956 -13.866009478471572 -2.0000000000000004
    vertex 9.138045381863456 -14.075 1.489999999999998
    vertex 9.138045381863456 -14.075 -2.0000000000000004
  endloop
endfacet
facet normal 0.9238795325112872 0.3826834323650889 0.0
  outer loop
    vertex 9.138045381863456 -14.075 1.489999999999998
    vertex 9.051478673438956 -13.866009478471572 -2.0000000000000004
    vertex 9.051478673438956 -13.866009478471572 1.489999999999998
  endloop
endfacet
facet normal 0.9238795325112871 0.382683432365089 0.0
  outer loop
    vertex 8.923259473478504 -13.556460946970418 -2.0000000000000004
    vertex 9.051478673438956 -13.866009478471572 1.489999999999998
    vertex 9.051478673438956 -13.866009478471572 -2.0000000000000004
  endloop
endfacet
facet normal 0.9238795325112871 0.382683432365089 0.0
  outer loop
    vertex 9.051478673438956 -13.866009478471572 1.489999999999998
    vertex 8.923259473478504 -13.556460946970418 -2.0000000000000004
    vertex 8.923259473478504 -13.556460946970418 1.489999999999998
  endloop
endfacet
facet normal 0.9914448613738106 0.13052619222005118 0.0
  outer loop
    vertex 8.850000000000001 -12.999999999999998 -2.0000000000000004
    vertex 8.923259473478504 -13.556460946970418 1.489999999999998
    vertex 8.923259473478504 -13.556460946970418 -2.0000000000000004
  endloop
endfacet
facet normal 0.9914448613738106 0.13052619222005118 0.0
  outer loop
    vertex 8.923259473478504 -13.556460946970418 1.489999999999998
    vertex 8.850000000000001 -12.999999999999998 -2.0000000000000004
    vertex 8.850000000000001 -12.999999999999998 1.489999999999998
  endloop
endfacet
facet normal 0.9914448613738106 -0.13052619222005152 -0.0
  outer loop
    vertex 8.923259473478504 -12.44353905302958 -2.0000000000000004
    vertex 8.850000000000001 -12.999999999999998 1.489999999999998
    vertex 8.850000000000001 -12.999999999999998 -2.0000000000000004
  endloop
endfacet
facet normal 0.9914448613738106 -0.13052619222005152 -0.0
  outer loop
    vertex 8.850000000000001 -12.999999999999998 1.489999999999998
    vertex 8.923259473478504 -12.44353905302958 -2.0000000000000004
    vertex 8.923259473478504 -12.44353905302958 1.489999999999998
  endloop
endfacet
facet normal 0.9238795325112863 -0.3826834323650911 -0.0
  outer loop
    vertex 9.051478673438957 -12.133990521528425 -2.0000000000000004
    vertex 8.923259473478504 -12.44353905302958 1.489999999999998
    vertex 8.923259473478504 -12.44353905302958 -2.0000000000000004
  endloop
endfacet
facet normal 0.9238795325112863 -0.3826834323650911 -0.0
  outer loop
    vertex 8.923259473478504 -12.44353905302958 1.489999999999998
    vertex 9.051478673438957 -12.133990521528425 -2.0000000000000004
    vertex 9.051478673438957 -12.133990521528425 1.489999999999998
  endloop
endfacet
facet normal 0.9238795325112885 -0.38268343236508584 -0.0
  outer loop
    vertex 9.138045381863456 -11.924999999999999 -2.0000000000000004
    vertex 9.051478673438957 -12.133990521528425 1.489999999999998
    vertex 9.051478673438957 -12.133990521528425 -2.0000000000000004
  endloop
endfacet
facet normal 0.9238795325112885 -0.38268343236508584 -0.0
  outer loop
    vertex 9.051478673438957 -12.133990521528425 1.489999999999998
    vertex 9.138045381863456 -11.924999999999999 -2.0000000000000004
    vertex 9.138045381863456 -11.924999999999999 1.489999999999998
  endloop
endfacet
facet normal 0.7933533402912342 -0.6087614290087221 -0.0
  outer loop
    vertex 9.479720420448924 -11.479720420448922 -2.0000000000000004
    vertex 9.138045381863456 -11.924999999999999 1.489999999999998
    vertex 9.138045381863456 -11.924999999999999 -2.0000000000000004
  endloop
endfacet
facet normal 0.7933533402912342 -0.6087614290087221 -0.0
  outer loop
    vertex 9.138045381863456 -11.924999999999999 1.489999999999998
    vertex 9.479720420448924 -11.479720420448922 -2.0000000000000004
    vertex 9.479720420448924 -11.479720420448922 1.489999999999998
  endloop
endfacet
facet normal 0.6087614290087218 -0.7933533402912345 -0.0
  outer loop
    vertex 9.924999999999999 -11.138045381863458 1.489999999999998
    vertex 9.479720420448924 -11.479720420448922 -2.0000000000000004
    vertex 9.924999999999999 -11.138045381863458 -2.0000000000000004
  endloop
endfacet
facet normal 0.6087614290087218 -0.7933533402912345 -0.0
  outer loop
    vertex 9.479720420448924 -11.479720420448922 -2.0000000000000004
    vertex 9.924999999999999 -11.138045381863458 1.489999999999998
    vertex 9.479720420448924 -11.479720420448922 1.489999999999998
  endloop
endfacet
facet normal 0.38268343236509106 -0.9238795325112862 -0.0
  outer loop
    vertex 10.44353905302958 -10.923259473478502 1.489999999999998
    vertex 9.924999999999999 -11.138045381863458 -2.0000000000000004
    vertex 10.44353905302958 -10.923259473478502 -2.0000000000000004
  endloop
endfacet
facet normal 0.38268343236509106 -0.9238795325112862 -0.0
  outer loop
    vertex 9.924999999999999 -11.138045381863458 -2.0000000000000004
    vertex 10.44353905302958 -10.923259473478502 1.489999999999998
    vertex 9.924999999999999 -11.138045381863458 1.489999999999998
  endloop
endfacet
facet normal 0.13052619222005118 -0.9914448613738106 -0.0
  outer loop
    vertex 11.0 -10.85 1.489999999999998
    vertex 10.44353905302958 -10.923259473478502 -2.0000000000000004
    vertex 11.0 -10.85 -2.0000000000000004
  endloop
endfacet
facet normal 0.13052619222005118 -0.9914448613738106 -0.0
  outer loop
    vertex 10.44353905302958 -10.923259473478502 -2.0000000000000004
    vertex 11.0 -10.85 1.489999999999998
    vertex 10.44353905302958 -10.923259473478502 1.489999999999998
  endloop
endfacet
facet normal -0.13052619222005152 -0.9914448613738106 -0.0
  outer loop
    vertex 11.556460946970418 -10.923259473478502 1.489999999999998
    vertex 11.0 -10.85 -2.0000000000000004
    vertex 11.556460946970418 -10.923259473478502 -2.0000000000000004
  endloop
endfacet
facet normal -0.13052619222005152 -0.9914448613738106 -0.0
  outer loop
    vertex 11.0 -10.85 -2.0000000000000004
    vertex 11.556460946970418 -10.923259473478502 1.489999999999998
    vertex 11.0 -10.85 1.489999999999998
  endloop
endfacet
facet normal -0.38268343236508895 -0.9238795325112872 -0.0
  outer loop
    vertex 12.075 -11.138045381863456 1.489999999999998
    vertex 11.556460946970418 -10.923259473478502 -2.0000000000000004
    vertex 12.075 -11.138045381863456 -2.0000000000000004
  endloop
endfacet
facet normal -0.38268343236508895 -0.9238795325112872 -0.0
  outer loop
    vertex 11.556460946970418 -10.923259473478502 -2.0000000000000004
    vertex 12.075 -11.138045381863456 1.489999999999998
    vertex 11.556460946970418 -10.923259473478502 1.489999999999998
  endloop
endfacet
facet normal -0.6087614290087204 -0.7933533402912353 -0.0
  outer loop
    vertex 12.520279579551076 -11.479720420448922 1.489999999999998
    vertex 12.075 -11.138045381863456 -2.0000000000000004
    vertex 12.520279579551076 -11.479720420448922 -2.0000000000000004
  endloop
endfacet
facet normal -0.6087614290087204 -0.7933533402912353 -0.0
  outer loop
    vertex 12.075 -11.138045381863456 -2.0000000000000004
    vertex 12.520279579551076 -11.479720420448922 1.489999999999998
    vertex 12.075 -11.138045381863456 1.489999999999998
  endloop
endfacet
facet normal -0.7933533402912353 -0.6087614290087204 -0.0
  outer loop
    vertex 12.520279579551076 -11.479720420448922 1.489999999999998
    vertex 12.86195461813654 -11.924999999999997 -2.0000000000000004
    vertex 12.86195461813654 -11.924999999999997 1.489999999999998
  endloop
endfacet
facet normal -0.7933533402912353 -0.6087614290087204 -0.0
  outer loop
    vertex 12.86195461813654 -11.924999999999997 -2.0000000000000004
    vertex 12.520279579551076 -11.479720420448922 1.489999999999998
    vertex 12.520279579551076 -11.479720420448922 -2.0000000000000004
  endloop
endfacet
facet normal -0.9238795325112829 -0.38268343236509955 -0.0
  outer loop
    vertex 12.86195461813654 -11.924999999999997 1.489999999999998
    vertex 12.948521326561044 -12.133990521528425 -2.0000000000000004
    vertex 12.948521326561044 -12.133990521528425 1.489999999999998
  endloop
endfacet
facet normal -0.9238795325112829 -0.38268343236509955 -0.0
  outer loop
    vertex 12.948521326561044 -12.133990521528425 -2.0000000000000004
    vertex 12.86195461813654 -11.924999999999997 1.489999999999998
    vertex 12.86195461813654 -11.924999999999997 -2.0000000000000004
  endloop
endfacet
facet normal -0.923879532511288 -0.38268343236508684 -0.0
  outer loop
    vertex 12.948521326561044 -12.133990521528425 1.489999999999998
    vertex 13.076740526521496 -12.443539053029577 -2.0000000000000004
    vertex 13.076740526521496 -12.443539053029577 1.489999999999998
  endloop
endfacet
facet normal -0.923879532511288 -0.38268343236508684 -0.0
  outer loop
    vertex 13.076740526521496 -12.443539053029577 -2.0000000000000004
    vertex 12.948521326561044 -12.133990521528425 1.489999999999998
    vertex 12.948521326561044 -12.133990521528425 -2.0000000000000004
  endloop
endfacet
facet normal -0.9914448613738106 -0.13052619222005085 -0.0
  outer loop
    vertex 13.076740526521496 -12.443539053029577 1.489999999999998
    vertex 13.149999999999999 -12.999999999999998 -2.0000000000000004
    vertex 13.149999999999999 -12.999999999999998 1.489999999999998
  endloop
endfacet
facet normal -0.9914448613738106 -0.13052619222005085 -0.0
  outer loop
    vertex 13.149999999999999 -12.999999999999998 -2.0000000000000004
    vertex 13.076740526521496 -12.443539053029577 1.489999999999998
    vertex 13.076740526521496 -12.443539053029577 -2.0000000000000004
  endloop
endfacet
facet normal -0.9914448613738106 -0.13052619222005102 -0.0
  outer loop
    vertex 13.076740526521496 6.556460946970421 1.5
    vertex 13.149999999999999 6.0 -2.0000000000000013
    vertex 13.149999999999999 6.0 1.5
  endloop
endfacet
facet normal -0.9914448613738106 -0.13052619222005102 -0.0
  outer loop
    vertex 13.149999999999999 6.0 -2.0000000000000013
    vertex 13.076740526521496 6.556460946970421 1.5
    vertex 13.076740526521496 6.556460946970421 -2.0000000000000013
  endloop
endfacet
facet normal -0.9914448613738106 0.13052619222005135 -0.0
  outer loop
    vertex 13.149999999999999 6.0 1.5
    vertex 13.076740526521496 5.44353905302958 -2.0000000000000013
    vertex 13.076740526521496 5.44353905302958 1.5
  endloop
endfacet
facet normal -0.9914448613738106 0.13052619222005135 -0.0
  outer loop
    vertex 13.076740526521496 5.44353905302958 -2.0000000000000013
    vertex 13.149999999999999 6.0 1.5
    vertex 13.149999999999999 6.0 -2.0000000000000013
  endloop
endfacet
facet normal -0.9238795325112898 0.3826834323650824 -0.0
  outer loop
    vertex 13.076740526521496 5.44353905302958 1.5
    vertex 12.948521326561044 5.133990521528424 -2.0000000000000013
    vertex 12.948521326561044 5.133990521528424 1.5
  endloop
endfacet
facet normal -0.9238795325112898 0.3826834323650824 -0.0
  outer loop
    vertex 12.948521326561044 5.133990521528424 -2.0000000000000013
    vertex 13.076740526521496 5.44353905302958 1.5
    vertex 13.076740526521496 5.44353905302958 -2.0000000000000013
  endloop
endfacet
facet normal -0.923879532511285 0.38268343236509444 -0.0
  outer loop
    vertex 12.948521326561044 5.133990521528424 1.5
    vertex 12.861954618136544 4.925 -2.0000000000000013
    vertex 12.861954618136544 4.925 1.5
  endloop
endfacet
facet normal -0.923879532511285 0.38268343236509444 -0.0
  outer loop
    vertex 12.861954618136544 4.925 -2.0000000000000013
    vertex 12.948521326561044 5.133990521528424 1.5
    vertex 12.948521326561044 5.133990521528424 -2.0000000000000013
  endloop
endfacet
facet normal -0.7933533402912355 0.6087614290087203 -0.0
  outer loop
    vertex 12.861954618136544 4.925 1.5
    vertex 12.520279579551078 4.479720420448921 -2.0000000000000013
    vertex 12.520279579551078 4.479720420448921 1.5
  endloop
endfacet
facet normal -0.7933533402912355 0.6087614290087203 -0.0
  outer loop
    vertex 12.520279579551078 4.479720420448921 -2.0000000000000013
    vertex 12.861954618136544 4.925 1.5
    vertex 12.861954618136544 4.925 -2.0000000000000013
  endloop
endfacet
facet normal -0.6087614290087204 0.7933533402912353 -0.0
  outer loop
    vertex 12.075000000000001 4.138045381863456 1.5
    vertex 12.520279579551078 4.479720420448921 -2.0000000000000013
    vertex 12.075000000000001 4.138045381863456 -2.0000000000000013
  endloop
endfacet
facet normal -0.6087614290087204 0.7933533402912353 -0.0
  outer loop
    vertex 12.520279579551078 4.479720420448921 -2.0000000000000013
    vertex 12.075000000000001 4.138045381863456 1.5
    vertex 12.520279579551078 4.479720420448921 1.5
  endloop
endfacet
facet normal -0.3826834323650909 0.9238795325112863 -0.0
  outer loop
    vertex 11.556460946970422 3.9232594734785025 1.5
    vertex 12.075000000000001 4.138045381863456 -2.0000000000000013
    vertex 11.556460946970422 3.9232594734785025 -2.0000000000000013
  endloop
endfacet
facet normal -0.3826834323650909 0.9238795325112863 -0.0
  outer loop
    vertex 12.075000000000001 4.138045381863456 -2.0000000000000013
    vertex 11.556460946970422 3.9232594734785025 1.5
    vertex 12.075000000000001 4.138045381863456 1.5
  endloop
endfacet
facet normal -0.1305261922200521 0.9914448613738105 -0.0
  outer loop
    vertex 11.0 3.8499999999999988 1.5
    vertex 11.556460946970422 3.9232594734785025 -2.0000000000000013
    vertex 11.0 3.8499999999999988 -2.0000000000000013
  endloop
endfacet
facet normal -0.1305261922200521 0.9914448613738105 -0.0
  outer loop
    vertex 11.556460946970422 3.9232594734785025 -2.0000000000000013
    vertex 11.0 3.8499999999999988 1.5
    vertex 11.556460946970422 3.9232594734785025 1.5
  endloop
endfacet
facet normal 0.13052619222005118 0.9914448613738106 0.0
  outer loop
    vertex 10.44353905302958 3.9232594734785016 1.5
    vertex 11.0 3.8499999999999988 -2.0000000000000013
    vertex 10.44353905302958 3.9232594734785016 -2.0000000000000013
  endloop
endfacet
facet normal 0.13052619222005118 0.9914448613738106 0.0
  outer loop
    vertex 11.0 3.8499999999999988 -2.0000000000000013
    vertex 10.44353905302958 3.9232594734785016 1.5
    vertex 11.0 3.8499999999999988 1.5
  endloop
endfacet
facet normal 0.3826834323650898 0.9238795325112867 0.0
  outer loop
    vertex 9.925 4.138045381863455 1.5
    vertex 10.44353905302958 3.9232594734785016 -2.0000000000000013
    vertex 9.925 4.138045381863455 -2.0000000000000013
  endloop
endfacet
facet normal 0.3826834323650898 0.9238795325112867 0.0
  outer loop
    vertex 10.44353905302958 3.9232594734785016 -2.0000000000000013
    vertex 9.925 4.138045381863455 1.5
    vertex 10.44353905302958 3.9232594734785016 1.5
  endloop
endfacet
facet normal 0.6087614290087209 0.7933533402912349 0.0
  outer loop
    vertex 9.479720420448922 4.479720420448921 1.5
    vertex 9.925 4.138045381863455 -2.0000000000000013
    vertex 9.479720420448922 4.479720420448921 -2.0000000000000013
  endloop
endfacet
facet normal 0.6087614290087209 0.7933533402912349 0.0
  outer loop
    vertex 9.925 4.138045381863455 -2.0000000000000013
    vertex 9.479720420448922 4.479720420448921 1.5
    vertex 9.925 4.138045381863455 1.5
  endloop
endfacet
facet normal 0.7933533402912345 0.6087614290087214 0.0
  outer loop
    vertex 9.138045381863456 4.924999999999999 -2.0000000000000013
    vertex 9.479720420448922 4.479720420448921 1.5
    vertex 9.479720420448922 4.479720420448921 -2.0000000000000013
  endloop
endfacet
facet normal 0.7933533402912345 0.6087614290087214 0.0
  outer loop
    vertex 9.479720420448922 4.479720420448921 1.5
    vertex 9.138045381863456 4.924999999999999 -2.0000000000000013
    vertex 9.138045381863456 4.924999999999999 1.5
  endloop
endfacet
facet normal 0.923879532511288 0.38268343236508684 0.0
  outer loop
    vertex 9.051478673438956 5.133990521528424 -2.0000000000000013
    vertex 9.138045381863456 4.924999999999999 1.5
    vertex 9.138045381863456 4.924999999999999 -2.0000000000000013
  endloop
endfacet
facet normal 0.923879532511288 0.38268343236508684 0.0
  outer loop
    vertex 9.138045381863456 4.924999999999999 1.5
    vertex 9.051478673438956 5.133990521528424 -2.0000000000000013
    vertex 9.051478673438956 5.133990521528424 1.5
  endloop
endfacet
facet normal 0.9238795325112863 0.3826834323650911 0.0
  outer loop
    vertex 8.923259473478502 5.443539053029579 -2.0000000000000013
    vertex 9.051478673438956 5.133990521528424 1.5
    vertex 9.051478673438956 5.133990521528424 -2.0000000000000013
  endloop
endfacet
facet normal 0.9238795325112863 0.3826834323650911 0.0
  outer loop
    vertex 9.051478673438956 5.133990521528424 1.5
    vertex 8.923259473478502 5.443539053029579 -2.0000000000000013
    vertex 8.923259473478502 5.443539053029579 1.5
  endloop
endfacet
facet normal 0.9914448613738106 0.13052619222005118 0.0
  outer loop
    vertex 8.85 5.999999999999999 -2.0000000000000013
    vertex 8.923259473478502 5.443539053029579 1.5
    vertex 8.923259473478502 5.443539053029579 -2.0000000000000013
  endloop
endfacet
facet normal 0.9914448613738106 0.13052619222005118 0.0
  outer loop
    vertex 8.923259473478502 5.443539053029579 1.5
    vertex 8.85 5.999999999999999 -2.0000000000000013
    vertex 8.85 5.999999999999999 1.5
  endloop
endfacet
facet normal 0.9914448613738106 -0.13052619222005118 -0.0
  outer loop
    vertex 8.923259473478502 6.556460946970419 -2.0000000000000013
    vertex 8.85 5.999999999999999 1.5
    vertex 8.85 5.999999999999999 -2.0000000000000013
  endloop
endfacet
facet normal 0.9914448613738106 -0.13052619222005118 -0.0
  outer loop
    vertex 8.85 5.999999999999999 1.5
    vertex 8.923259473478502 6.556460946970419 -2.0000000000000013
    vertex 8.923259473478502 6.556460946970419 1.5
  endloop
endfacet
facet normal 0.9238795325112863 -0.3826834323650911 -0.0
  outer loop
    vertex 9.051478673438956 6.8660094784715735 -2.0000000000000013
    vertex 8.923259473478502 6.556460946970419 1.5
    vertex 8.923259473478502 6.556460946970419 -2.0000000000000013
  endloop
endfacet
facet normal 0.9238795325112863 -0.3826834323650911 -0.0
  outer loop
    vertex 8.923259473478502 6.556460946970419 1.5
    vertex 9.051478673438956 6.8660094784715735 -2.0000000000000013
    vertex 9.051478673438956 6.8660094784715735 1.5
  endloop
endfacet
facet normal 0.9238795325112875 -0.38268343236508795 -0.0
  outer loop
    vertex 9.138045381863456 7.074999999999998 -2.0000000000000013
    vertex 9.051478673438956 6.8660094784715735 1.5
    vertex 9.051478673438956 6.8660094784715735 -2.0000000000000013
  endloop
endfacet
facet normal 0.9238795325112875 -0.38268343236508795 -0.0
  outer loop
    vertex 9.051478673438956 6.8660094784715735 1.5
    vertex 9.138045381863456 7.074999999999998 -2.0000000000000013
    vertex 9.138045381863456 7.074999999999998 1.5
  endloop
endfacet
facet normal 0.7933533402912349 -0.6087614290087209 -0.0
  outer loop
    vertex 9.479720420448922 7.520279579551076 -2.0000000000000013
    vertex 9.138045381863456 7.074999999999998 1.5
    vertex 9.138045381863456 7.074999999999998 -2.0000000000000013
  endloop
endfacet
facet normal 0.7933533402912349 -0.6087614290087209 -0.0
  outer loop
    vertex 9.138045381863456 7.074999999999998 1.5
    vertex 9.479720420448922 7.520279579551076 -2.0000000000000013
    vertex 9.479720420448922 7.520279579551076 1.5
  endloop
endfacet
facet normal 0.6087614290087204 -0.7933533402912353 -0.0
  outer loop
    vertex 9.924999999999999 7.861954618136542 1.5
    vertex 9.479720420448922 7.520279579551076 -2.0000000000000013
    vertex 9.924999999999999 7.861954618136542 -2.0000000000000013
  endloop
endfacet
facet normal 0.6087614290087204 -0.7933533402912353 -0.0
  outer loop
    vertex 9.479720420448922 7.520279579551076 -2.0000000000000013
    vertex 9.924999999999999 7.861954618136542 1.5
    vertex 9.479720420448922 7.520279579551076 1.5
  endloop
endfacet
facet normal 0.38268343236509106 -0.9238795325112862 -0.0
  outer loop
    vertex 10.44353905302958 8.076740526521496 1.5
    vertex 9.924999999999999 7.861954618136542 -2.0000000000000013
    vertex 10.44353905302958 8.076740526521496 -2.0000000000000013
  endloop
endfacet
facet normal 0.38268343236509106 -0.9238795325112862 -0.0
  outer loop
    vertex 9.924999999999999 7.861954618136542 -2.0000000000000013
    vertex 10.44353905302958 8.076740526521496 1.5
    vertex 9.924999999999999 7.861954618136542 1.5
  endloop
endfacet
facet normal 0.13052619222005118 -0.9914448613738106 -0.0
  outer loop
    vertex 11.0 8.149999999999999 1.5
    vertex 10.44353905302958 8.076740526521496 -2.0000000000000013
    vertex 11.0 8.149999999999999 -2.0000000000000013
  endloop
endfacet
facet normal 0.13052619222005118 -0.9914448613738106 -0.0
  outer loop
    vertex 10.44353905302958 8.076740526521496 -2.0000000000000013
    vertex 11.0 8.149999999999999 1.5
    vertex 10.44353905302958 8.076740526521496 1.5
  endloop
endfacet
facet normal -0.13052619222005152 -0.9914448613738106 -0.0
  outer loop
    vertex 11.556460946970418 8.076740526521496 1.5
    vertex 11.0 8.149999999999999 -2.0000000000000013
    vertex 11.556460946970418 8.076740526521496 -2.0000000000000013
  endloop
endfacet
facet normal -0.13052619222005152 -0.9914448613738106 -0.0
  outer loop
    vertex 11.0 8.149999999999999 -2.0000000000000013
    vertex 11.556460946970418 8.076740526521496 1.5
    vertex 11.0 8.149999999999999 1.5
  endloop
endfacet
facet normal -0.38268343236508895 -0.9238795325112872 -0.0
  outer loop
    vertex 12.075 7.861954618136543 1.5
    vertex 11.556460946970418 8.076740526521496 -2.0000000000000013
    vertex 12.075 7.861954618136543 -2.0000000000000013
  endloop
endfacet
facet normal -0.38268343236508895 -0.9238795325112872 -0.0
  outer loop
    vertex 11.556460946970418 8.076740526521496 -2.0000000000000013
    vertex 12.075 7.861954618136543 1.5
    vertex 11.556460946970418 8.076740526521496 1.5
  endloop
endfacet
facet normal -0.6087614290087204 -0.7933533402912353 -0.0
  outer loop
    vertex 12.520279579551076 7.520279579551078 1.5
    vertex 12.075 7.861954618136543 -2.0000000000000013
    vertex 12.520279579551076 7.520279579551078 -2.0000000000000013
  endloop
endfacet
facet normal -0.6087614290087204 -0.7933533402912353 -0.0
  outer loop
    vertex 12.075 7.861954618136543 -2.0000000000000013
    vertex 12.520279579551076 7.520279579551078 1.5
    vertex 12.075 7.861954618136543 1.5
  endloop
endfacet
facet normal -0.7933533402912339 -0.6087614290087225 -0.0
  outer loop
    vertex 12.520279579551076 7.520279579551078 1.5
    vertex 12.861954618136544 7.074999999999999 -2.0000000000000013
    vertex 12.861954618136544 7.074999999999999 1.5
  endloop
endfacet
facet normal -0.7933533402912339 -0.6087614290087225 -0.0
  outer loop
    vertex 12.861954618136544 7.074999999999999 -2.0000000000000013
    vertex 12.520279579551076 7.520279579551078 1.5
    vertex 12.520279579551076 7.520279579551078 -2.0000000000000013
  endloop
endfacet
facet normal -0.9238795325112863 -0.3826834323650911 -0.0
  outer loop
    vertex 12.861954618136544 7.074999999999999 1.5
    vertex 12.948521326561044 6.8660094784715735 -2.0000000000000013
    vertex 12.948521326561044 6.8660094784715735 1.5
  endloop
endfacet
facet normal -0.9238795325112863 -0.3826834323650911 -0.0
  outer loop
    vertex 12.948521326561044 6.8660094784715735 -2.0000000000000013
    vertex 12.861954618136544 7.074999999999999 1.5
    vertex 12.861954618136544 7.074999999999999 -2.0000000000000013
  endloop
endfacet
facet normal -0.9238795325112887 -0.3826834323650854 -0.0
  outer loop
    vertex 12.948521326561044 6.8660094784715735 1.5
    vertex 13.076740526521496 6.556460946970421 -2.0000000000000013
    vertex 13.076740526521496 6.556460946970421 1.5
  endloop
endfacet
facet normal -0.9238795325112887 -0.3826834323650854 -0.0
  outer loop
    vertex 13.076740526521496 6.556460946970421 -2.0000000000000013
    vertex 12.948521326561044 6.8660094784715735 1.5
    vertex 12.948521326561044 6.8660094784715735 -2.0000000000000013
  endloop
endfacet
facet normal -1.2160401732246722e-09 0.9999999383424429 0.00035116251260146645
  outer loop
    vertex 2.000108537360363 11.199984139896733 3.49548806488957
    vertex 20.0 11.200000000000003 -2.0000000000000004
    vertex 1.9999999999999991 11.200000000000003 -2.0000000000000004
  endloop
endfacet
facet normal -1.2160401732246722e-09 0.9999999383424429 0.00035116251260146645
  outer loop
    vertex 20.0 11.200000000000003 -2.0000000000000004
    vertex 2.000108537360363 11.199984139896733 3.49548806488957
    vertex 8.000000000000004 11.196152422706632 3.4899999999999975
  endloop
endfacet
facet normal -1.2160401732246722e-09 0.9999999383424429 0.00035116251260146645
  outer loop
    vertex 7.999749336596635 11.195718259536992 4.48999987433509
    vertex 14.000000000000002 11.19615242270663 3.4899999999999975
    vertex 8.000000000000004 11.196152422706632 3.4899999999999975
  endloop
endfacet
facet normal -1.2160401732246722e-09 0.9999999383424429 0.00035116251260146645
  outer loop
    vertex 14.000000000000002 11.19615242270663 3.4899999999999975
    vertex 7.999749336596635 11.195718259536992 4.48999987433509
    vertex 13.999749336596635 11.195718259536989 4.48999987433509
  endloop
endfacet
facet normal -1.2160401732246722e-09 0.9999999383424429 0.00035116251260146645
  outer loop
    vertex 20.0 11.200000000000003 -2.0000000000000004
    vertex 14.000000000000002 11.19615242270663 3.4899999999999975
    vertex 20.000108537360358 11.199984139896733 3.49548806488957
  endloop
endfacet
facet normal -1.2160401732246722e-09 0.9999999383424429 0.00035116251260146645
  outer loop
    vertex 14.000000000000002 11.19615242270663 3.4899999999999975
    vertex 20.0 11.200000000000003 -2.0000000000000004
    vertex 8.000000000000004 11.196152422706632 3.4899999999999975
  endloop
endfacet
facet normal -1.0 -2.3809571079004593e-17 2.177690486860558e-17
  outer loop
    vertex 2.000108537360363 11.199984139896733 3.49548806488957
    vertex 1.9999999999999998 -18.209999999999987 1.4999999999999993
    vertex 2.0001085373603638 -18.21001586010325 3.49548806488957
  endloop
endfacet
facet normal -1.0 -2.3809571079004593e-17 2.177690486860558e-17
  outer loop
    vertex 1.9999999999999998 -18.209999999999987 1.4999999999999993
    vertex 2.000108537360363 11.199984139896733 3.49548806488957
    vertex 1.9999999999999998 -18.209999999999987 -2.0000000000000004
  endloop
endfacet
facet normal -1.0 -2.3809571079004593e-17 2.177690486860558e-17
  outer loop
    vertex 1.9999999999999998 -18.209999999999987 -2.0000000000000004
    vertex 2.000108537360363 11.199984139896733 3.49548806488957
    vertex 1.9999999999999991 11.200000000000003 -2.0000000000000004
  endloop
endfacet
facet normal -0.0 -0.0 1.0
  outer loop
    vertex 9.000000000000004 -16.464101615137757 1.489999999999998
    vertex 8.850000000000001 -12.999999999999998 1.489999999999998
    vertex 7.000000000000001 -12.999999999999998 1.489999999999998
  endloop
endfacet
facet normal -0.0 -0.0 1.0
  outer loop
    vertex 8.850000000000001 -12.999999999999998 1.489999999999998
    vertex 9.000000000000004 -16.464101615137757 1.489999999999998
    vertex 8.923259473478504 -13.556460946970418 1.489999999999998
  endloop
endfacet
facet normal -0.0 -0.0 1.0
  outer loop
    vertex 8.923259473478504 -13.556460946970418 1.489999999999998
    vertex 9.000000000000004 -16.464101615137757 1.489999999999998
    vertex 9.051478673438956 -13.866009478471572 1.489999999999998
  endloop
endfacet
facet normal -0.0 -0.0 1.0
  outer loop
    vertex 9.051478673438956 -13.866009478471572 1.489999999999998
    vertex 9.000000000000004 -16.464101615137757 1.489999999999998
    vertex 9.138045381863456 -14.075 1.489999999999998
  endloop
endfacet
facet normal -0.0 -0.0 1.0
  outer loop
    vertex 9.138045381863456 -14.075 1.489999999999998
    vertex 9.000000000000004 -16.464101615137757 1.489999999999998
    vertex 9.479720420448924 -14.520279579551074 1.489999999999998
  endloop
endfacet
facet normal -0.0 -0.0 1.0
  outer loop
    vertex 9.479720420448924 -14.520279579551074 1.489999999999998
    vertex 9.000000000000004 -16.464101615137757 1.489999999999998
    vertex 9.925 -14.86195461813654 1.489999999999998
  endloop
endfacet
facet normal -0.0 -0.0 1.0
  outer loop
    vertex 9.925 -14.86195461813654 1.489999999999998
    vertex 9.000000000000004 -16.464101615137757 1.489999999999998
    vertex 13.000000000000002 -16.464101615137753 1.489999999999998
  endloop
endfacet
facet normal -0.0 -0.0 1.0
  outer loop
    vertex 9.925 -14.86195461813654 1.489999999999998
    vertex 13.000000000000002 -16.464101615137753 1.489999999999998
    vertex 10.44353905302958 -15.076740526521494 1.489999999999998
  endloop
endfacet
facet normal -0.0 -0.0 1.0
  outer loop
    vertex 10.44353905302958 -15.076740526521494 1.489999999999998
    vertex 13.000000000000002 -16.464101615137753 1.489999999999998
    vertex 11.0 -15.149999999999997 1.489999999999998
  endloop
endfacet
facet normal -0.0 -0.0 1.0
  outer loop
    vertex 11.0 -15.149999999999997 1.489999999999998
    vertex 13.000000000000002 -16.464101615137753 1.489999999999998
    vertex 11.556460946970422 -15.076740526521494 1.489999999999998
  endloop
endfacet
facet normal -0.0 -0.0 1.0
  outer loop
    vertex 11.556460946970422 -15.076740526521494 1.489999999999998
    vertex 13.000000000000002 -16.464101615137753 1.489999999999998
    vertex 12.075000000000001 -14.86195461813654 1.489999999999998
  endloop
endfacet
facet normal -0.0 -0.0 1.0
  outer loop
    vertex 12.075000000000001 -14.86195461813654 1.489999999999998
    vertex 13.000000000000002 -16.464101615137753 1.489999999999998
    vertex 12.520279579551078 -14.520279579551074 1.489999999999998
  endloop
endfacet
facet normal -0.0 -0.0 1.0
  outer loop
    vertex 12.520279579551078 -14.520279579551074 1.489999999999998
    vertex 13.000000000000002 -16.464101615137753 1.489999999999998
    vertex 12.861954618136544 -14.074999999999998 1.489999999999998
  endloop
endfacet
facet normal -0.0 -0.0 1.0
  outer loop
    vertex 12.861954618136544 -14.074999999999998 1.489999999999998
    vertex 13.000000000000002 -16.464101615137753 1.489999999999998
    vertex 12.94852132656104 -13.866009478471572 1.489999999999998
  endloop
endfacet
facet normal -0.0 -0.0 1.0
  outer loop
    vertex 12.94852132656104 -13.866009478471572 1.489999999999998
    vertex 13.000000000000002 -16.464101615137753 1.489999999999998
    vertex 13.076740526521496 -13.556460946970416 1.489999999999998
  endloop
endfacet
facet normal -0.0 -0.0 1.0
  outer loop
    vertex 13.076740526521496 -13.556460946970416 1.489999999999998
    vertex 13.000000000000002 -16.464101615137753 1.489999999999998
    vertex 14.999999999999998 -12.999999999999998 1.489999999999998
  endloop
endfacet
facet normal -0.0 -0.0 1.0
  outer loop
    vertex 13.076740526521496 -13.556460946970416 1.489999999999998
    vertex 14.999999999999998 -12.999999999999998 1.489999999999998
    vertex 13.149999999999999 -12.999999999999998 1.489999999999998
  endloop
endfacet
facet normal -0.0 -0.0 1.0
  outer loop
    vertex 8.850000000000001 -12.999999999999998 1.489999999999998
    vertex 9.0 -9.535898384862245 1.489999999999998
    vertex 7.000000000000001 -12.999999999999998 1.489999999999998
  endloop
endfacet
facet normal -0.0 -0.0 1.0
  outer loop
    vertex 9.0 -9.535898384862245 1.489999999999998
    vertex 8.850000000000001 -12.999999999999998 1.489999999999998
    vertex 8.923259473478504 -12.44353905302958 1.489999999999998
  endloop
endfacet
facet normal -0.0 -0.0 1.0
  outer loop
    vertex 9.0 -9.535898384862245 1.489999999999998
    vertex 8.923259473478504 -12.44353905302958 1.489999999999998
    vertex 9.051478673438957 -12.133990521528425 1.489999999999998
  endloop
endfacet
facet normal -0.0 -0.0 1.0
  outer loop
    vertex 9.0 -9.535898384862245 1.489999999999998
    vertex 9.051478673438957 -12.133990521528425 1.489999999999998
    vertex 9.138045381863456 -11.924999999999999 1.489999999999998
  endloop
endfacet
facet normal -0.0 -0.0 1.0
  outer loop
    vertex 9.0 -9.535898384862245 1.489999999999998
    vertex 9.138045381863456 -11.924999999999999 1.489999999999998
    vertex 9.479720420448924 -11.479720420448922 1.489999999999998
  endloop
endfacet
facet normal -0.0 -0.0 1.0
  outer loop
    vertex 9.0 -9.535898384862245 1.489999999999998
    vertex 9.479720420448924 -11.479720420448922 1.489999999999998
    vertex 9.924999999999999 -11.138045381863458 1.489999999999998
  endloop
endfacet
facet normal -0.0 -0.0 1.0
  outer loop
    vertex 9.0 -9.535898384862245 1.489999999999998
    vertex 9.924999999999999 -11.138045381863458 1.489999999999998
    vertex 12.999999999999998 -9.535898384862245 1.489999999999998
  endloop
endfacet
facet normal -0.0 -0.0 1.0
  outer loop
    vertex 12.999999999999998 -9.535898384862245 1.489999999999998
    vertex 9.924999999999999 -11.138045381863458 1.489999999999998
    vertex 10.44353905302958 -10.923259473478502 1.489999999999998
  endloop
endfacet
facet normal -0.0 -0.0 1.0
  outer loop
    vertex 12.999999999999998 -9.535898384862245 1.489999999999998
    vertex 10.44353905302958 -10.923259473478502 1.489999999999998
    vertex 11.0 -10.85 1.489999999999998
  endloop
endfacet
facet normal -0.0 -0.0 1.0
  outer loop
    vertex 12.999999999999998 -9.535898384862245 1.489999999999998
    vertex 11.0 -10.85 1.489999999999998
    vertex 11.556460946970418 -10.923259473478502 1.489999999999998
  endloop
endfacet
facet normal -0.0 -0.0 1.0
  outer loop
    vertex 12.999999999999998 -9.535898384862245 1.489999999999998
    vertex 11.556460946970418 -10.923259473478502 1.489999999999998
    vertex 12.075 -11.138045381863456 1.489999999999998
  endloop
endfacet
facet normal -0.0 -0.0 1.0
  outer loop
    vertex 12.999999999999998 -9.535898384862245 1.489999999999998
    vertex 12.075 -11.138045381863456 1.489999999999998
    vertex 12.520279579551076 -11.479720420448922 1.489999999999998
  endloop
endfacet
facet normal -0.0 -0.0 1.0
  outer loop
    vertex 12.999999999999998 -9.535898384862245 1.489999999999998
    vertex 12.520279579551076 -11.479720420448922 1.489999999999998
    vertex 12.86195461813654 -11.924999999999997 1.489999999999998
  endloop
endfacet
facet normal -0.0 -0.0 1.0
  outer loop
    vertex 12.999999999999998 -9.535898384862245 1.489999999999998
    vertex 12.86195461813654 -11.924999999999997 1.489999999999998
    vertex 12.948521326561044 -12.133990521528425 1.489999999999998
  endloop
endfacet
facet normal -0.0 -0.0 1.0
  outer loop
    vertex 12.999999999999998 -9.535898384862245 1.489999999999998
    vertex 12.948521326561044 -12.133990521528425 1.489999999999998
    vertex 13.076740526521496 -12.443539053029577 1.489999999999998
  endloop
endfacet
facet normal -0.0 -0.0 1.0
  outer loop
    vertex 12.999999999999998 -9.535898384862245 1.489999999999998
    vertex 13.076740526521496 -12.443539053029577 1.489999999999998
    vertex 14.999999999999998 -12.999999999999998 1.489999999999998
  endloop
endfacet
facet normal -0.0 -0.0 1.0
  outer loop
    vertex 14.999999999999998 -12.999999999999998 1.489999999999998
    vertex 13.076740526521496 -12.443539053029577 1.489999999999998
    vertex 13.149999999999999 -12.999999999999998 1.489999999999998
  endloop
endfacet
facet normal -0.0 -0.0 1.0
  outer loop
    vertex 9.000000000000004 2.535898384862243 1.5
    vertex 8.85 5.999999999999999 1.5
    vertex 7.000000000000001 5.999999999999999 1.5
  endloop
endfacet
facet normal -0.0 -0.0 1.0
  outer loop
    vertex 8.85 5.999999999999999 1.5
    vertex 9.000000000000004 2.535898384862243 1.5
    vertex 8.923259473478502 5.443539053029579 1.5
  endloop
endfacet
facet normal -0.0 -0.0 1.0
  outer loop
    vertex 8.923259473478502 5.443539053029579 1.5
    vertex 9.000000000000004 2.535898384862243 1.5
    vertex 9.051478673438956 5.133990521528424 1.5
  endloop
endfacet
facet normal -0.0 -0.0 1.0
  outer loop
    vertex 9.051478673438956 5.133990521528424 1.5
    vertex 9.000000000000004 2.535898384862243 1.5
    vertex 9.138045381863456 4.924999999999999 1.5
  endloop
endfacet
facet normal -0.0 -0.0 1.0
  outer loop
    vertex 9.138045381863456 4.924999999999999 1.5
    vertex 9.000000000000004 2.535898384862243 1.5
    vertex 9.479720420448922 4.479720420448921 1.5
  endloop
endfacet
facet normal -0.0 -0.0 1.0
  outer loop
    vertex 9.479720420448922 4.479720420448921 1.5
    vertex 9.000000000000004 2.535898384862243 1.5
    vertex 9.925 4.138045381863455 1.5
  endloop
endfacet
facet normal -0.0 -0.0 1.0
  outer loop
    vertex 9.925 4.138045381863455 1.5
    vertex 9.000000000000004 2.535898384862243 1.5
    vertex 13.000000000000002 2.5358983848622456 1.5
  endloop
endfacet
facet normal -0.0 -0.0 1.0
  outer loop
    vertex 9.925 4.138045381863455 1.5
    vertex 13.000000000000002 2.5358983848622456 1.5
    vertex 10.44353905302958 3.9232594734785016 1.5
  endloop
endfacet
facet normal -0.0 -0.0 1.0
  outer loop
    vertex 10.44353905302958 3.9232594734785016 1.5
    vertex 13.000000000000002 2.5358983848622456 1.5
    vertex 11.0 3.8499999999999988 1.5
  endloop
endfacet
facet normal -0.0 -0.0 1.0
  outer loop
    vertex 11.0 3.8499999999999988 1.5
    vertex 13.000000000000002 2.5358983848622456 1.5
    vertex 11.556460946970422 3.9232594734785025 1.5
  endloop
endfacet
facet normal -0.0 -0.0 1.0
  outer loop
    vertex 11.556460946970422 3.9232594734785025 1.5
    vertex 13.000000000000002 2.5358983848622456 1.5
    vertex 12.075000000000001 4.138045381863456 1.5
  endloop
endfacet
facet normal -0.0 -0.0 1.0
  outer loop
    vertex 12.075000000000001 4.138045381863456 1.5
    vertex 13.000000000000002 2.5358983848622456 1.5
    vertex 12.520279579551078 4.479720420448921 1.5
  endloop
endfacet
facet normal -0.0 -0.0 1.0
  outer loop
    vertex 12.520279579551078 4.479720420448921 1.5
    vertex 13.000000000000002 2.5358983848622456 1.5
    vertex 12.861954618136544 4.925 1.5
  endloop
endfacet
facet normal -0.0 -0.0 1.0
  outer loop
    vertex 12.861954618136544 4.925 1.5
    vertex 13.000000000000002 2.5358983848622456 1.5
    vertex 12.948521326561044 5.133990521528424 1.5
  endloop
endfacet
facet normal -0.0 -0.0 1.0
  outer loop
    vertex 12.948521326561044 5.133990521528424 1.5
    vertex 13.000000000000002 2.5358983848622456 1.5
    vertex 13.076740526521496 5.44353905302958 1.5
  endloop
endfacet
facet normal -0.0 -0.0 1.0
  outer loop
    vertex 13.076740526521496 5.44353905302958 1.5
    vertex 13.000000000000002 2.5358983848622456 1.5
    vertex 14.999999999999998 6.0 1.5
  endloop
endfacet
facet normal -0.0 -0.0 1.0
  outer loop
    vertex 13.076740526521496 5.44353905302958 1.5
    vertex 14.999999999999998 6.0 1.5
    vertex 13.149999999999999 6.0 1.5
  endloop
endfacet
facet normal -0.0 -0.0 1.0
  outer loop
    vertex 8.85 5.999999999999999 1.5
    vertex 9.0 9.464101615137753 1.5
    vertex 7.000000000000001 5.999999999999999 1.5
  endloop
endfacet
facet normal -0.0 -0.0 1.0
  outer loop
    vertex 9.0 9.464101615137753 1.5
    vertex 8.85 5.999999999999999 1.5
    vertex 8.923259473478502 6.556460946970419 1.5
  endloop
endfacet
facet normal -0.0 -0.0 1.0
  outer loop
    vertex 9.0 9.464101615137753 1.5
    vertex 8.923259473478502 6.556460946970419 1.5
    vertex 9.051478673438956 6.8660094784715735 1.5
  endloop
endfacet
facet normal -0.0 -0.0 1.0
  outer loop
    vertex 9.0 9.464101615137753 1.5
    vertex 9.051478673438956 6.8660094784715735 1.5
    vertex 9.138045381863456 7.074999999999998 1.5
  endloop
endfacet
facet normal -0.0 -0.0 1.0
  outer loop
    vertex 9.0 9.464101615137753 1.5
    vertex 9.138045381863456 7.074999999999998 1.5
    vertex 9.479720420448922 7.520279579551076 1.5
  endloop
endfacet
facet normal -0.0 -0.0 1.0
  outer loop
    vertex 9.0 9.464101615137753 1.5
    vertex 9.479720420448922 7.520279579551076 1.5
    vertex 9.924999999999999 7.861954618136542 1.5
  endloop
endfacet
facet normal -0.0 -0.0 1.0
  outer loop
    vertex 9.0 9.464101615137753 1.5
    vertex 9.924999999999999 7.861954618136542 1.5
    vertex 12.999999999999998 9.464101615137753 1.5
  endloop
endfacet
facet normal -0.0 -0.0 1.0
  outer loop
    vertex 12.999999999999998 9.464101615137753 1.5
    vertex 9.924999999999999 7.861954618136542 1.5
    vertex 10.44353905302958 8.076740526521496 1.5
  endloop
endfacet
facet normal -0.0 -0.0 1.0
  outer loop
    vertex 12.999999999999998 9.464101615137753 1.5
    vertex 10.44353905302958 8.076740526521496 1.5
    vertex 11.0 8.149999999999999 1.5
  endloop
endfacet
facet normal -0.0 -0.0 1.0
  outer loop
    vertex 12.999999999999998 9.464101615137753 1.5
    vertex 11.0 8.149999999999999 1.5
    vertex 11.556460946970418 8.076740526521496 1.5
  endloop
endfacet
facet normal -0.0 -0.0 1.0
  outer loop
    vertex 12.999999999999998 9.464101615137753 1.5
    vertex 11.556460946970418 8.076740526521496 1.5
    vertex 12.075 7.861954618136543 1.5
  endloop
endfacet
facet normal -0.0 -0.0 1.0
  outer loop
    vertex 12.999999999999998 9.464101615137753 1.5
    vertex 12.075 7.861954618136543 1.5
    vertex 12.520279579551076 7.520279579551078 1.5
  endloop
endfacet
facet normal -0.0 -0.0 1.0
  outer loop
    vertex 12.999999999999998 9.464101615137753 1.5
    vertex 12.520279579551076 7.520279579551078 1.5
    vertex 12.861954618136544 7.074999999999999 1.5
  endloop
endfacet
facet normal -0.0 -0.0 1.0
  outer loop
    vertex 12.999999999999998 9.464101615137753 1.5
    vertex 12.861954618136544 7.074999999999999 1.5
    vertex 12.948521326561044 6.8660094784715735 1.5
  endloop
endfacet
facet normal -0.0 -0.0 1.0
  outer loop
    vertex 12.999999999999998 9.464101615137753 1.5
    vertex 12.948521326561044 6.8660094784715735 1.5
    vertex 13.076740526521496 6.556460946970421 1.5
  endloop
endfacet
facet normal -0.0 -0.0 1.0
  outer loop
    vertex 12.999999999999998 9.464101615137753 1.5
    vertex 13.076740526521496 6.556460946970421 1.5
    vertex 14.999999999999998 6.0 1.5
  endloop
endfacet
facet normal -0.0 -0.0 1.0
  outer loop
    vertex 14.999999999999998 6.0 1.5
    vertex 13.076740526521496 6.556460946970421 1.5
    vertex 13.149999999999999 6.0 1.5
  endloop
endfacet
facet normal -0.8660254037844392 0.4999999999999995 0.0
  outer loop
    vertex 14.999749336596631 5.999565836830358 4.499999874335092
    vertex 13.000000000000002 2.5358983848622456 1.5
    vertex 12.999749336596635 2.535464221692605 4.499999874335092
  endloop
endfacet
facet normal -0.8660254037844392 0.4999999999999995 0.0
  outer loop
    vertex 13.000000000000002 2.5358983848622456 1.5
    vertex 14.999749336596631 5.999565836830358 4.499999874335092
    vertex 14.999999999999998 6.0 1.5
  endloop
endfacet
facet normal -7.049916206369747e-16 1.0 0.0
  outer loop
    vertex 8.999749336596635 2.535464221692602 4.499999874335092
    vertex 13.000000000000002 2.5358983848622456 1.5
    vertex 9.000000000000004 2.535898384862243 1.5
  endloop
endfacet
facet normal -7.049916206369747e-16 1.0 0.0
  outer loop
    vertex 13.000000000000002 2.5358983848622456 1.5
    vertex 8.999749336596635 2.535464221692602 4.499999874335092
    vertex 12.999749336596635 2.535464221692605 4.499999874335092
  endloop
endfacet
facet normal 0.8660254037844386 0.5000000000000002 0.0
  outer loop
    vertex 9.000000000000004 2.535898384862243 1.5
    vertex 6.999749336596633 5.9995658368303575 4.499999874335092
    vertex 8.999749336596635 2.535464221692602 4.499999874335092
  endloop
endfacet
facet normal 0.8660254037844386 0.5000000000000002 0.0
  outer loop
    vertex 6.999749336596633 5.9995658368303575 4.499999874335092
    vertex 9.000000000000004 2.535898384862243 1.5
    vertex 7.000000000000001 5.999999999999999 1.5
  endloop
endfacet
facet normal 0.8660254037844387 -0.49999999999999994 0.0
  outer loop
    vertex 7.000000000000001 5.999999999999999 1.5
    vertex 8.999749336596631 9.463667451968112 4.499999874335092
    vertex 6.999749336596633 5.9995658368303575 4.499999874335092
  endloop
endfacet
facet normal 0.8660254037844387 -0.49999999999999994 0.0
  outer loop
    vertex 8.999749336596631 9.463667451968112 4.499999874335092
    vertex 7.000000000000001 5.999999999999999 1.5
    vertex 9.0 9.464101615137753 1.5
  endloop
endfacet
facet normal 3.5249581031848733e-16 -1.0 0.0
  outer loop
    vertex 12.999749336596631 9.463667451968114 4.499999874335092
    vertex 9.0 9.464101615137753 1.5
    vertex 12.999999999999998 9.464101615137753 1.5
  endloop
endfacet
facet normal 3.5249581031848733e-16 -1.0 0.0
  outer loop
    vertex 9.0 9.464101615137753 1.5
    vertex 12.999749336596631 9.463667451968114 4.499999874335092
    vertex 8.999749336596631 9.463667451968112 4.499999874335092
  endloop
endfacet
facet normal -0.8660254037844388 -0.4999999999999999 -0.0
  outer loop
    vertex 12.999749336596631 9.463667451968114 4.499999874335092
    vertex 14.999999999999998 6.0 1.5
    vertex 14.999749336596631 5.999565836830358 4.499999874335092
  endloop
endfacet
facet normal -0.8660254037844388 -0.4999999999999999 -0.0
  outer loop
    vertex 14.999999999999998 6.0 1.5
    vertex 12.999749336596631 9.463667451968114 4.499999874335092
    vertex 12.999999999999998 9.464101615137753 1.5
  endloop
endfacet
facet normal -1.3231660960470935e-06 -0.9999999999912641 -3.964979840228962e-06
  outer loop
    vertex 14.000108537360354 -18.196168282809893 3.4854880648895685
    vertex 7.999999999999999 -18.196152422706632 1.489999999999998
    vertex 13.999999999999996 -18.196152422706632 1.489999999999998
  endloop
endfacet
facet normal -1.3231660960470935e-06 -0.9999999999912641 -3.964979840228962e-06
  outer loop
    vertex 7.999999999999999 -18.196152422706632 1.489999999999998
    vertex 14.000108537360354 -18.196168282809893 3.4854880648895685
    vertex 7.999999999999999 -18.196152422706632 3.4899999999999975
  endloop
endfacet
facet normal -1.3231660960470935e-06 -0.9999999999912641 -3.964979840228962e-06
  outer loop
    vertex 7.999999999999999 -18.196152422706632 3.4899999999999975
    vertex 14.000108537360354 -18.196168282809893 3.4854880648895685
    vertex 13.999983210085636 -18.196385364533693 4.485488033473867
  endloop
endfacet
facet normal -1.3231660960470935e-06 -0.9999999999912641 -3.964979840228962e-06
  outer loop
    vertex 7.999999999999999 -18.196152422706632 3.4899999999999975
    vertex 13.999983210085636 -18.196385364533693 4.485488033473867
    vertex 7.999874672725281 -18.196369504430432 4.489999968584296
  endloop
endfacet
facet normal -7.049916206369747e-16 1.0 0.0
  outer loop
    vertex 8.999874672725285 -16.464318696861554 4.489999968584296
    vertex 13.000000000000002 -16.464101615137753 1.489999999999998
    vertex 9.000000000000004 -16.464101615137757 1.489999999999998
  endloop
endfacet
facet normal -7.049916206369747e-16 1.0 0.0
  outer loop
    vertex 13.000000000000002 -16.464101615137753 1.489999999999998
    vertex 8.999874672725285 -16.464318696861554 4.489999968584296
    vertex 12.999874672725284 -16.464318696861554 4.489999968584296
  endloop
endfacet
facet normal 0.8660254037844386 0.5000000000000001 0.0
  outer loop
    vertex 9.000000000000004 -16.464101615137757 1.489999999999998
    vertex 6.999874672725283 -13.000217081723799 4.489999968584296
    vertex 8.999874672725285 -16.464318696861554 4.489999968584296
  endloop
endfacet
facet normal 0.8660254037844386 0.5000000000000001 0.0
  outer loop
    vertex 6.999874672725283 -13.000217081723799 4.489999968584296
    vertex 9.000000000000004 -16.464101615137757 1.489999999999998
    vertex 7.000000000000001 -12.999999999999998 1.489999999999998
  endloop
endfacet
facet normal 0.8660254037844387 -0.49999999999999994 0.0
  outer loop
    vertex 7.000000000000001 -12.999999999999998 1.489999999999998
    vertex 8.999874672725282 -9.536115466586043 4.489999968584296
    vertex 6.999874672725283 -13.000217081723799 4.489999968584296
  endloop
endfacet
facet normal 0.8660254037844387 -0.49999999999999994 0.0
  outer loop
    vertex 8.999874672725282 -9.536115466586043 4.489999968584296
    vertex 7.000000000000001 -12.999999999999998 1.489999999999998
    vertex 9.0 -9.535898384862245 1.489999999999998
  endloop
endfacet
facet normal 0.0 -1.0 0.0
  outer loop
    vertex 12.99987467272528 -9.536115466586043 4.489999968584296
    vertex 9.0 -9.535898384862245 1.489999999999998
    vertex 12.999999999999998 -9.535898384862245 1.489999999999998
  endloop
endfacet
facet normal 0.0 -1.0 0.0
  outer loop
    vertex 9.0 -9.535898384862245 1.489999999999998
    vertex 12.99987467272528 -9.536115466586043 4.489999968584296
    vertex 8.999874672725282 -9.536115466586043 4.489999968584296
  endloop
endfacet
facet normal -0.8660254037844387 -0.49999999999999994 -0.0
  outer loop
    vertex 12.99987467272528 -9.536115466586043 4.489999968584296
    vertex 14.999999999999998 -12.999999999999998 1.489999999999998
    vertex 14.99987467272528 -13.000217081723799 4.489999968584296
  endloop
endfacet
facet normal -0.8660254037844387 -0.49999999999999994 -0.0
  outer loop
    vertex 14.999999999999998 -12.999999999999998 1.489999999999998
    vertex 12.99987467272528 -9.536115466586043 4.489999968584296
    vertex 12.999999999999998 -9.535898384862245 1.489999999999998
  endloop
endfacet
facet normal -0.8660254037844392 0.4999999999999995 0.0
  outer loop
    vertex 14.99987467272528 -13.000217081723799 4.489999968584296
    vertex 13.000000000000002 -16.464101615137753 1.489999999999998
    vertex 12.999874672725284 -16.464318696861554 4.489999968584296
  endloop
endfacet
facet normal -0.8660254037844392 0.4999999999999995 0.0
  outer loop
    vertex 13.000000000000002 -16.464101615137753 1.489999999999998
    vertex 14.99987467272528 -13.000217081723799 4.489999968584296
    vertex 14.999999999999998 -12.999999999999998 1.489999999999998
  endloop
endfacet
facet normal -2.5311732249641134e-20 -0.9999980545468532 0.0019725370742087324
  outer loop
    vertex 20.0 -18.209999999999987 1.4999999999999993
    vertex 1.9999999999999998 -18.209999999999987 -2.0000000000000004
    vertex 20.0 -18.209999999999987 -2.0000000000000004
  endloop
endfacet
facet normal -2.5311732249641134e-20 -0.9999980545468532 0.0019725370742087324
  outer loop
    vertex 1.9999999999999998 -18.209999999999987 -2.0000000000000004
    vertex 20.0 -18.209999999999987 1.4999999999999993
    vertex 13.999999999999996 -18.196152422706632 1.489999999999998
  endloop
endfacet
facet normal -2.5311732249641134e-20 -0.9999980545468532 0.0019725370742087324
  outer loop
    vertex 1.9999999999999998 -18.209999999999987 -2.0000000000000004
    vertex 7.999999999999999 -18.196152422706632 1.489999999999998
    vertex 1.9999999999999998 -18.209999999999987 1.4999999999999993
  endloop
endfacet
facet normal -2.5311732249641134e-20 -0.9999980545468532 0.0019725370742087324
  outer loop
    vertex 7.999999999999999 -18.196152422706632 1.489999999999998
    vertex 1.9999999999999998 -18.209999999999987 -2.0000000000000004
    vertex 13.999999999999996 -18.196152422706632 1.489999999999998
  endloop
endfacet
facet normal 1.0 -0.0 -0.0
  outer loop
    vertex 20.0 11.200000000000003 -2.0000000000000004
    vertex 20.0 -18.209999999999987 1.4999999999999993
    vertex 20.0 -18.209999999999987 -2.0000000000000004
  endloop
endfacet
facet normal 1.0 -0.0 -0.0
  outer loop
    vertex 20.0 -18.209999999999987 1.4999999999999993
    vertex 20.0 11.200000000000003 -2.0000000000000004
    vertex 20.000108537360358 11.199984139896733 3.49548806488957
  endloop
endfacet
facet normal 1.0 -0.0 -0.0
  outer loop
    vertex 20.000108537360358 11.199984139896733 3.49548806488957
    vertex 20.000108537360358 -18.21001586010325 3.49548806488957
    vertex 20.0 -18.209999999999987 1.4999999999999993
  endloop
endfacet
facet normal -7.519914908554191e-05 -1.2643668913114739e-05 0.9999999970926128
  outer loop
    vertex 7.999999999999999 -18.196152422706632 3.4899999999999975
    vertex 5.0001085373603615 -13.000015860103261 3.4854880648895685
    vertex 2.0001085373603638 -18.21001586010325 3.49548806488957
  endloop
endfacet
facet normal -7.519914908554191e-05 -1.2643668913114739e-05 0.9999999970926128
  outer loop
    vertex 20.000108537360358 -18.21001586010325 3.49548806488957
    vertex 17.0 -12.999999999999998 3.4899999999999975
    vertex 14.000108537360354 -18.196168282809893 3.4854880648895685
  endloop
endfacet
facet normal -7.519914908554191e-05 -1.2643668913114739e-05 0.9999999970926128
  outer loop
    vertex 17.0 -12.999999999999998 3.4899999999999975
    vertex 20.000108537360358 -18.21001586010325 3.49548806488957
    vertex 17.0 5.999999999999998 3.4899999999999975
  endloop
endfacet
facet normal -7.519914908554191e-05 -1.2643668913114739e-05 0.9999999970926128
  outer loop
    vertex 17.0 5.999999999999998 3.4899999999999975
    vertex 20.000108537360358 11.199984139896733 3.49548806488957
    vertex 14.000000000000002 11.19615242270663 3.4899999999999975
  endloop
endfacet
facet normal -7.519914908554191e-05 -1.2643668913114739e-05 0.9999999970926128
  outer loop
    vertex 20.000108537360358 11.199984139896733 3.49548806488957
    vertex 17.0 5.999999999999998 3.4899999999999975
    vertex 20.000108537360358 -18.21001586010325 3.49548806488957
  endloop
endfacet
facet normal -7.519914908554191e-05 -1.2643668913114739e-05 0.9999999970926128
  outer loop
    vertex 8.000000000000004 -7.8038475772933635 3.4899999999999975
    vertex 5.0001085373603615 5.999984139896729 3.4854880648895685
    vertex 5.0001085373603615 -13.000015860103261 3.4854880648895685
  endloop
endfacet
facet normal -7.519914908554191e-05 -1.2643668913114739e-05 0.9999999970926128
  outer loop
    vertex 5.0001085373603615 5.999984139896729 3.4854880648895685
    vertex 8.000000000000004 -7.8038475772933635 3.4899999999999975
    vertex 8.000108537360365 0.8038317171900974 3.4854880648895685
  endloop
endfacet
facet normal -7.519914908554191e-05 -1.2643668913114739e-05 0.9999999970926128
  outer loop
    vertex 8.000108537360365 0.8038317171900974 3.4854880648895685
    vertex 8.000000000000004 -7.8038475772933635 3.4899999999999975
    vertex 14.000000000000002 -7.803847577293368 3.4899999999999975
  endloop
endfacet
facet normal -7.519914908554191e-05 -1.2643668913114739e-05 0.9999999970926128
  outer loop
    vertex 8.000108537360365 0.8038317171900974 3.4854880648895685
    vertex 14.000000000000002 -7.803847577293368 3.4899999999999975
    vertex 14.000108537360354 0.8038317171900967 3.4854880648895685
  endloop
endfacet
facet normal -7.519914908554191e-05 -1.2643668913114739e-05 0.9999999970926128
  outer loop
    vertex 14.000108537360354 0.8038317171900967 3.4854880648895685
    vertex 14.000000000000002 -7.803847577293368 3.4899999999999975
    vertex 17.0 -12.999999999999998 3.4899999999999975
  endloop
endfacet
facet normal -7.519914908554191e-05 -1.2643668913114739e-05 0.9999999970926128
  outer loop
    vertex 14.000108537360354 0.8038317171900967 3.4854880648895685
    vertex 17.0 -12.999999999999998 3.4899999999999975
    vertex 17.0 5.999999999999998 3.4899999999999975
  endloop
endfacet
facet normal -7.519914908554191e-05 -1.2643668913114739e-05 0.9999999970926128
  outer loop
    vertex 2.000108537360363 11.199984139896733 3.49548806488957
    vertex 5.0001085373603615 5.999984139896729 3.4854880648895685
    vertex 8.000000000000004 11.196152422706632 3.4899999999999975
  endloop
endfacet
facet normal -7.519914908554191e-05 -1.2643668913114739e-05 0.9999999970926128
  outer loop
    vertex 5.0001085373603615 5.999984139896729 3.4854880648895685
    vertex 2.000108537360363 11.199984139896733 3.49548806488957
    vertex 2.0001085373603638 -18.21001586010325 3.49548806488957
  endloop
endfacet
facet normal -7.519914908554191e-05 -1.2643668913114739e-05 0.9999999970926128
  outer loop
    vertex 5.0001085373603615 5.999984139896729 3.4854880648895685
    vertex 2.0001085373603638 -18.21001586010325 3.49548806488957
    vertex 5.0001085373603615 -13.000015860103261 3.4854880648895685
  endloop
endfacet
facet normal 0.0023092607430723515 -0.9999973336457446 -4.02766537888412e-06
  outer loop
    vertex 7.999999999999999 -18.196152422706632 3.4899999999999975
    vertex 1.9999999999999998 -18.209999999999987 1.4999999999999993
    vertex 7.999999999999999 -18.196152422706632 1.489999999999998
  endloop
endfacet
facet normal 0.0023092607430723515 -0.9999973336457446 -4.02766537888412e-06
  outer loop
    vertex 1.9999999999999998 -18.209999999999987 1.4999999999999993
    vertex 7.999999999999999 -18.196152422706632 3.4899999999999975
    vertex 2.0001085373603638 -18.21001586010325 3.49548806488957
  endloop
endfacet
facet normal -0.0023079103648940683 -0.9999973367407322 -7.822430414777444e-06
  outer loop
    vertex 20.0 -18.209999999999987 1.4999999999999993
    vertex 14.000108537360354 -18.196168282809893 3.4854880648895685
    vertex 13.999999999999996 -18.196152422706632 1.489999999999998
  endloop
endfacet
facet normal -0.0023079103648940683 -0.9999973367407322 -7.822430414777444e-06
  outer loop
    vertex 14.000108537360354 -18.196168282809893 3.4854880648895685
    vertex 20.0 -18.209999999999987 1.4999999999999993
    vertex 20.000108537360358 -18.21001586010325 3.49548806488957
  endloop
endfacet
facet normal -0.00025066340336857117 -0.00043416316964088527 0.9999998743350924
  outer loop
    vertex 7.999857873956997 0.8033975540204564 4.485487939224661
    vertex 6.999749336596633 5.9995658368303575 4.499999874335092
    vertex 4.999857873956993 5.999549976727088 4.485487939224661
  endloop
endfacet
facet normal -0.00025066340336857117 -0.00043416316964088527 0.9999998743350924
  outer loop
    vertex 6.999749336596633 5.9995658368303575 4.499999874335092
    vertex 7.999857873956997 0.8033975540204564 4.485487939224661
    vertex 8.999749336596635 2.535464221692602 4.499999874335092
  endloop
endfacet
facet normal -0.00025066340336857117 -0.00043416316964088527 0.9999998743350924
  outer loop
    vertex 8.999749336596635 2.535464221692602 4.499999874335092
    vertex 7.999857873956997 0.8033975540204564 4.485487939224661
    vertex 13.999857873956987 0.8033975540204557 4.485487939224661
  endloop
endfacet
facet normal -0.00025066340336857117 -0.00043416316964088527 0.9999998743350924
  outer loop
    vertex 8.999749336596635 2.535464221692602 4.499999874335092
    vertex 13.999857873956987 0.8033975540204557 4.485487939224661
    vertex 12.999749336596635 2.535464221692605 4.499999874335092
  endloop
endfacet
facet normal -0.00025066340336857117 -0.00043416316964088527 0.9999998743350924
  outer loop
    vertex 12.999749336596635 2.535464221692605 4.499999874335092
    vertex 13.999857873956987 0.8033975540204557 4.485487939224661
    vertex 14.999749336596631 5.999565836830358 4.499999874335092
  endloop
endfacet
facet normal -0.00025066340336857117 -0.00043416316964088527 0.9999998743350924
  outer loop
    vertex 14.999749336596631 5.999565836830358 4.499999874335092
    vertex 13.999857873956987 0.8033975540204557 4.485487939224661
    vertex 16.999749336596633 5.999565836830357 4.48999987433509
  endloop
endfacet
facet normal -0.00025066340336857117 -0.00043416316964088527 0.9999998743350924
  outer loop
    vertex 6.999749336596633 5.9995658368303575 4.499999874335092
    vertex 7.999749336596635 11.195718259536992 4.48999987433509
    vertex 4.999857873956993 5.999549976727088 4.485487939224661
  endloop
endfacet
facet normal -0.00025066340336857117 -0.00043416316964088527 0.9999998743350924
  outer loop
    vertex 7.999749336596635 11.195718259536992 4.48999987433509
    vertex 6.999749336596633 5.9995658368303575 4.499999874335092
    vertex 8.999749336596631 9.463667451968112 4.499999874335092
  endloop
endfacet
facet normal -0.00025066340336857117 -0.00043416316964088527 0.9999998743350924
  outer loop
    vertex 7.999749336596635 11.195718259536992 4.48999987433509
    vertex 8.999749336596631 9.463667451968112 4.499999874335092
    vertex 13.999749336596635 11.195718259536989 4.48999987433509
  endloop
endfacet
facet normal -0.00025066340336857117 -0.00043416316964088527 0.9999998743350924
  outer loop
    vertex 13.999749336596635 11.195718259536989 4.48999987433509
    vertex 8.999749336596631 9.463667451968112 4.499999874335092
    vertex 12.999749336596631 9.463667451968114 4.499999874335092
  endloop
endfacet
facet normal -0.00025066340336857117 -0.00043416316964088527 0.9999998743350924
  outer loop
    vertex 13.999749336596635 11.195718259536989 4.48999987433509
    vertex 12.999749336596631 9.463667451968114 4.499999874335092
    vertex 14.999749336596631 5.999565836830358 4.499999874335092
  endloop
endfacet
facet normal -0.00025066340336857117 -0.00043416316964088527 0.9999998743350924
  outer loop
    vertex 13.999749336596635 11.195718259536989 4.48999987433509
    vertex 14.999749336596631 5.999565836830358 4.499999874335092
    vertex 16.999749336596633 5.999565836830357 4.48999987433509
  endloop
endfacet
facet normal -0.8660338975608358 0.4999852880591464 -7.806758558668735e-09
  outer loop
    vertex 7.999749336596635 11.195718259536992 4.48999987433509
    vertex 5.0001085373603615 5.999984139896729 3.4854880648895685
    vertex 4.999857873956993 5.999549976727088 4.485487939224661
  endloop
endfacet
facet normal -0.8660338975608358 0.4999852880591464 -7.806758558668735e-09
  outer loop
    vertex 5.0001085373603615 5.999984139896729 3.4854880648895685
    vertex 7.999749336596635 11.195718259536992 4.48999987433509
    vertex 8.000000000000004 11.196152422706632 3.4899999999999975
  endloop
endfacet
facet normal -0.8660253221628161 -0.4999999528757349 -0.0004341624735765042
  outer loop
    vertex 4.999857873956993 5.999549976727088 4.485487939224661
    vertex 8.000108537360365 0.8038317171900974 3.4854880648895685
    vertex 7.999857873956997 0.8033975540204564 4.485487939224661
  endloop
endfacet
facet normal -0.8660253221628161 -0.4999999528757349 -0.0004341624735765042
  outer loop
    vertex 8.000108537360365 0.8038317171900974 3.4854880648895685
    vertex 4.999857873956993 5.999549976727088 4.485487939224661
    vertex 5.0001085373603615 5.999984139896729 3.4854880648895685
  endloop
endfacet
facet normal -1.1749859236538897e-16 -0.9999999057511608 -0.0004341631832805869
  outer loop
    vertex 13.999857873956987 0.8033975540204557 4.485487939224661
    vertex 8.000108537360365 0.8038317171900974 3.4854880648895685
    vertex 14.000108537360354 0.8038317171900967 3.4854880648895685
  endloop
endfacet
facet normal -1.1749859236538897e-16 -0.9999999057511608 -0.0004341631832805869
  outer loop
    vertex 8.000108537360365 0.8038317171900974 3.4854880648895685
    vertex 13.999857873956987 0.8033975540204557 4.485487939224661
    vertex 7.999857873956997 0.8033975540204564 4.485487939224661
  endloop
endfacet
facet normal 0.8660338975608355 -0.499985288059147 7.806758558324499e-09
  outer loop
    vertex 14.000108537360354 0.8038317171900967 3.4854880648895685
    vertex 16.999749336596633 5.999565836830357 4.48999987433509
    vertex 13.999857873956987 0.8033975540204557 4.485487939224661
  endloop
endfacet
facet normal 0.8660338975608355 -0.499985288059147 7.806758558324499e-09
  outer loop
    vertex 16.999749336596633 5.999565836830357 4.48999987433509
    vertex 14.000108537360354 0.8038317171900967 3.4854880648895685
    vertex 17.0 5.999999999999998 3.4899999999999975
  endloop
endfacet
facet normal 0.8660253221628167 0.4999999528757341 0.00043416247357650406
  outer loop
    vertex 17.0 5.999999999999998 3.4899999999999975
    vertex 13.999749336596635 11.195718259536989 4.48999987433509
    vertex 16.999749336596633 5.999565836830357 4.48999987433509
  endloop
endfacet
facet normal 0.8660253221628167 0.4999999528757341 0.00043416247357650406
  outer loop
    vertex 13.999749336596635 11.195718259536989 4.48999987433509
    vertex 17.0 5.999999999999998 3.4899999999999975
    vertex 14.000000000000002 11.19615242270663 3.4899999999999975
  endloop
endfacet
facet normal -0.00012532727471844884 -0.00021708172379927398 0.9999999685842992
  outer loop
    vertex 7.999874672725281 -18.196369504430432 4.489999968584296
    vertex 6.999874672725283 -13.000217081723799 4.489999968584296
    vertex 4.999983210085643 -13.00023294182706 4.485488033473867
  endloop
endfacet
facet normal -0.00012532727471844884 -0.00021708172379927398 0.9999999685842992
  outer loop
    vertex 6.999874672725283 -13.000217081723799 4.489999968584296
    vertex 7.999874672725281 -18.196369504430432 4.489999968584296
    vertex 8.999874672725285 -16.464318696861554 4.489999968584296
  endloop
endfacet
facet normal -0.00012532727471844884 -0.00021708172379927398 0.9999999685842992
  outer loop
    vertex 8.999874672725285 -16.464318696861554 4.489999968584296
    vertex 7.999874672725281 -18.196369504430432 4.489999968584296
    vertex 13.999983210085636 -18.196385364533693 4.485488033473867
  endloop
endfacet
facet normal -0.00012532727471844884 -0.00021708172379927398 0.9999999685842992
  outer loop
    vertex 8.999874672725285 -16.464318696861554 4.489999968584296
    vertex 13.999983210085636 -18.196385364533693 4.485488033473867
    vertex 12.999874672725284 -16.464318696861554 4.489999968584296
  endloop
endfacet
facet normal -0.00012532727471844884 -0.00021708172379927398 0.9999999685842992
  outer loop
    vertex 12.999874672725284 -16.464318696861554 4.489999968584296
    vertex 13.999983210085636 -18.196385364533693 4.485488033473867
    vertex 14.99987467272528 -13.000217081723799 4.489999968584296
  endloop
endfacet
facet normal -0.00012532727471844884 -0.00021708172379927398 0.9999999685842992
  outer loop
    vertex 14.99987467272528 -13.000217081723799 4.489999968584296
    vertex 13.999983210085636 -18.196385364533693 4.485488033473867
    vertex 16.99987467272528 -13.000217081723799 4.489999968584296
  endloop
endfacet
facet normal -0.00012532727471844884 -0.00021708172379927398 0.9999999685842992
  outer loop
    vertex 6.999874672725283 -13.000217081723799 4.489999968584296
    vertex 7.999874672725285 -7.804064659017162 4.489999968584296
    vertex 4.999983210085643 -13.00023294182706 4.485488033473867
  endloop
endfacet
facet normal -0.00012532727471844884 -0.00021708172379927398 0.9999999685842992
  outer loop
    vertex 7.999874672725285 -7.804064659017162 4.489999968584296
    vertex 6.999874672725283 -13.000217081723799 4.489999968584296
    vertex 8.999874672725282 -9.536115466586043 4.489999968584296
  endloop
endfacet
facet normal -0.00012532727471844884 -0.00021708172379927398 0.9999999685842992
  outer loop
    vertex 7.999874672725285 -7.804064659017162 4.489999968584296
    vertex 8.999874672725282 -9.536115466586043 4.489999968584296
    vertex 13.999874672725284 -7.8040646590171665 4.489999968584296
  endloop
endfacet
facet normal -0.00012532727471844884 -0.00021708172379927398 0.9999999685842992
  outer loop
    vertex 13.999874672725284 -7.8040646590171665 4.489999968584296
    vertex 8.999874672725282 -9.536115466586043 4.489999968584296
    vertex 12.99987467272528 -9.536115466586043 4.489999968584296
  endloop
endfacet
facet normal -0.00012532727471844884 -0.00021708172379927398 0.9999999685842992
  outer loop
    vertex 13.999874672725284 -7.8040646590171665 4.489999968584296
    vertex 12.99987467272528 -9.536115466586043 4.489999968584296
    vertex 14.99987467272528 -13.000217081723799 4.489999968584296
  endloop
endfacet
facet normal -0.00012532727471844884 -0.00021708172379927398 0.9999999685842992
  outer loop
    vertex 13.999874672725284 -7.8040646590171665 4.489999968584296
    vertex 14.99987467272528 -13.000217081723799 4.489999968584296
    vertex 16.99987467272528 -13.000217081723799 4.489999968584296
  endloop
endfacet
facet normal 7.049916040257942e-16 0.9999999764377621 0.00021708172550411739
  outer loop
    vertex 7.999874672725285 -7.804064659017162 4.489999968584296
    vertex 14.000000000000002 -7.803847577293368 3.4899999999999975
    vertex 8.000000000000004 -7.8038475772933635 3.4899999999999975
  endloop
endfacet
facet normal 7.049916040257942e-16 0.9999999764377621 0.00021708172550411739
  outer loop
    vertex 14.000000000000002 -7.803847577293368 3.4899999999999975
    vertex 7.999874672725285 -7.804064659017162 4.489999968584296
    vertex 13.999874672725284 -7.8040646590171665 4.489999968584296
  endloop
endfacet
facet normal -0.866033897563771 0.4999852880540627 9.58879268461351e-15
  outer loop
    vertex 7.999874672725285 -7.804064659017162 4.489999968584296
    vertex 5.0001085373603615 -13.000015860103261 3.4854880648895685
    vertex 4.999983210085643 -13.00023294182706 4.485488033473867
  endloop
endfacet
facet normal -0.866033897563771 0.4999852880540627 9.58879268461351e-15
  outer loop
    vertex 5.0001085373603615 -13.000015860103261 3.4854880648895685
    vertex 7.999874672725285 -7.804064659017162 4.489999968584296
    vertex 8.000000000000004 -7.8038475772933635 3.4899999999999975
  endloop
endfacet
facet normal -0.866032473925546 -0.4999877068334216 -0.00021707568987219494
  outer loop
    vertex 4.999983210085643 -13.00023294182706 4.485488033473867
    vertex 7.999999999999999 -18.196152422706632 3.4899999999999975
    vertex 7.999874672725281 -18.196369504430432 4.489999968584296
  endloop
endfacet
facet normal -0.866032473925546 -0.4999877068334216 -0.00021707568987219494
  outer loop
    vertex 7.999999999999999 -18.196152422706632 3.4899999999999975
    vertex 4.999983210085643 -13.00023294182706 4.485488033473867
    vertex 5.0001085373603615 -13.000015860103261 3.4854880648895685
  endloop
endfacet
facet normal 0.8660338975637706 -0.4999852880540633 -9.58897914602997e-15
  outer loop
    vertex 14.000108537360354 -18.196168282809893 3.4854880648895685
    vertex 16.99987467272528 -13.000217081723799 4.489999968584296
    vertex 13.999983210085636 -18.196385364533693 4.485488033473867
  endloop
endfacet
facet normal 0.8660338975637706 -0.4999852880540633 -9.58897914602997e-15
  outer loop
    vertex 16.99987467272528 -13.000217081723799 4.489999968584296
    vertex 14.000108537360354 -18.196168282809893 3.4854880648895685
    vertex 17.0 -12.999999999999998 3.4899999999999975
  endloop
endfacet
facet normal 0.8660253833797426 0.4999999882193429 0.00021707746729789537
  outer loop
    vertex 17.0 -12.999999999999998 3.4899999999999975
    vertex 13.999874672725284 -7.8040646590171665 4.489999968584296
    vertex 16.99987467272528 -13.000217081723799 4.489999968584296
  endloop
endfacet
facet normal 0.8660253833797426 0.4999999882193429 0.00021707746729789537
  outer loop
    vertex 13.999874672725284 -7.8040646590171665 4.489999968584296
    vertex 17.0 -12.999999999999998 3.4899999999999975
    vertex 14.000000000000002 -7.803847577293368 3.4899999999999975
  endloop
endfacet
endsolid Timing_Belt_Tensioner_Cap
